<?xml version="1.0" encoding="utf-8"?>

<!-- Generator: Adobe Illustrator 22.0.1, SVG Export Plug-In . SVG Version: 6.00 Build 0)  -->

<svg version="1.1" id="Layer_1" xmlns="http://www.w3.org/2000/svg" xmlns:xlink="http://www.w3.org/1999/xlink" x="0px" y="0px"

	 viewBox="0 0 3203.8 2579" style="enable-background:new 0 0 3203.8 2579;" xml:space="preserve">

<style type="text/css">

	.st0{fill:#FFFFFF;}

	.st1{fill:none;stroke:#939393;stroke-width:6;stroke-linecap:round;stroke-linejoin:round;stroke-miterlimit:10;}

	.st2{fill:#939393;}

	.st3{stroke:#000000;stroke-miterlimit:10;}

	.st{stroke:purple;fill:red;fill-opacity:0.5;stroke-opacity:0.25;stroke-width:30;stroke-linecap:round;}

</style>

<g id="Layer_2">

	<polygon class="st0" points="1647.9,0 3203.8,1557.1 3203.8,1633.1 2682.8,1932.2 2763.2,2012.6 2763.2,2088.6 2253.8,2381 

		2125.1,2252.3 1555.9,2579 0,1021.9 0,945.9 	"/>

</g>

<g id="Layer_1_1_">

	<g>

		<polygon class="st0" points="2137.2,1177.5 1936.2,1292.9 1871.1,1227.7 1997.4,1155.3 2040,1130.8 2163,1060.2 2228.1,1125.4 		

			"/>

		<polygon class="st0" points="2040,1054.8 2040,1130.8 1997.4,1155.3 1997.4,1079.3 1822.8,1179.4 1822.8,1255.4 1613.5,1046 

			1647.3,1026.6 1923.6,868 2063,788 2121.3,754.5 2251.3,679.9 2412.4,841.1 2348.1,877.9 2348.1,953.9 2289.8,987.4 2289.8,911.4 

			2163,984.2 		"/>

		<polygon class="st0" points="2063,712 1923.6,792 1624.6,492.7 1715.7,440.4 1774,407 1904,332.3 2203.1,631.6 2121.3,678.5 

			2121.3,754.5 2063,788 		"/>

		<path class="st0" d="M1456.9,1019.2l0.9,2.6l1.8,2.4l2.5,1.9l3.1,1.4l3.4,0.7h3.6l3.4-0.7l3.1-1.3l2.5-1.9l1.8-2.3l0.9-2.6v-2.7

			v-76l-0.9-2.6l-1.8-2.3l-2.5-1.9l-3.1-1.4l-3.4-0.7h-3.6l-3.5,0.7l-3.1,1.3l-2.5,1.9l-1.8,2.3l-0.9,2.6v2.7L1456.9,1019.2

			L1456.9,1019.2L1456.9,1019.2z M1403.2,965.5l0.9,2.6l1.8,2.4l2.5,1.9l3.1,1.4l3.4,0.7h3.6l3.4-0.7l3.1-1.3l2.5-1.9l1.8-2.3

			l0.9-2.6V963v-76l-0.9-2.6l-1.8-2.3l-2.5-1.9l-3.1-1.4l-3.4-0.7h-3.6l-3.4,0.7l-3.1,1.3l-2.5,1.9l-1.8,2.3l-0.9,2.6v2.7V965.5z

			 M1349.5,911.8l0.9,2.6l1.8,2.4l2.5,1.9l3.1,1.4l3.4,0.7h3.6l3.5-0.7l3.1-1.3l2.5-1.9l1.8-2.3l0.9-2.6v-2.7v-76l-0.9-2.6l-1.8-2.3

			l-2.5-1.9l-3.1-1.4l-3.4-0.7h-3.6l-3.4,0.7l-3.1,1.3l-2.5,1.9l-1.8,2.3l-0.9,2.6v2.7L1349.5,911.8L1349.5,911.8L1349.5,911.8z

			 M1295.9,858.1l0.9,2.6l1.8,2.3l2.5,1.9l3.1,1.4l3.4,0.7h3.6l3.4-0.7l3.1-1.3l2.5-1.9l1.8-2.3l1-2.6v-2.7v-76l-0.9-2.6l-1.8-2.4

			l-2.5-1.9l-3.1-1.4l-3.4-0.7h-3.6l-3.5,0.7l-3.1,1.3l-2.5,1.9l-1.8,2.3l-0.9,2.6v2.7V858.1z M1242.2,804.4l0.9,2.6l1.8,2.4

			l2.5,1.9l3.1,1.4l3.4,0.7h3.6l3.4-0.7l3.1-1.3l2.5-1.9l1.8-2.3l0.9-2.6v-2.7v-76l-0.9-2.6l-1.8-2.4l-2.5-1.9l-3.1-1.4l-3.4-0.7

			h-3.6l-3.4,0.7l-3.1,1.3l-2.5,1.9l-1.8,2.3l-0.9,2.6v2.7V804.4z M1241.3,1142.9l0.9,2.6l1.8,2.4l2.5,1.9l3.1,1.4l3.4,0.7h3.6

			l3.4-0.7l3.1-1.3l2.5-1.9l1.8-2.3l0.9-2.6v-2.7v-76l-0.9-2.6l-1.8-2.4l-2.5-1.9l-3.1-1.4l-3.4-0.7h-3.6l-3.4,0.7l-3.1,1.3

			l-2.5,1.9l-1.8,2.3l-0.9,2.6v2.7V1142.9z M1188.5,750.7l0.9,2.6l1.8,2.4l2.5,1.9l3.1,1.4l3.4,0.7h3.6l3.5-0.7l3.1-1.3l2.5-1.9

			l1.8-2.3l0.9-2.6v-2.7v-76l-0.9-2.6l-1.8-2.4l-2.5-1.9l-3.1-1.4l-3.4-0.7h-3.6l-3.4,0.7l-3.1,1.3l-2.5,1.9l-1.8,2.3l-1,2.6v2.7

			V750.7z M1187.6,1089.2l0.9,2.6l1.8,2.4l2.5,1.9l3.1,1.4l3.4,0.7h3.6l3.4-0.7l3.1-1.3l2.5-1.9l1.8-2.3l1-2.6v-2.7v-76l-0.9-2.6

			l-1.8-2.3l-2.5-1.9l-3.1-1.4l-3.4-0.7h-3.6l-3.5,0.7l-3.1,1.3l-2.5,1.9l-1.8,2.3l-0.9,2.6v2.7V1089.2z M1134,1035.5l0.9,2.6

			l1.8,2.4l2.5,1.9l3.1,1.4l3.4,0.7h3.6l3.5-0.7l3.1-1.3l2.5-1.9l1.8-2.3l0.9-2.6v-2.7v-76l-0.9-2.6l-1.8-2.3l-2.5-1.9l-3.1-1.4

			l-3.4-0.7h-3.6l-3.4,0.7l-3.1,1.3l-2.5,1.9l-1.8,2.3l-0.9,2.6v2.7L1134,1035.5L1134,1035.5z M1080.3,981.8l0.9,2.6l1.8,2.4

			l2.5,1.9l3.1,1.4l3.4,0.7h3.6l3.5-0.7l3.1-1.3l2.5-1.9l1.8-2.3l1-2.6v-2.7v-76l-0.9-2.6l-1.8-2.4l-2.5-1.9l-3.1-1.4l-3.4-0.7h-3.6

			l-3.5,0.7l-3.1,1.3l-2.5,1.9l-1.8,2.3l-0.9,2.6v2.7L1080.3,981.8L1080.3,981.8z M1026.6,928.1l0.9,2.6l1.8,2.4l2.5,1.9l3.1,1.4

			l3.4,0.7h3.6l3.4-0.7l3.1-1.3l2.5-1.9l1.8-2.3l0.9-2.6v-2.7v-76l-0.9-2.6l-1.8-2.4l-2.5-1.9l-3.1-1.4l-3.4-0.7h-3.6l-3.4,0.7

			l-3.1,1.3l-2.5,1.9l-1.8,2.3l-0.9,2.6v2.7V928.1z M973,874.4l0.9,2.6l1.8,2.4l2.5,1.9l3.1,1.4l3.4,0.7h3.6l3.5-0.7l3.1-1.3

			l2.5-1.9l1.8-2.3l0.9-2.6v-2.7v-76l-0.9-2.6l-1.8-2.4l-2.5-1.9l-3.1-1.4l-3.4-0.7h-3.6l-3.4,0.7l-3.1,1.3l-2.5,1.9l-1.8,2.3

			l-1,2.6v2.7V874.4z M919.3,820.7l0.9,2.6l1.8,2.3l2.5,1.9l3.1,1.4l3.4,0.7h3.6l3.4-0.7l3.1-1.3l2.5-1.9l1.8-2.3l0.9-2.6v-2.7v-76

			l-0.9-2.6l-1.8-2.4l-2.5-1.9l-3.1-1.4l-3.4-0.7H931l-3.5,0.7l-3.1,1.3l-2.5,1.9l-1.8,2.3l-1,2.6v2.7v76.1L919.3,820.7L919.3,820.7

			z M1532.9,1016.2v76L1331.1,1208v-76l-123.8,71L818.8,814.2l68.8-39.5v-76L875,686.1l166.8-95.7l60.8,60.9l32-18.4v63.9l0.9,2.6

			l1.8,2.4l2.5,1.9l3.1,1.4l3.4,0.7h3.6l3.5-0.7l3.1-1.3l2.5-1.9l1.8-2.3l0.9-2.6v-2.7v-76l-0.3-0.8l48.9-28.1l388.5,388.8

			L1532.9,1016.2z"/>

		<polygon class="st0" points="1102.9,575.4 1042.1,514.5 993.8,542.2 980.4,528.8 980.4,459.2 1647.9,76 1766.3,194.5 

			1684.6,241.5 1684.6,317.5 1626.3,350.9 1626.3,274.9 1486.9,354.9 1210.6,513.6 		"/>

		<polygon class="st0" points="936.2,484.5 980.4,528.8 993.8,542.2 827,638 827,714 765.3,652.2 765.3,582.6 		"/>

		<polygon class="st0" points="827,714 839.5,726.5 770.7,766 494.4,924.7 358.1,1002.9 358.1,1078.9 296.7,1114.1 296.7,1038.1 

			166.7,1112.8 48.2,994.2 721.1,608 765.3,652.2 		"/>

		<polygon class="st0" points="214.9,1161.1 296.7,1114.1 358.1,1078.9 494.4,1000.7 882.8,1389.4 794.8,1439.9 794.8,1515.9 

			733.4,1551.2 733.4,1475.2 603.4,1549.8 		"/>

		<polygon class="st0" points="651.6,1598.1 733.4,1551.2 794.8,1515.9 931.1,1437.7 1207.4,1279.1 1241.2,1259.7 1402.2,1420.9 

			1110.3,1588.4 997.8,1653 997.8,1729 939.6,1762.4 939.6,1686.4 812.7,1759.3 		"/>

		<polygon class="st0" points="950.4,1897.1 1029,1851.9 1087.3,1818.5 1199.7,1753.9 1545.3,2099.7 1481.1,2136.6 1481.1,2212.6 

			1422.8,2246.1 1422.8,2170.1 1295.9,2242.9 		"/>

		<polygon class="st0" points="1696.6,2251.1 1696.6,2175.1 1641.8,2120.3 1933.7,1952.8 2034.4,2053.5 2145.4,2164.6 

			2125.1,2176.3 1853.5,2332.2 1742,2220.6 1742,2296.6 		"/>

		<polygon class="st0" points="1742,2296.6 1805.3,2359.9 1555.9,2503 1344.2,2291.2 1422.8,2246.1 1481.1,2212.6 1593.6,2148 

			1696.6,2251.1 		"/>

		<path class="st0" d="M1780,1335.9l3.5-0.7l3.1-1.3l2.5-1.9l1.8-2.4l0.9-2.6v-76v-2.8l-1-2.7l-1.8-2.4l-2.6-2l-3.1-1.4l-3.5-0.8

			l-3.6-0.1l-3.5,0.7l-3.1,1.3l-2.5,1.9l-1.8,2.4l-0.9,2.6v76v2.8l0.9,2.7l1.8,2.4l2.6,2l3.1,1.4l3.5,0.8L1780,1335.9z

			 M1833.5,1389.4l3.5-0.7l3.1-1.3l2.5-1.9l1.8-2.4l0.9-2.6v-76v-2.8l-1-2.7l-1.8-2.4l-2.6-2l-3.1-1.4l-3.5-0.8h-3.6l-3.5,0.7

			l-3.1,1.3l-2.5,1.9l-1.8,2.4l-0.9,2.6v76v2.8l0.9,2.7l1.8,2.4l2.6,2l3.1,1.4l3.5,0.8H1833.5z M1883.5,1442.9l3.6,0.1l3.5-0.7

			l3.1-1.3l2.5-1.9l1.8-2.4l0.9-2.6v-76v-2.8l-1-2.7l-1.8-2.4l-2.6-2l-3.1-1.4l-3.5-0.8h-3.6l-3.5,0.7l-3.1,1.3l-2.5,1.9l-1.8,2.4

			l-0.9,2.6v76v2.8l1,2.7l1.8,2.4l2.6,2l3.1,1.4L1883.5,1442.9z M1937,1496.5l3.6,0.1l3.5-0.7l3.1-1.3l2.5-1.9l1.8-2.4l0.9-2.6v-76

			v-2.8l-0.9-2.7l-1.8-2.4l-2.6-2l-3.1-1.4l-3.5-0.8l-3.6-0.1l-3.5,0.7l-3.1,1.3l-2.5,1.9l-1.8,2.4l-0.9,2.6v76v2.8l1,2.7l1.8,2.4

			l2.6,2l3.1,1.4L1937,1496.5z M1994.1,1550.1l3.5-0.7l3.1-1.3l2.5-1.9l1.8-2.3l0.9-2.7v-76v-2.8l-0.9-2.7l-1.8-2.4l-2.6-2l-3.1-1.4

			l-3.5-0.8l-3.6-0.1l-3.5,0.7l-3.1,1.3l-2.5,1.9l-1.8,2.4l-0.9,2.6v76v2.8l1,2.7l1.8,2.4l2.6,2l3.1,1.4l3.5,0.8L1994.1,1550.1z

			 M2044,1603.6l3.6,0.1l3.5-0.7l3.1-1.3l2.5-1.9l1.8-2.4l0.9-2.6v-76v-2.8l-0.9-2.7l-1.8-2.4l-2.6-2l-3.1-1.4l-3.5-0.8l-3.6-0.1

			l-3.5,0.7l-3.1,1.3l-2.5,1.9l-1.8,2.4l-0.9,2.6v76v2.8l1,2.7l1.8,2.4l2.6,2l3.1,1.4L2044,1603.6z M2097.5,1657.1h3.6l3.5-0.7

			l3.1-1.3l2.5-1.9l1.8-2.4l0.9-2.6v-76v-2.8l-0.9-2.7l-1.8-2.4l-2.6-2l-3.1-1.4l-3.5-0.8l-3.6-0.1l-3.5,0.7l-3.1,1.3l-2.5,1.9

			l-1.8,2.4l-0.9,2.6v76v2.8l1,2.7l1.8,2.4l2.6,2l3.1,1.4L2097.5,1657.1z M2154.6,1710.7l3.5-0.7l3.1-1.3l2.5-1.9l1.8-2.4l0.9-2.6

			v-76v-2.8l-1-2.7l-1.8-2.4l-2.6-2l-3.1-1.4l-3.5-0.8l-3.6-0.1l-3.5,0.7l-3.1,1.3l-2.5,1.9l-1.8,2.4l-0.9,2.6v76v2.8l1,2.7l1.8,2.4

			l2.6,2l3.1,1.4l3.5,0.8L2154.6,1710.7z M2208.1,1764.3l3.5-0.7l3.1-1.3l2.5-1.9l1.8-2.3l0.9-2.7v-76v-2.8l-1-2.7l-1.8-2.4l-2.6-2

			l-3.1-1.4l-3.5-0.8l-3.6-0.1l-3.5,0.7l-3.1,1.3l-2.5,1.9l-1.8,2.4l-0.9,2.6v76v2.8l1,2.7l1.8,2.4l2.6,2l3.1,1.4l3.5,0.8

			L2208.1,1764.3z M2325.1,1884.9h3.6l3.4-0.7l3.1-1.3l2.5-1.9l1.8-2.3l0.9-2.6v-2.7v-76l-0.9-2.6l-1.8-2.4l-2.5-1.9l-3.1-1.4

			l-3.4-0.7h-3.6l-3.4,0.7l-3.1,1.3l-2.5,1.9l-1.8,2.3l-0.9,2.6v2.7v76l0.9,2.6l1.8,2.3l2.5,1.9l3.1,1.4L2325.1,1884.9z

			 M2429.4,1989.2h3.6l3.4-0.7l3.1-1.3l2.5-1.9l1.8-2.3l0.9-2.6v-2.7v-76l-0.9-2.6l-1.8-2.4l-2.5-1.9l-3.1-1.4l-3.4-0.7h-3.6

			l-3.4,0.7l-3.1,1.3l-2.5,1.9l-1.8,2.3l-0.9,2.6v2.7v76l0.9,2.6l1.8,2.4l2.5,1.9l3.1,1.4L2429.4,1989.2z M2109.2,2008.8h3.6

			l3.5-0.7l3.1-1.3l2.5-1.9l1.8-2.3l0.9-2.6v-2.7v-76l-0.9-2.6l-1.8-2.3l-2.5-1.9l-3.1-1.4l-3.4-0.7h-3.6l-3.4,0.7l-3.1,1.3

			l-2.5,1.9l-1.8,2.3l-0.9,2.6v2.7v76l0.9,2.6l1.8,2.3l2.5,1.9l3.1,1.4L2109.2,2008.8z M1638.4,1200.4l0.9,2.6l1.8,2.4l2.5,1.9

			l3.1,1.4l3.4,0.7h3.6l3.4-0.7l3.1-1.3l2.5-1.9l1.8-2.3l0.9-2.6v-2.7v-76l-0.9-2.6l-1.8-2.4l-2.5-1.9l-3.1-1.4l-3.4-0.7h-3.6

			l-3.4,0.7l-3.1,1.3l-2.5,1.9l-1.8,2.3l-0.9,2.6v2.7V1200.4z M1690.5,1252.5l0.9,2.6l1.8,2.4l2.5,1.9l3.1,1.4l3.4,0.7h3.6l3.4-0.7

			l3.1-1.3l2.5-1.9l1.8-2.3l0.9-2.6v-2.7v-76l-0.9-2.6l-1.8-2.4l-2.5-1.9l-3.1-1.4l-3.4-0.7h-3.6l-3.4,0.7l-3.1,1.3l-2.5,1.9

			l-1.8,2.3l-0.9,2.6v2.7V1252.5z M1474.6,1376.4l0.9,2.6l1.8,2.4l2.5,1.9l3.1,1.4l3.4,0.7h3.6l3.4-0.7l3.1-1.3l2.5-1.9l1.8-2.3

			l1-2.6v-2.7v-76l-0.9-2.6l-1.8-2.4l-2.5-1.9l-3.1-1.4l-3.4-0.7h-3.6l-3.5,0.7l-3.1,1.3l-2.5,1.9l-1.8,2.3l-0.9,2.6v2.7V1376.4z

			 M1422.5,1324.3l0.9,2.6l1.8,2.3l2.5,1.9l3.1,1.4l3.4,0.7h3.6l3.4-0.7l3.1-1.3l2.5-1.9l1.8-2.3l0.9-2.6v-2.7v-76l-0.9-2.6

			l-1.8-2.4l-2.5-1.9l-3.1-1.4l-3.4-0.7h-3.6l-3.4,0.7l-3.1,1.3l-2.5,1.9l-1.8,2.3l-0.9,2.6v2.7V1324.3z M2004.1,1837.3l47.7,47.7

			l147.8-84.9l-483.2-483.6l-140.4,80.6v-22.2v-2.8l-1-2.7l-1.8-2.4l-2.6-2l-3.1-1.4l-3.5-0.8l-3.6-0.1l-3.5,0.7l-3.1,1.3l-2.5,1.9

			l-1.8,2.4l-0.9,2.6v76v2.8l1,2.7l1.8,2.4l2.6,2l3.1,1.4l3.5,0.8l3.6,0.1l3.5-0.7l3.1-1.3l2.5-1.9l1.8-2.4l0.9-2.6v-42l7.2,7.2

			l18.9,18.9v66.3v2.8l0.9,2.7l1.8,2.4l2.6,2l3.1,1.4l3.5,0.8l3.6,0.1l3.5-0.7l3.1-1.3l2.5-1.9l1.8-2.4l0.9-2.6v-42l19.7,19.8

			l6.4,6.4v66.3v2.8l0.9,2.7l1.8,2.4l2.6,2l3.1,1.4l3.5,0.8l3.6,0.1l3.5-0.7l3.1-1.3l2.5-1.9l1.8-2.3l0.9-2.7v-42l6.5,6.5l14.7,14.7

			l5,5v66.3v2.8l1,2.7l1.8,2.4l2.6,2l3.1,1.4l3.5,0.8h3.6l3.5-0.7l3.1-1.3l2.5-1.9l1.8-2.4l0.9-2.6v-42l7.9,7.9l18.2,18.2v66.3v2.8

			l1,2.7l1.8,2.4l2.6,2l3.1,1.4l3.5,0.8l3.6,0.1l3.5-0.7l3.1-1.3l2.5-1.9l1.8-2.4l0.9-2.6v-42l20.3,20.3l5.8,5.8v66.3v2.8l1,2.7

			l1.8,2.4l2.6,2l3.1,1.4l3.5,0.8l3.6,0.1l3.5-0.7l3.1-1.3l2.5-1.9l1.8-2.4l0.9-2.6v-42l7.1,7.1l14.6,14.7l4.4,4.4v66.3v2.8l1,2.7

			l1.8,2.4l2.6,2l3.1,1.4l3.5,0.8l3.6,0.1l3.5-0.7l3.1-1.3l2.5-1.9l1.8-2.3l0.9-2.7v-42l8.6,8.6l17.5,17.5v66.3v2.8l1,2.7l1.8,2.4

			l2.6,2l3.1,1.4l3.5,0.8h3.6l3.5-0.7l3.1-1.3l2.5-1.9l1.8-2.4l0.9-2.6v-42l21,21l1.3,1.3l3.8,3.8v66.3v2.8l1,2.7l1.8,2.4l2.6,2

			l3.1,1.4l3.5,0.8l3.6,0.1l3.5-0.7l3.1-1.3l2.5-1.9l1.8-2.4l0.9-2.6v-43.3L2004.1,1837.3L2004.1,1837.3z M2034.4,1977.5

			l-100.7-100.7l-483.2-483.6l-48.3,27.7l-161-161.2l90-51.6l201.8-115.8l80.6-46.2l209.3,209.5l483.2,483.6l100.6,100.7

			l111.1,111.1l-41.4,23.8v76l-193,110.8v-76l-137.9,79.2l-111.1-111.2L2034.4,1977.5L2034.4,1977.5z"/>

		<polygon class="st0" points="2634.6,1959.9 2714.9,2040.3 2253.8,2305 2173.4,2224.6 2283.3,2161.5 2476.3,2050.7 		"/>

		<polygon class="st0" points="2406.7,1839.8 2406.7,1763.8 2354.3,1711.4 2646.2,1543.8 2746.8,1644.5 2794.7,1692.4 

			2857.9,1755.7 2634.6,1883.9 2517.7,1950.9 		"/>

		<path class="st0" d="M2705.4,1509.9l178.1-102.2v-76l-178.1,102.2V1509.9z M2746.8,1644.5v-76l-100.6-100.7L2300.7,1122l78.6-45.1

			l58.3-33.5l112.5-64.6l605.5,606l-249.4,143.1l-111.5-111.5v76L2746.8,1644.5z"/>

		<polygon class="st0" points="2228.1,1125.4 2252.4,1149.7 2161.5,1201.8 2137.2,1177.5 		"/>

	</g>

	<g>

		<line class="st1" x1="1791.7" y1="1326.6" x2="1791.7" y2="1248.2"/>

		<line class="st1" x1="1764.6" y1="1326.6" x2="1764.6" y2="1248.2"/>

		<path class="st1" d="M1764.6,1248.2c0-5,6.1-9.1,13.5-9.1c7.5,0,13.5,4.1,13.5,9.1"/>

		<path class="st1" d="M1764.6,1326.6c0,5.1,6.1,9.2,13.5,9.2c7.5,0,13.6-4.1,13.6-9.2"/>

		<line class="st1" x1="1845.2" y1="1380.1" x2="1845.2" y2="1301.8"/>

		<line class="st1" x1="1818.1" y1="1380.1" x2="1818.1" y2="1301.8"/>

		<path class="st1" d="M1818.1,1301.8c0-5.1,6.1-9.2,13.5-9.2c7.5,0,13.6,4.1,13.6,9.2"/>

		<path class="st1" d="M1818.1,1380.1c0,5.1,6.1,9.2,13.5,9.2c7.5,0,13.6-4.1,13.6-9.2"/>

		<line class="st1" x1="1898.7" y1="1433.7" x2="1898.7" y2="1355.3"/>

		<line class="st1" x1="1871.6" y1="1433.7" x2="1871.6" y2="1355.3"/>

		<path class="st1" d="M1871.6,1355.3c0-5.1,6.1-9.2,13.5-9.2c7.5,0,13.6,4.1,13.6,9.2"/>

		<path class="st1" d="M1871.6,1433.7c0,5.1,6.1,9.2,13.6,9.2s13.5-4.1,13.5-9.2"/>

		<line class="st1" x1="1952.2" y1="1487.3" x2="1952.2" y2="1408.9"/>

		<line class="st1" x1="1925.1" y1="1487.3" x2="1925.1" y2="1408.9"/>

		<path class="st1" d="M1925.1,1408.9c0-5.1,6.1-9.2,13.5-9.2c7.5,0,13.6,4.1,13.6,9.2"/>

		<path class="st1" d="M1925.1,1487.3c0,5.1,6.1,9.2,13.6,9.2s13.5-4.1,13.5-9.2"/>

		<line class="st1" x1="2005.7" y1="1540.8" x2="2005.7" y2="1462.4"/>

		<line class="st1" x1="1978.6" y1="1540.8" x2="1978.6" y2="1462.4"/>

		<path class="st1" d="M1978.6,1462.4c0-5,6.1-9.1,13.6-9.1s13.5,4.1,13.5,9.1"/>

		<path class="st1" d="M1978.7,1540.8c0,5.1,6.1,9.2,13.5,9.2c7.5,0,13.5-4.1,13.5-9.2"/>

		<line class="st1" x1="2059.2" y1="1594.4" x2="2059.2" y2="1516"/>

		<line class="st1" x1="2032.1" y1="1594.4" x2="2032.2" y2="1516"/>

		<path class="st1" d="M2032.2,1516c0-5.1,6.1-9.2,13.5-9.2c7.5,0,13.5,4.1,13.5,9.2"/>

		<path class="st1" d="M2032.2,1594.4c0,5.1,6.1,9.2,13.5,9.2c7.5,0,13.5-4.1,13.5-9.2"/>

		<line class="st1" x1="2112.8" y1="1647.9" x2="2112.8" y2="1569.5"/>

		<line class="st1" x1="2085.7" y1="1647.9" x2="2085.7" y2="1569.5"/>

		<path class="st1" d="M2085.7,1569.5c0-5.1,6.1-9.2,13.5-9.2c7.5,0,13.5,4.1,13.5,9.2"/>

		<path class="st1" d="M2085.7,1647.9c0,5.1,6.1,9.2,13.5,9.2c7.5,0,13.5-4.1,13.5-9.2"/>

		<line class="st1" x1="2166.3" y1="1701.5" x2="2166.3" y2="1623.1"/>

		<line class="st1" x1="2139.2" y1="1701.5" x2="2139.2" y2="1623.1"/>

		<path class="st1" d="M2139.2,1623.1c0-5.1,6.1-9.2,13.5-9.2c7.5,0,13.5,4.1,13.5,9.2"/>

		<path class="st1" d="M2139.2,1701.5c0,5.1,6.1,9.2,13.5,9.2c7.5,0,13.5-4.1,13.5-9.2"/>

		<line class="st1" x1="2219.8" y1="1755" x2="2219.8" y2="1676.6"/>

		<line class="st1" x1="2192.7" y1="1755" x2="2192.7" y2="1676.6"/>

		<path class="st1" d="M2192.7,1676.6c0-5.1,6.1-9.2,13.5-9.2c7.5,0,13.5,4.1,13.5,9.2"/>

		<path class="st1" d="M2192.7,1755c0,5.1,6.1,9.2,13.5,9.2c7.5,0,13.5-4.1,13.5-9.2"/>

		<line class="st1" x1="2705.4" y1="1509.9" x2="2883.5" y2="1407.6"/>

		<line class="st1" x1="1930.7" y1="1738.7" x2="1921.6" y2="1729.6"/>

		<line class="st1" x1="1921.6" y1="1729.6" x2="1921.6" y2="1706.6"/>

		<line class="st1" x1="1921.6" y1="1706.6" x2="1898" y2="1682.9"/>

		<line class="st1" x1="1897" y1="1699.4" x2="1897" y2="1658.9"/>

		<line class="st1" x1="1897" y1="1658.9" x2="1870.2" y2="1632.1"/>

		<line class="st1" x1="1870.2" y1="1632.1" x2="1870.2" y2="1609"/>

		<line class="st1" x1="1870.2" y1="1609" x2="1844.6" y2="1583.4"/>

		<line class="st1" x1="1844.6" y1="1583.4" x2="1844.6" y2="1560.3"/>

		<line class="st1" x1="1844.6" y1="1560.3" x2="1819" y2="1534.6"/>

		<line class="st1" x1="1819" y1="1534.6" x2="1819" y2="1511.6"/>

		<line class="st1" x1="1819" y1="1511.6" x2="1793.4" y2="1485.9"/>

		<line class="st1" x1="1793.4" y1="1485.9" x2="1793.4" y2="1462.9"/>

		<line class="st1" x1="1793.4" y1="1462.9" x2="1767.8" y2="1437.2"/>

		<line class="st1" x1="1767.8" y1="1437.2" x2="1767.8" y2="1414.1"/>

		<line class="st1" x1="1767.8" y1="1414.1" x2="1742.1" y2="1388.5"/>

		<line class="st1" x1="1742.1" y1="1388.5" x2="1742.1" y2="1365.4"/>

		<line class="st1" x1="1742.1" y1="1365.4" x2="1716.4" y2="1339.6"/>

		<line class="st1" x1="2137.2" y1="1253.4" x2="2137.2" y2="1177.5"/>

		<line class="st1" x1="2252.4" y1="1172.8" x2="2252.4" y2="1149.7"/>

		<line class="st1" x1="2276.6" y1="1196.9" x2="2252.4" y2="1172.8"/>

		<line class="st1" x1="2276.6" y1="1220" x2="2276.6" y2="1196.9"/>

		<line class="st1" x1="2300.7" y1="1267.3" x2="2300.7" y2="1244.2"/>

		<line class="st1" x1="2300.7" y1="1244.2" x2="2276.6" y2="1220"/>

		<line class="st1" x1="2324.9" y1="1291.4" x2="2300.7" y2="1267.3"/>

		<line class="st1" x1="2324.9" y1="1314.5" x2="2324.9" y2="1291.4"/>

		<line class="st1" x1="2349" y1="1361.8" x2="2349" y2="1338.7"/>

		<line class="st1" x1="2349" y1="1338.7" x2="2324.9" y2="1314.5"/>

		<line class="st1" x1="2373.2" y1="1386" x2="2349" y2="1361.8"/>

		<line class="st1" x1="2373.2" y1="1409" x2="2373.2" y2="1386"/>

		<line class="st1" x1="2397.4" y1="1433.2" x2="2373.2" y2="1409"/>

		<line class="st1" x1="2397.4" y1="1456.3" x2="2397.4" y2="1433.2"/>

		<line class="st1" x1="2047.5" y1="1388.8" x2="2050.9" y2="1388.2"/>

		<line class="st1" x1="2043.9" y1="1388.8" x2="2047.5" y2="1388.8"/>

		<line class="st1" x1="2040.4" y1="1388.1" x2="2043.9" y2="1388.8"/>

		<line class="st1" x1="2050.9" y1="1388.2" x2="2054" y2="1386.8"/>

		<line class="st1" x1="2037.4" y1="1386.7" x2="2040.4" y2="1388.1"/>

		<line class="st1" x1="2054" y1="1386.8" x2="2056.5" y2="1384.9"/>

		<line class="st1" x1="2034.9" y1="1384.8" x2="2037.4" y2="1386.7"/>

		<line class="st1" x1="2056.5" y1="1384.9" x2="2058.3" y2="1382.6"/>

		<line class="st1" x1="2034.9" y1="1384.8" x2="2033.1" y2="1382.5"/>

		<line class="st1" x1="2058.3" y1="1382.6" x2="2059.3" y2="1380"/>

		<line class="st1" x1="2033.1" y1="1382.5" x2="2032.2" y2="1379.9"/>

		<line class="st1" x1="2059.3" y1="1380" x2="2059.3" y2="1377.3"/>

		<line class="st1" x1="2102.4" y1="1357.3" x2="2105.9" y2="1356.6"/>

		<line class="st1" x1="2098.8" y1="1357.3" x2="2102.4" y2="1357.3"/>

		<line class="st1" x1="2095.4" y1="1356.6" x2="2098.8" y2="1357.3"/>

		<line class="st1" x1="2105.9" y1="1356.6" x2="2109" y2="1355.3"/>

		<line class="st1" x1="2092.3" y1="1355.2" x2="2095.4" y2="1356.6"/>

		<line class="st1" x1="2109" y1="1355.3" x2="2111.5" y2="1353.4"/>

		<line class="st1" x1="2089.8" y1="1353.3" x2="2092.3" y2="1355.2"/>

		<line class="st1" x1="2111.5" y1="1353.4" x2="2113.3" y2="1351"/>

		<line class="st1" x1="2089.8" y1="1353.3" x2="2088.1" y2="1350.9"/>

		<line class="st1" x1="2113.3" y1="1351" x2="2114.2" y2="1348.4"/>

		<line class="st1" x1="2088.1" y1="1350.9" x2="2087.2" y2="1348.3"/>

		<line class="st1" x1="2114.2" y1="1348.4" x2="2114.3" y2="1345.7"/>

		<line class="st1" x1="2306.5" y1="1508.4" x2="2397.4" y2="1456.3"/>

		<line class="st1" x1="1423.4" y1="1326.9" x2="1422.5" y2="1324.3"/>

		<line class="st1" x1="1425.2" y1="1329.3" x2="1423.4" y2="1326.9"/>

		<line class="st1" x1="1425.2" y1="1329.3" x2="1427.7" y2="1331.2"/>

		<line class="st1" x1="1427.7" y1="1331.2" x2="1430.8" y2="1332.6"/>

		<line class="st1" x1="1430.8" y1="1332.6" x2="1434.2" y2="1333.3"/>

		<line class="st1" x1="1434.2" y1="1333.3" x2="1437.8" y2="1333.3"/>

		<line class="st1" x1="1437.8" y1="1333.3" x2="1441.2" y2="1332.6"/>

		<line class="st1" x1="1441.2" y1="1332.6" x2="1444.3" y2="1331.3"/>

		<line class="st1" x1="1444.3" y1="1331.3" x2="1446.9" y2="1329.4"/>

		<line class="st1" x1="1446.9" y1="1329.4" x2="1448.7" y2="1327"/>

		<line class="st1" x1="1448.7" y1="1327" x2="1449.6" y2="1324.4"/>

		<line class="st1" x1="1449.6" y1="1324.4" x2="1449.7" y2="1321.7"/>

		<line class="st1" x1="1475.5" y1="1379" x2="1474.6" y2="1376.4"/>

		<line class="st1" x1="1477.3" y1="1381.4" x2="1475.5" y2="1379"/>

		<line class="st1" x1="1477.3" y1="1381.4" x2="1479.8" y2="1383.3"/>

		<line class="st1" x1="1479.8" y1="1383.3" x2="1482.9" y2="1384.7"/>

		<line class="st1" x1="1482.9" y1="1384.7" x2="1486.3" y2="1385.4"/>

		<line class="st1" x1="1486.3" y1="1385.4" x2="1489.9" y2="1385.4"/>

		<line class="st1" x1="1489.9" y1="1385.4" x2="1493.3" y2="1384.7"/>

		<line class="st1" x1="1493.3" y1="1384.7" x2="1496.4" y2="1383.4"/>

		<line class="st1" x1="1496.4" y1="1383.4" x2="1498.9" y2="1381.5"/>

		<line class="st1" x1="1498.9" y1="1381.5" x2="1500.7" y2="1379.1"/>

		<line class="st1" x1="1500.7" y1="1379.1" x2="1501.7" y2="1376.5"/>

		<line class="st1" x1="1501.7" y1="1376.5" x2="1501.7" y2="1373.8"/>

		<line class="st1" x1="1691.4" y1="1255.1" x2="1690.5" y2="1252.5"/>

		<line class="st1" x1="1693.1" y1="1257.5" x2="1691.4" y2="1255.1"/>

		<line class="st1" x1="1693.1" y1="1257.5" x2="1695.6" y2="1259.4"/>

		<line class="st1" x1="1695.6" y1="1259.4" x2="1698.7" y2="1260.8"/>

		<line class="st1" x1="1698.7" y1="1260.8" x2="1702.2" y2="1261.5"/>

		<line class="st1" x1="1702.2" y1="1261.5" x2="1705.7" y2="1261.5"/>

		<line class="st1" x1="1705.7" y1="1261.5" x2="1709.2" y2="1260.8"/>

		<line class="st1" x1="1709.2" y1="1260.8" x2="1712.3" y2="1259.5"/>

		<line class="st1" x1="1712.3" y1="1259.5" x2="1714.8" y2="1257.6"/>

		<line class="st1" x1="1714.8" y1="1257.6" x2="1716.6" y2="1255.2"/>

		<line class="st1" x1="1716.6" y1="1255.2" x2="1717.6" y2="1252.6"/>

		<line class="st1" x1="1717.6" y1="1252.6" x2="1717.6" y2="1249.9"/>

		<line class="st1" x1="1639.3" y1="1203" x2="1638.4" y2="1200.4"/>

		<line class="st1" x1="1641.1" y1="1205.4" x2="1639.3" y2="1203"/>

		<line class="st1" x1="1641.1" y1="1205.4" x2="1643.6" y2="1207.3"/>

		<line class="st1" x1="1643.6" y1="1207.3" x2="1646.6" y2="1208.7"/>

		<line class="st1" x1="1646.6" y1="1208.7" x2="1650.1" y2="1209.4"/>

		<line class="st1" x1="1650.1" y1="1209.4" x2="1653.7" y2="1209.4"/>

		<line class="st1" x1="1653.7" y1="1209.4" x2="1657.1" y2="1208.7"/>

		<line class="st1" x1="1657.1" y1="1208.7" x2="1660.2" y2="1207.4"/>

		<line class="st1" x1="1660.2" y1="1207.4" x2="1662.7" y2="1205.5"/>

		<line class="st1" x1="1662.7" y1="1205.5" x2="1664.5" y2="1203.1"/>

		<line class="st1" x1="1664.5" y1="1203.1" x2="1665.5" y2="1200.5"/>

		<line class="st1" x1="1665.5" y1="1200.5" x2="1665.5" y2="1197.8"/>

		<line class="st1" x1="1295.9" y1="2242.9" x2="1422.8" y2="2170.1"/>

		<line class="st1" x1="1555.9" y1="2579" x2="1555.9" y2="2503"/>

		<line class="st1" x1="1110.3" y1="1588.4" x2="997.8" y2="1653"/>

		<line class="st1" x1="494.4" y1="924.7" x2="358.1" y2="1002.9"/>

		<line class="st1" x1="2125.1" y1="2176.3" x2="1853.5" y2="2332.2"/>

		<line class="st1" x1="2763.2" y1="2012.6" x2="2763.2" y2="2088.6"/>

		<line class="st1" x1="1923.6" y1="792" x2="2063" y2="712"/>

		<line class="st1" x1="296.7" y1="1038.1" x2="166.7" y2="1112.8"/>

		<line class="st1" x1="939.6" y1="1686.4" x2="812.7" y2="1759.3"/>

		<line class="st1" x1="1029" y1="1775.9" x2="902.1" y2="1848.8"/>

		<line class="st1" x1="733.4" y1="1475.2" x2="603.4" y2="1549.8"/>

		<line class="st1" x1="1481.1" y1="2212.6" x2="1481.1" y2="2136.6"/>

		<line class="st1" x1="939.6" y1="1686.4" x2="939.6" y2="1762.4"/>

		<line class="st1" x1="997.8" y1="1653" x2="997.8" y2="1729"/>

		<line class="st1" x1="1029" y1="1775.9" x2="1029" y2="1851.9"/>

		<line class="st1" x1="1422.8" y1="2170.1" x2="1422.8" y2="2246.1"/>

		<line class="st1" x1="733.4" y1="1475.2" x2="733.4" y2="1551.2"/>

		<line class="st1" x1="2034.4" y1="1977.5" x2="1933.7" y2="1876.8"/>

		<line class="st1" x1="2034.4" y1="2053.5" x2="2034.4" y2="1977.5"/>

		<line class="st1" x1="1822.8" y1="1179.4" x2="1997.4" y2="1079.3"/>

		<line class="st1" x1="1853.5" y1="2332.2" x2="1742" y2="2220.6"/>

		<line class="st1" x1="1742" y1="2296.6" x2="1742" y2="2220.6"/>

		<line class="st1" x1="1696.6" y1="2251.1" x2="1696.6" y2="2175.1"/>

		<line class="st1" x1="1742" y1="2296.6" x2="1805.3" y2="2359.9"/>

		<line class="st1" x1="1647.9" y1="0" x2="1647.9" y2="76"/>

		<line class="st1" x1="2251.3" y1="603.9" x2="1904" y2="256.3"/>

		<line class="st1" x1="1486.9" y1="354.9" x2="1210.6" y2="513.6"/>

		<line class="st1" x1="296.7" y1="1114.1" x2="214.9" y2="1161.1"/>

		<line class="st1" x1="1933.7" y1="1952.8" x2="2034.4" y2="2053.5"/>

		<line class="st1" x1="950.4" y1="1897.1" x2="1029" y2="1851.9"/>

		<line class="st1" x1="1593.6" y1="2148" x2="1696.6" y2="2251.1"/>

		<line class="st1" x1="494.4" y1="1000.7" x2="358.1" y2="1078.9"/>

		<line class="st1" x1="887.8" y1="698.8" x2="887.8" y2="774.8"/>

		<line class="st1" x1="1042.1" y1="514.5" x2="1102.9" y2="575.4"/>

		<line class="st1" x1="1102.9" y1="575.4" x2="1102.9" y2="651.4"/>

		<line class="st1" x1="2705.4" y1="1433.9" x2="2705.4" y2="1509.9"/>

		<line class="st1" x1="2705.4" y1="1433.9" x2="2883.5" y2="1331.6"/>

		<line class="st1" x1="2883.5" y1="1407.6" x2="2883.5" y2="1331.6"/>

		<line class="st1" x1="931.1" y1="1437.7" x2="794.8" y2="1515.9"/>

		<line class="st1" x1="3203.8" y1="1557.1" x2="3203.8" y2="1633.1"/>

		<line class="st1" x1="0" y1="1021.9" x2="0" y2="945.9"/>

		<line class="st1" x1="2253.8" y1="2381" x2="2253.8" y2="2305"/>

		<line class="st1" x1="494.4" y1="924.7" x2="494.4" y2="1000.7"/>

		<line class="st1" x1="733.4" y1="1551.2" x2="651.6" y2="1598.1"/>

		<line class="st1" x1="860.9" y1="1807.6" x2="939.6" y2="1762.4"/>

		<line class="st1" x1="1110.3" y1="1664.4" x2="1110.3" y2="1588.4"/>

		<line class="st1" x1="887.8" y1="774.8" x2="819" y2="814.3"/>

		<line class="st1" x1="1486.9" y1="430.9" x2="1486.9" y2="354.9"/>

		<line class="st1" x1="875.2" y1="686.3" x2="1042.1" y2="590.5"/>

		<line class="st1" x1="827" y1="714" x2="839.5" y2="726.5"/>

		<line class="st1" x1="1102.9" y1="651.4" x2="1042.1" y2="590.5"/>

		<line class="st1" x1="1199.7" y1="1753.9" x2="1199.7" y2="1677.9"/>

		<line class="st1" x1="1593.6" y1="2148" x2="1593.6" y2="2072"/>

		<line class="st1" x1="2163" y1="1060.2" x2="2040" y2="1130.8"/>

		<line class="st1" x1="296.7" y1="1114.1" x2="296.7" y2="1038.1"/>

		<line class="st1" x1="1087.3" y1="1742.5" x2="1087.3" y2="1818.5"/>

		<line class="st1" x1="1087.3" y1="1818.5" x2="1199.7" y2="1753.9"/>

		<line class="st1" x1="1997.4" y1="1079.3" x2="1997.4" y2="1109.4"/>

		<line class="st1" x1="2040" y1="1130.8" x2="2040" y2="1054.8"/>

		<line class="st1" x1="1926.7" y1="1195.8" x2="1871.1" y2="1227.7"/>

		<line class="st1" x1="2040" y1="1054.8" x2="2163" y2="984.2"/>

		<line class="st1" x1="770.7" y1="766" x2="494.4" y2="924.7"/>

		<line class="st1" x1="770.7" y1="842" x2="770.7" y2="766"/>

		<line class="st1" x1="1210.6" y1="589.6" x2="1161.7" y2="617.6"/>

		<line class="st1" x1="1134.8" y1="633" x2="1102.9" y2="651.4"/>

		<line class="st1" x1="1210.6" y1="513.6" x2="1102.9" y2="575.4"/>

		<line class="st1" x1="1210.6" y1="589.6" x2="1210.6" y2="513.6"/>

		<line class="st1" x1="1822.8" y1="1179.4" x2="1822.8" y2="1255.4"/>

		<line class="st1" x1="2476.3" y1="2050.7" x2="2476.3" y2="1974.7"/>

		<line class="st1" x1="2283.3" y1="2161.5" x2="2283.3" y2="2085.5"/>

		<line class="st1" x1="1450.5" y1="1393.2" x2="1450.5" y2="1469.2"/>

		<line class="st1" x1="1933.7" y1="1876.8" x2="1450.5" y2="1393.2"/>

		<line class="st1" x1="1545.3" y1="2099.7" x2="1199.7" y2="1753.9"/>

		<line class="st1" x1="1151.5" y1="1705.6" x2="1110.3" y2="1664.4"/>

		<line class="st1" x1="882.8" y1="1389.4" x2="494.4" y2="1000.7"/>

		<line class="st1" x1="721.1" y1="608" x2="48.2" y2="994.2"/>

		<line class="st1" x1="0" y1="1021.9" x2="166.7" y2="1188.8"/>

		<line class="st1" x1="166.7" y1="1188.8" x2="603.4" y2="1625.8"/>

		<line class="st1" x1="603.4" y1="1625.8" x2="812.7" y2="1835.3"/>

		<line class="st1" x1="812.7" y1="1835.3" x2="902.1" y2="1924.8"/>

		<line class="st1" x1="902.1" y1="1924.8" x2="1295.9" y2="2318.9"/>

		<line class="st1" x1="1555.9" y1="2579" x2="1295.9" y2="2318.9"/>

		<line class="st1" x1="1555.9" y1="2579" x2="1853.5" y2="2408.2"/>

		<line class="st1" x1="1853.5" y1="2408.2" x2="2125.1" y2="2252.3"/>

		<line class="st1" x1="2125.1" y1="2252.3" x2="2253.8" y2="2381"/>

		<line class="st1" x1="2253.8" y1="2381" x2="2763.2" y2="2088.6"/>

		<line class="st1" x1="2714.9" y1="2040.3" x2="2634.6" y2="1959.9"/>

		<line class="st1" x1="2682.8" y1="1932.2" x2="2906.2" y2="1804"/>

		<line class="st1" x1="1599" y1="978.3" x2="1210.6" y2="589.6"/>

		<line class="st1" x1="2354.3" y1="1711.4" x2="2646.2" y2="1543.8"/>

		<line class="st1" x1="1532.9" y1="1092.2" x2="1532.9" y2="1016.2"/>

		<line class="st1" x1="1933.7" y1="1876.8" x2="1933.7" y2="1952.8"/>

		<line class="st1" x1="827" y1="714" x2="827" y2="638"/>

		<line class="st1" x1="1042.1" y1="590.5" x2="1042.1" y2="514.5"/>

		<line class="st1" x1="1647.9" y1="76" x2="980.4" y2="459.2"/>

		<line class="st1" x1="721.1" y1="532" x2="0" y2="945.9"/>

		<line class="st1" x1="794.8" y1="1439.9" x2="794.8" y2="1515.9"/>

		<line class="st1" x1="358.1" y1="1002.9" x2="358.1" y2="1078.9"/>

		<line class="st1" x1="936.2" y1="484.5" x2="936.2" y2="408.5"/>

		<line class="st1" x1="980.4" y1="528.8" x2="936.2" y2="484.5"/>

		<line class="st1" x1="936.2" y1="408.5" x2="980.4" y2="452.8"/>

		<line class="st1" x1="721.1" y1="608" x2="721.1" y2="532"/>

		<line class="st1" x1="721.1" y1="532" x2="765.3" y2="576.2"/>

		<line class="st1" x1="721.1" y1="608" x2="765.3" y2="652.2"/>

		<line class="st1" x1="936.2" y1="408.5" x2="1647.9" y2="0"/>

		<line class="st1" x1="721.1" y1="532" x2="936.2" y2="408.5"/>

		<path class="st1" d="M936.2,484.5l-24.8,14.2 M798,563.8l-32.7,18.8"/>

		<line class="st1" x1="1344.2" y1="2291.2" x2="1422.8" y2="2246.1"/>

		<line class="st1" x1="1481.1" y1="2212.6" x2="1593.6" y2="2148"/>

		<line class="st1" x1="1641.8" y1="2120.3" x2="1933.7" y2="1952.8"/>

		<line class="st1" x1="2125.1" y1="2176.3" x2="2125.1" y2="2252.3"/>

		<line class="st1" x1="2634.6" y1="1883.9" x2="2634.6" y2="1959.9"/>

		<line class="st1" x1="2406.7" y1="1839.8" x2="2406.7" y2="1763.8"/>

		<line class="st1" x1="2306.1" y1="1739.1" x2="2406.7" y2="1839.8"/>

		<line class="st1" x1="2163" y1="1060.2" x2="2228.1" y2="1125.4"/>

		<line class="st1" x1="2746.8" y1="1644.5" x2="2746.8" y2="1568.5"/>

		<line class="st1" x1="2746.8" y1="1568.5" x2="2646.2" y2="1467.8"/>

		<line class="st1" x1="2646.2" y1="1467.8" x2="2646.2" y2="1543.8"/>

		<line class="st1" x1="2646.2" y1="1543.8" x2="2746.8" y2="1644.5"/>

		<line class="st1" x1="2794.7" y1="1692.4" x2="2857.9" y2="1755.7"/>

		<line class="st1" x1="2794.7" y1="1692.4" x2="2794.7" y2="1616.4"/>

		<line class="st1" x1="2906.2" y1="1728" x2="2794.7" y2="1616.4"/>

		<line class="st1" x1="2906.2" y1="1804" x2="3203.8" y2="1633.1"/>

		<line class="st1" x1="2228.1" y1="1125.4" x2="2252.4" y2="1149.7"/>

		<line class="st1" x1="2412.4" y1="841.1" x2="2251.3" y2="679.9"/>

		<line class="st1" x1="2203.1" y1="631.6" x2="1904" y2="332.3"/>

		<line class="st1" x1="1450.5" y1="1469.2" x2="1450.5" y2="1794.3"/>

		<line class="st1" x1="1450.5" y1="1794.3" x2="1365" y2="1843.3"/>

		<line class="st1" x1="1450.5" y1="1794.3" x2="1679" y2="2023"/>

		<line class="st1" x1="770.7" y1="842" x2="770.7" y2="1147.2"/>

		<line class="st1" x1="965.4" y1="1342" x2="770.7" y2="1147.2"/>

		<line class="st1" x1="770.7" y1="1147.2" x2="736.4" y2="1166.9"/>

		<line class="st1" x1="1486.9" y1="430.9" x2="1486.9" y2="736.1"/>

		<line class="st1" x1="1486.9" y1="736.1" x2="1452.6" y2="755.8"/>

		<line class="st1" x1="1923.6" y1="868" x2="1647.3" y2="1026.6"/>

		<line class="st1" x1="1486.9" y1="736.1" x2="1681.6" y2="930.9"/>

		<line class="st1" x1="2004.1" y1="1837.3" x2="2051.8" y2="1885"/>

		<line class="st1" x1="2051.8" y1="1885" x2="2199.6" y2="1800.2"/>

		<line class="st1" x1="1716.4" y1="1316.6" x2="2199.6" y2="1800.2"/>

		<line class="st1" x1="2348.1" y1="953.9" x2="2460.6" y2="889.3"/>

		<line class="st1" x1="2550" y1="978.8" x2="2550" y2="902.8"/>

		<line class="st1" x1="2289.8" y1="911.4" x2="2163" y2="984.2"/>

		<line class="st1" x1="2379.3" y1="1000.9" x2="2379.3" y2="1076.9"/>

		<line class="st1" x1="2437.5" y1="967.4" x2="2437.5" y2="1043.4"/>

		<line class="st1" x1="2300.7" y1="1122" x2="2379.3" y2="1076.9"/>

		<line class="st1" x1="2437.5" y1="1043.4" x2="2550" y2="978.8"/>

		<line class="st1" x1="2289.8" y1="911.4" x2="2289.8" y2="987.4"/>

		<line class="st1" x1="2460.6" y1="889.3" x2="2460.6" y2="813.3"/>

		<line class="st1" x1="2348.1" y1="877.9" x2="2348.1" y2="953.9"/>

		<line class="st1" x1="2379.3" y1="1000.9" x2="2252.4" y2="1073.7"/>

		<line class="st1" x1="2211.2" y1="1032.5" x2="2289.8" y2="987.4"/>

		<line class="st1" x1="2163" y1="984.2" x2="2163" y2="1060.2"/>

		<line class="st1" x1="2550" y1="902.8" x2="3203.8" y2="1557.1"/>

		<line class="st1" x1="2460.6" y1="813.3" x2="2550" y2="902.8"/>

		<line class="st1" x1="2501.8" y1="930.6" x2="2460.6" y2="889.3"/>

		<line class="st1" x1="2121.3" y1="678.5" x2="2121.3" y2="754.5"/>

		<line class="st1" x1="2121.3" y1="754.5" x2="2251.3" y2="679.9"/>

		<line class="st1" x1="2251.3" y1="679.9" x2="2251.3" y2="603.9"/>

		<line class="st1" x1="2063" y1="712" x2="2063" y2="788"/>

		<line class="st1" x1="2251.3" y1="603.9" x2="2460.6" y2="813.3"/>

		<line class="st1" x1="2063" y1="788" x2="1923.6" y2="868"/>

		<line class="st1" x1="1684.6" y1="317.5" x2="1814.6" y2="242.8"/>

		<line class="st1" x1="1814.6" y1="242.8" x2="1814.6" y2="166.8"/>

		<line class="st1" x1="1626.3" y1="274.9" x2="1626.3" y2="350.9"/>

		<line class="st1" x1="1684.6" y1="241.5" x2="1684.6" y2="317.5"/>

		<line class="st1" x1="1814.6" y1="166.8" x2="1647.9" y2="0"/>

		<line class="st1" x1="1626.3" y1="274.9" x2="1486.9" y2="354.9"/>

		<line class="st1" x1="1626.3" y1="350.9" x2="1535.2" y2="403.2"/>

		<line class="st1" x1="1766.3" y1="194.5" x2="1647.9" y2="76"/>

		<line class="st1" x1="1904" y1="256.3" x2="1814.6" y2="166.8"/>

		<line class="st1" x1="1855.8" y1="284" x2="1814.6" y2="242.8"/>

		<line class="st1" x1="1715.7" y1="364.4" x2="1715.7" y2="440.4"/>

		<line class="st1" x1="1715.7" y1="364.4" x2="1576.3" y2="444.4"/>

		<line class="st1" x1="1774" y1="331" x2="1774" y2="407"/>

		<line class="st1" x1="1624.6" y1="492.7" x2="1715.7" y2="440.4"/>

		<line class="st1" x1="1774" y1="407" x2="1904" y2="332.3"/>

		<line class="st1" x1="1904" y1="332.3" x2="1904" y2="256.3"/>

		<line class="st1" x1="1331.2" y1="1132.1" x2="1207.4" y2="1203.1"/>

		<line class="st1" x1="1331.2" y1="1132.1" x2="1331.2" y2="1208.1"/>

		<line class="st1" x1="1716.4" y1="1339.6" x2="1716.4" y2="1316.6"/>

		<line class="st1" x1="2397.4" y1="1456.3" x2="2495.4" y2="1554.4"/>

		<line class="st1" x1="2087.2" y1="1348.3" x2="2087.2" y2="1282.2"/>

		<line class="st1" x1="2114.3" y1="1345.7" x2="2114.3" y2="1266.6"/>

		<line class="st1" x1="2032.2" y1="1379.9" x2="2032.2" y2="1313.7"/>

		<line class="st1" x1="2059.3" y1="1377.3" x2="2059.3" y2="1298.1"/>

		<line class="st1" x1="1441.4" y1="1237.5" x2="1444.5" y2="1238.8"/>

		<line class="st1" x1="1438" y1="1236.8" x2="1441.4" y2="1237.5"/>

		<line class="st1" x1="1434.4" y1="1236.7" x2="1438" y2="1236.8"/>

		<line class="st1" x1="1430.9" y1="1237.4" x2="1434.4" y2="1236.7"/>

		<line class="st1" x1="1427.8" y1="1238.8" x2="1430.9" y2="1237.4"/>

		<line class="st1" x1="1425.3" y1="1240.7" x2="1427.8" y2="1238.8"/>

		<line class="st1" x1="1423.5" y1="1243" x2="1425.3" y2="1240.7"/>

		<line class="st1" x1="1422.6" y1="1245.6" x2="1423.5" y2="1243"/>

		<line class="st1" x1="1422.5" y1="1324.3" x2="1422.5" y2="1248.3"/>

		<line class="st1" x1="1449.7" y1="1321.7" x2="1449.7" y2="1245.7"/>

		<line class="st1" x1="1448.8" y1="1243.1" x2="1449.7" y2="1245.7"/>

		<line class="st1" x1="1447" y1="1240.8" x2="1448.8" y2="1243.1"/>

		<line class="st1" x1="1444.5" y1="1238.8" x2="1447" y2="1240.8"/>

		<line class="st1" x1="1493.5" y1="1289.6" x2="1496.5" y2="1291"/>

		<line class="st1" x1="1490" y1="1288.9" x2="1493.5" y2="1289.6"/>

		<line class="st1" x1="1486.5" y1="1288.8" x2="1490" y2="1288.9"/>

		<line class="st1" x1="1483" y1="1289.5" x2="1486.5" y2="1288.8"/>

		<line class="st1" x1="1479.9" y1="1290.9" x2="1483" y2="1289.5"/>

		<line class="st1" x1="1477.4" y1="1292.8" x2="1479.9" y2="1290.9"/>

		<line class="st1" x1="1475.6" y1="1295.1" x2="1477.4" y2="1292.8"/>

		<line class="st1" x1="1474.6" y1="1297.7" x2="1475.6" y2="1295.1"/>

		<line class="st1" x1="1474.6" y1="1376.4" x2="1474.6" y2="1300.4"/>

		<line class="st1" x1="1501.7" y1="1373.8" x2="1501.7" y2="1297.8"/>

		<line class="st1" x1="1500.8" y1="1295.2" x2="1501.7" y2="1297.8"/>

		<line class="st1" x1="1499.1" y1="1292.9" x2="1500.8" y2="1295.2"/>

		<line class="st1" x1="1496.5" y1="1291" x2="1499.1" y2="1292.9"/>

		<line class="st1" x1="1709.3" y1="1165.7" x2="1712.4" y2="1167"/>

		<line class="st1" x1="1705.9" y1="1165" x2="1709.3" y2="1165.7"/>

		<line class="st1" x1="1702.3" y1="1164.9" x2="1705.9" y2="1165"/>

		<line class="st1" x1="1698.9" y1="1165.6" x2="1702.3" y2="1164.9"/>

		<line class="st1" x1="1695.8" y1="1167" x2="1698.9" y2="1165.6"/>

		<line class="st1" x1="1693.2" y1="1168.9" x2="1695.8" y2="1167"/>

		<line class="st1" x1="1691.4" y1="1171.2" x2="1693.2" y2="1168.9"/>

		<line class="st1" x1="1690.5" y1="1173.8" x2="1691.4" y2="1171.2"/>

		<line class="st1" x1="1690.5" y1="1252.5" x2="1690.5" y2="1176.5"/>

		<line class="st1" x1="1717.6" y1="1249.9" x2="1717.6" y2="1173.9"/>

		<line class="st1" x1="1716.7" y1="1171.3" x2="1717.6" y2="1173.9"/>

		<line class="st1" x1="1714.9" y1="1169" x2="1716.7" y2="1171.3"/>

		<line class="st1" x1="1712.4" y1="1167" x2="1714.9" y2="1169"/>

		<line class="st1" x1="1657.3" y1="1113.6" x2="1660.3" y2="1114.9"/>

		<line class="st1" x1="1653.8" y1="1112.9" x2="1657.3" y2="1113.6"/>

		<line class="st1" x1="1650.3" y1="1112.8" x2="1653.8" y2="1112.9"/>

		<line class="st1" x1="1646.8" y1="1113.5" x2="1650.3" y2="1112.8"/>

		<line class="st1" x1="1643.7" y1="1114.9" x2="1646.8" y2="1113.5"/>

		<line class="st1" x1="1641.2" y1="1116.8" x2="1643.7" y2="1114.9"/>

		<line class="st1" x1="1639.4" y1="1119.1" x2="1641.2" y2="1116.8"/>

		<line class="st1" x1="1638.4" y1="1121.7" x2="1639.4" y2="1119.1"/>

		<line class="st1" x1="1638.4" y1="1200.4" x2="1638.4" y2="1124.4"/>

		<line class="st1" x1="1665.5" y1="1197.8" x2="1665.5" y2="1121.8"/>

		<line class="st1" x1="1664.6" y1="1119.2" x2="1665.5" y2="1121.8"/>

		<line class="st1" x1="1662.8" y1="1116.9" x2="1664.6" y2="1119.2"/>

		<line class="st1" x1="1660.3" y1="1114.9" x2="1662.8" y2="1116.9"/>

		<line class="st1" x1="2004.4" y1="1361.1" x2="2004.4" y2="1329.7"/>

		<line class="st1" x1="1716.4" y1="1316.6" x2="1576" y2="1397.1"/>

		<line class="st1" x1="1207.4" y1="1279.1" x2="1241.2" y2="1259.7"/>

		<line class="st1" x1="1647.3" y1="1026.6" x2="1613.5" y2="1046"/>

		<line class="st1" x1="1613.5" y1="1046" x2="1532.9" y2="1092.2"/>

		<line class="st1" x1="1331.2" y1="1208.1" x2="1241.2" y2="1259.7"/>

		<line class="st1" x1="2300.7" y1="1267.3" x2="2209.9" y2="1319.4"/>

		<line class="st1" x1="2185.7" y1="1272.2" x2="2185.7" y2="1249.1"/>

		<line class="st1" x1="2349" y1="1338.7" x2="2258.2" y2="1390.9"/>

		<line class="st1" x1="2282.3" y1="1438.1" x2="2258.2" y2="1413.9"/>

		<line class="st1" x1="2185.7" y1="1249.1" x2="2276.6" y2="1196.9"/>

		<line class="st1" x1="2276.6" y1="1220" x2="2185.7" y2="1272.2"/>

		<line class="st1" x1="2234" y1="1343.6" x2="2209.9" y2="1319.4"/>

		<line class="st1" x1="2373.2" y1="1386" x2="2282.3" y2="1438.1"/>

		<line class="st1" x1="2282.3" y1="1461.2" x2="2373.2" y2="1409"/>

		<line class="st1" x1="2161.5" y1="1224.9" x2="2161.5" y2="1201.8"/>

		<line class="st1" x1="2397.4" y1="1433.2" x2="2306.5" y2="1485.4"/>

		<line class="st1" x1="2258.2" y1="1413.9" x2="2349" y2="1361.8"/>

		<line class="st1" x1="2209.9" y1="1319.4" x2="2209.9" y2="1296.3"/>

		<line class="st1" x1="2209.9" y1="1296.3" x2="2300.7" y2="1244.2"/>

		<line class="st1" x1="2324.9" y1="1314.5" x2="2234" y2="1366.7"/>

		<line class="st1" x1="2306.5" y1="1485.4" x2="2282.3" y2="1461.2"/>

		<line class="st1" x1="2324.9" y1="1291.4" x2="2234" y2="1343.6"/>

		<line class="st1" x1="2234" y1="1366.7" x2="2234" y2="1343.6"/>

		<line class="st1" x1="2258.2" y1="1390.9" x2="2234" y2="1366.7"/>

		<line class="st1" x1="2209.9" y1="1296.3" x2="2185.7" y2="1272.2"/>

		<line class="st1" x1="2282.3" y1="1461.2" x2="2282.3" y2="1438.1"/>

		<line class="st1" x1="2306.5" y1="1508.4" x2="2306.5" y2="1485.4"/>

		<line class="st1" x1="2258.2" y1="1413.9" x2="2258.2" y2="1390.9"/>

		<line class="st1" x1="2185.7" y1="1249.1" x2="2161.5" y2="1224.9"/>

		<line class="st1" x1="2161.5" y1="1224.9" x2="2252.4" y2="1172.8"/>

		<line class="st1" x1="2161.5" y1="1201.8" x2="2137.2" y2="1177.5"/>

		<line class="st1" x1="2161.5" y1="1201.8" x2="2252.4" y2="1149.7"/>

		<line class="st1" x1="1793.4" y1="1485.9" x2="1726.9" y2="1524.1"/>

		<line class="st1" x1="1844.6" y1="1560.3" x2="1790" y2="1591.6"/>

		<line class="st1" x1="1670.5" y1="1470" x2="1767.8" y2="1414.1"/>

		<line class="st1" x1="1767.8" y1="1437.2" x2="1683" y2="1485.9"/>

		<line class="st1" x1="1870.2" y1="1609" x2="1832.3" y2="1630.8"/>

		<line class="st1" x1="1843.5" y1="1647.4" x2="1870.2" y2="1632.1"/>

		<line class="st1" x1="1897" y1="1658.9" x2="1851.8" y2="1684.9"/>

		<line class="st1" x1="1790" y1="1614.7" x2="1844.6" y2="1583.4"/>

		<line class="st1" x1="1689.5" y1="1522.5" x2="1793.4" y2="1462.9"/>

		<line class="st1" x1="1819" y1="1534.6" x2="1744.4" y2="1577.4"/>

		<line class="st1" x1="1819" y1="1511.6" x2="1736.5" y2="1558.9"/>

		<line class="st1" x1="1629.5" y1="1453.1" x2="1742.1" y2="1388.5"/>

		<line class="st1" x1="1629.5" y1="1430.1" x2="1742.1" y2="1365.4"/>

		<line class="st1" x1="1905.7" y1="1738.8" x2="1921.6" y2="1729.6"/>

		<line class="st1" x1="1897" y1="1720.7" x2="1921.6" y2="1706.6"/>

		<line class="st1" x1="0" y1="945.9" x2="48.2" y2="994.2"/>

		<line class="st1" x1="48.2" y1="994.2" x2="166.7" y2="1112.8"/>

		<line class="st1" x1="812.7" y1="1759.3" x2="860.9" y2="1807.6"/>

		<line class="st1" x1="860.9" y1="1807.6" x2="902.1" y2="1848.8"/>

		<line class="st1" x1="603.4" y1="1549.8" x2="651.6" y2="1598.1"/>

		<line class="st1" x1="651.6" y1="1598.1" x2="812.7" y2="1759.3"/>

		<line class="st1" x1="166.7" y1="1112.8" x2="214.9" y2="1161.1"/>

		<line class="st1" x1="214.9" y1="1161.1" x2="603.4" y2="1549.8"/>

		<line class="st1" x1="902.1" y1="1848.8" x2="950.4" y2="1897.1"/>

		<line class="st1" x1="950.4" y1="1897.1" x2="1295.9" y2="2242.9"/>

		<line class="st1" x1="1199.7" y1="1677.9" x2="1151.5" y2="1705.6"/>

		<line class="st1" x1="1151.5" y1="1705.6" x2="1087.3" y2="1742.5"/>

		<line class="st1" x1="1681.6" y1="930.9" x2="1647.3" y2="950.6"/>

		<line class="st1" x1="965.4" y1="1342" x2="931.1" y2="1361.7"/>

		<line class="st1" x1="931.1" y1="1361.7" x2="882.8" y2="1389.4"/>

		<line class="st1" x1="882.8" y1="1389.4" x2="794.8" y2="1439.9"/>

		<line class="st1" x1="494.4" y1="924.7" x2="542.6" y2="973"/>

		<line class="st1" x1="2763.2" y1="2012.6" x2="2714.9" y2="2040.3"/>

		<line class="st1" x1="2714.9" y1="2040.3" x2="2253.8" y2="2305"/>

		<line class="st1" x1="2634.6" y1="1883.9" x2="2682.8" y2="1932.2"/>

		<line class="st1" x1="2682.8" y1="1932.2" x2="2763.2" y2="2012.6"/>

		<line class="st1" x1="2253.8" y1="2305" x2="2173.4" y2="2224.6"/>

		<line class="st1" x1="2173.4" y1="2224.6" x2="2125.1" y2="2176.3"/>

		<line class="st1" x1="2125.1" y1="2176.3" x2="2145.4" y2="2164.6"/>

		<line class="st1" x1="2145.4" y1="2164.6" x2="2283.3" y2="2085.5"/>

		<line class="st1" x1="1110.3" y1="1588.4" x2="1158.6" y2="1636.7"/>

		<line class="st1" x1="1158.6" y1="1636.7" x2="1199.7" y2="1677.9"/>

		<line class="st1" x1="1110.3" y1="1588.4" x2="1402.2" y2="1420.9"/>

		<line class="st1" x1="1402.2" y1="1420.9" x2="1450.5" y2="1393.2"/>

		<line class="st1" x1="1481.1" y1="2136.6" x2="1545.3" y2="2099.7"/>

		<line class="st1" x1="1545.3" y1="2099.7" x2="1593.6" y2="2072"/>

		<line class="st1" x1="3203.8" y1="1557.1" x2="3155.5" y2="1584.8"/>

		<line class="st1" x1="3155.5" y1="1584.8" x2="2906.2" y2="1728"/>

		<line class="st1" x1="2495.4" y1="1554.4" x2="2306.1" y2="1663.1"/>

		<line class="st1" x1="1199.7" y1="1677.9" x2="1365" y2="1843.3"/>

		<line class="st1" x1="1365" y1="1843.3" x2="1593.6" y2="2072"/>

		<line class="st1" x1="1679" y1="2023" x2="1593.6" y2="2072"/>

		<line class="st1" x1="2252.4" y1="1073.7" x2="2211.2" y2="1032.5"/>

		<line class="st1" x1="2211.2" y1="1032.5" x2="2163" y2="984.2"/>

		<line class="st1" x1="2646.2" y1="1467.8" x2="2300.7" y2="1122"/>

		<line class="st1" x1="2300.7" y1="1122" x2="2252.4" y2="1073.7"/>

		<line class="st1" x1="1853.5" y1="2332.2" x2="1805.3" y2="2359.9"/>

		<line class="st1" x1="1805.3" y1="2359.9" x2="1555.9" y2="2503"/>

		<line class="st1" x1="1696.6" y1="2175.1" x2="1641.8" y2="2120.3"/>

		<line class="st1" x1="1641.8" y1="2120.3" x2="1593.6" y2="2072"/>

		<line class="st1" x1="827" y1="638" x2="993.8" y2="542.2"/>

		<line class="st1" x1="993.8" y1="542.2" x2="1042.1" y2="514.5"/>

		<line class="st1" x1="887.8" y1="698.8" x2="839.5" y2="726.5"/>

		<line class="st1" x1="839.5" y1="726.5" x2="770.7" y2="766"/>

		<line class="st1" x1="827" y1="638" x2="875.2" y2="686.3"/>

		<line class="st1" x1="875.2" y1="686.3" x2="887.8" y2="698.8"/>

		<line class="st1" x1="1647.3" y1="950.6" x2="1599" y2="978.3"/>

		<line class="st1" x1="1599" y1="978.3" x2="1532.9" y2="1016.2"/>

		<line class="st1" x1="770.7" y1="766" x2="819" y2="814.3"/>

		<line class="st1" x1="819" y1="814.3" x2="1207.4" y2="1203.1"/>

		<line class="st1" x1="1210.6" y1="513.6" x2="1258.8" y2="561.8"/>

		<line class="st1" x1="1822.8" y1="1179.4" x2="1871.1" y2="1227.7"/>

		<line class="st1" x1="2476.3" y1="1974.7" x2="2517.7" y2="1950.9"/>

		<line class="st1" x1="2517.7" y1="1950.9" x2="2634.6" y2="1883.9"/>

		<line class="st1" x1="980.4" y1="452.8" x2="980.4" y2="459.2"/>

		<line class="st1" x1="980.4" y1="459.2" x2="980.4" y2="528.8"/>

		<line class="st1" x1="765.3" y1="576.2" x2="765.3" y2="582.6"/>

		<line class="st1" x1="765.3" y1="582.6" x2="765.3" y2="652.2"/>

		<line class="st1" x1="2406.7" y1="1763.8" x2="2354.3" y2="1711.4"/>

		<line class="st1" x1="2354.3" y1="1711.4" x2="2306.1" y2="1663.1"/>

		<line class="st1" x1="2906.2" y1="1728" x2="2857.9" y2="1755.7"/>

		<line class="st1" x1="2857.9" y1="1755.7" x2="2634.6" y2="1883.9"/>

		<line class="st1" x1="1576" y1="1408.9" x2="1583.2" y2="1416.1"/>

		<line class="st1" x1="1583.2" y1="1416.1" x2="1602.1" y2="1435"/>

		<line class="st1" x1="1629.5" y1="1462.4" x2="1649.2" y2="1482.2"/>

		<line class="st1" x1="1649.2" y1="1482.2" x2="1655.6" y2="1488.6"/>

		<line class="st1" x1="1704.2" y1="1537.1" x2="1709.1" y2="1542.1"/>

		<line class="st1" x1="1736.5" y1="1569.5" x2="1744.4" y2="1577.4"/>

		<line class="st1" x1="1744.4" y1="1577.4" x2="1762.6" y2="1595.7"/>

		<line class="st1" x1="1790" y1="1623.1" x2="1810.3" y2="1643.4"/>

		<line class="st1" x1="1810.3" y1="1643.4" x2="1816.1" y2="1649.2"/>

		<line class="st1" x1="1843.5" y1="1676.6" x2="1850.6" y2="1683.7"/>

		<line class="st1" x1="1897" y1="1730.2" x2="1905.7" y2="1738.8"/>

		<line class="st1" x1="1905.7" y1="1738.8" x2="1923.2" y2="1756.3"/>

		<line class="st1" x1="1972.9" y1="1806.1" x2="1976.7" y2="1809.9"/>

		<line class="st1" x1="2550" y1="902.8" x2="2501.8" y2="930.6"/>

		<line class="st1" x1="2501.8" y1="930.6" x2="2437.5" y2="967.4"/>

		<line class="st1" x1="2460.6" y1="813.3" x2="2412.4" y2="841.1"/>

		<line class="st1" x1="2412.4" y1="841.1" x2="2348.1" y2="877.9"/>

		<line class="st1" x1="2251.3" y1="603.9" x2="2203.1" y2="631.6"/>

		<line class="st1" x1="2203.1" y1="631.6" x2="2121.3" y2="678.5"/>

		<line class="st1" x1="1814.6" y1="166.8" x2="1766.3" y2="194.5"/>

		<line class="st1" x1="1766.3" y1="194.5" x2="1684.6" y2="241.5"/>

		<line class="st1" x1="1904" y1="256.3" x2="1855.8" y2="284"/>

		<line class="st1" x1="1855.8" y1="284" x2="1774" y2="331"/>

		<line class="st1" x1="1576.3" y1="444.4" x2="1624.6" y2="492.7"/>

		<line class="st1" x1="1624.6" y1="492.7" x2="1923.6" y2="792"/>

		<line class="st1" x1="1576.3" y1="444.4" x2="1535.2" y2="403.2"/>

		<line class="st1" x1="1535.2" y1="403.2" x2="1486.9" y2="354.9"/>

		<line class="st1" x1="2114.2" y1="1266.6" x2="2114.2" y2="1266.6"/>

		<line class="st1" x1="2059.3" y1="1298.2" x2="2059" y2="1298.3"/>

		<line class="st1" x1="2004.3" y1="1329.7" x2="2004.3" y2="1329.8"/>

		<line class="st1" x1="1295.9" y1="2242.9" x2="1344.2" y2="2291.2"/>

		<line class="st1" x1="1344.2" y1="2291.2" x2="1555.9" y2="2503"/>

		<line class="st1" x1="2137.2" y1="1253.4" x2="2137.2" y2="1339"/>

		<line class="st1" x1="1923.6" y1="792" x2="1875.4" y2="819.7"/>

		<line class="st1" x1="1875.4" y1="819.7" x2="1681.6" y2="930.9"/>

		<line class="st1" x1="1207.4" y1="1203.1" x2="1159.2" y2="1230.8"/>

		<line class="st1" x1="1159.2" y1="1230.8" x2="965.4" y2="1342"/>

		<line class="st1" x1="542.6" y1="973" x2="736.4" y2="1166.9"/>

		<line class="st1" x1="736.4" y1="1166.9" x2="931.1" y2="1361.7"/>

		<line class="st1" x1="2646.2" y1="1467.8" x2="2598" y2="1495.5"/>

		<line class="st1" x1="2598" y1="1495.5" x2="2495.4" y2="1554.4"/>

		<line class="st1" x1="1933.7" y1="1876.8" x2="1885.5" y2="1904.5"/>

		<line class="st1" x1="1885.5" y1="1904.5" x2="1679" y2="2023"/>

		<line class="st1" x1="1258.8" y1="561.8" x2="1452.6" y2="755.8"/>

		<line class="st1" x1="1452.6" y1="755.8" x2="1647.3" y2="950.6"/>

		<line class="st1" x1="1871.1" y1="1227.7" x2="1936.2" y2="1292.9"/>

		<line class="st1" x1="1683" y1="1516" x2="1689.5" y2="1522.5"/>

		<line class="st1" x1="1689.5" y1="1522.5" x2="1704.2" y2="1537.1"/>

		<line class="st1" x1="1850.6" y1="1683.7" x2="1865.3" y2="1698.4"/>

		<line class="st1" x1="1865.3" y1="1698.4" x2="1869.7" y2="1702.8"/>

		<line class="st1" x1="1950.6" y1="1783.7" x2="1971.6" y2="1804.8"/>

		<line class="st1" x1="1971.6" y1="1804.8" x2="1972.9" y2="1806.1"/>

		<line class="st1" x1="2137.2" y1="1253.4" x2="2114.3" y2="1266.6"/>

		<line class="st1" x1="2114.3" y1="1266.6" x2="2114.2" y2="1266.6"/>

		<line class="st1" x1="2059.3" y1="1298.1" x2="2059.3" y2="1298.2"/>

		<line class="st1" x1="2004.4" y1="1329.7" x2="2004.3" y2="1329.7"/>

		<line class="st1" x1="1936.2" y1="1292.9" x2="1984.4" y2="1341.2"/>

		<line class="st1" x1="2087.6" y1="1281.9" x2="2087.2" y2="1282.2"/>

		<line class="st1" x1="2087.2" y1="1282.2" x2="2059.3" y2="1298.1"/>

		<line class="st1" x1="2032.4" y1="1313.6" x2="2032.2" y2="1313.7"/>

		<line class="st1" x1="2032.2" y1="1313.7" x2="2004.4" y2="1329.7"/>

		<line class="st1" x1="1984.4" y1="1341.2" x2="1994.2" y2="1350.9"/>

		<line class="st1" x1="1994.2" y1="1350.9" x2="1996" y2="1352.7"/>

		<line class="st1" x1="1996" y1="1352.7" x2="1999" y2="1355.8"/>

		<line class="st1" x1="1999" y1="1355.8" x2="2001.6" y2="1358.4"/>

		<line class="st1" x1="2001.6" y1="1358.4" x2="2003.4" y2="1360.2"/>

		<line class="st1" x1="2003.4" y1="1360.2" x2="2004.3" y2="1361.1"/>

		<line class="st1" x1="2004.3" y1="1361.1" x2="2004.4" y2="1361.1"/>

		<line class="st1" x1="2004.4" y1="1361.1" x2="2306.1" y2="1663.1"/>

		<line class="st1" x1="2306.5" y1="1508.4" x2="2137.2" y2="1339"/>

		<line class="st1" x1="1822.8" y1="1255.4" x2="2306.1" y2="1739.1"/>

		<line class="st1" x1="1207.4" y1="1279.1" x2="931.1" y2="1437.7"/>

		<line class="st1" x1="1110.3" y1="1664.4" x2="997.8" y2="1729"/>

		<line class="st1" x1="2173.4" y1="2224.6" x2="2283.3" y2="2161.5"/>

		<line class="st1" x1="2634.6" y1="1959.9" x2="2476.3" y2="2050.7"/>

		<line class="st1" x1="2550" y1="978.8" x2="3155.5" y2="1584.8"/>

		<line class="st1" x1="1716.4" y1="1316.6" x2="1576" y2="1397.1"/>

		<line class="st1" x1="1583.2" y1="1416.1" x2="1716.4" y2="1339.6"/>

		<line class="st1" x1="1936.2" y1="1292.9" x2="2137.2" y2="1177.5"/>

		<line class="st1" x1="946.4" y1="820.6" x2="946.4" y2="742.2"/>

		<line class="st1" x1="919.3" y1="820.6" x2="919.3" y2="742.2"/>

		<path class="st1" d="M919.3,742.2c0-5.1,6.1-9.2,13.5-9.2s13.5,4.1,13.5,9.2"/>

		<path class="st1" d="M919.3,820.6c0,5,6.1,9.2,13.5,9.2c7.5,0,13.5-4.1,13.5-9.2"/>

		<line class="st1" x1="1000.1" y1="874.3" x2="1000.1" y2="795.9"/>

		<line class="st1" x1="973" y1="874.3" x2="973" y2="795.9"/>

		<path class="st1" d="M973,795.9c0-5,6.1-9.1,13.5-9.1c7.5,0,13.5,4.1,13.5,9.1"/>

		<path class="st1" d="M973,874.3c0,5.1,6.1,9.2,13.5,9.2c7.5,0,13.5-4.1,13.5-9.2"/>

		<line class="st1" x1="1053.7" y1="928" x2="1053.7" y2="849.6"/>

		<line class="st1" x1="1026.6" y1="928" x2="1026.6" y2="849.6"/>

		<path class="st1" d="M1026.6,849.6c0-5.1,6.1-9.2,13.5-9.2c7.5,0,13.6,4.1,13.6,9.2"/>

		<path class="st1" d="M1026.6,928c0,5.1,6.1,9.2,13.5,9.2c7.5,0,13.5-4.1,13.5-9.2"/>

		<line class="st1" x1="1107.4" y1="981.7" x2="1107.4" y2="903.3"/>

		<line class="st1" x1="1080.3" y1="981.7" x2="1080.3" y2="903.3"/>

		<path class="st1" d="M1080.3,903.3c0-5.1,6.1-9.2,13.5-9.2c7.5,0,13.6,4.1,13.6,9.2"/>

		<path class="st1" d="M1080.3,981.7c0,5,6.1,9.2,13.5,9.2c7.5,0,13.5-4.1,13.5-9.2"/>

		<line class="st1" x1="1161.1" y1="1035.4" x2="1161.1" y2="957"/>

		<line class="st1" x1="1134" y1="1035.4" x2="1134" y2="957.1"/>

		<path class="st1" d="M1134,957c0-5,6.1-9.2,13.6-9.2s13.5,4.1,13.5,9.2"/>

		<path class="st1" d="M1134,1035.4c0,5.1,6.1,9.2,13.5,9.2c7.5,0,13.5-4.1,13.5-9.2"/>

		<line class="st1" x1="1214.7" y1="1089.1" x2="1214.7" y2="1010.8"/>

		<line class="st1" x1="1187.7" y1="1089.1" x2="1187.7" y2="1010.8"/>

		<path class="st1" d="M1187.7,1010.7c0-5,6.1-9.1,13.5-9.1c7.5,0,13.5,4.1,13.5,9.1"/>

		<path class="st1" d="M1187.7,1089.1c0,5.1,6.1,9.2,13.5,9.2c7.5,0,13.5-4.1,13.5-9.2"/>

		<line class="st1" x1="1268.4" y1="1142.8" x2="1268.4" y2="1064.5"/>

		<line class="st1" x1="1241.3" y1="1142.8" x2="1241.3" y2="1064.5"/>

		<path class="st1" d="M1241.3,1064.5c0-5.1,6.1-9.2,13.5-9.2c7.5,0,13.5,4.1,13.5,9.2"/>

		<path class="st1" d="M1241.3,1142.8c0,5.1,6.1,9.2,13.5,9.2c7.5,0,13.5-4.1,13.5-9.2"/>

		<line class="st1" x1="1269.3" y1="804.3" x2="1269.3" y2="725.9"/>

		<line class="st1" x1="1242.2" y1="804.3" x2="1242.2" y2="725.9"/>

		<path class="st1" d="M1242.2,725.9c0-5.1,6.1-9.2,13.5-9.2c7.5,0,13.5,4.1,13.5,9.2"/>

		<path class="st1" d="M1242.2,804.3c0,5.1,6.1,9.2,13.5,9.2c7.5,0,13.5-4.1,13.5-9.2"/>

		<line class="st1" x1="1323" y1="858" x2="1323" y2="779.6"/>

		<line class="st1" x1="1295.9" y1="858" x2="1295.9" y2="779.6"/>

		<path class="st1" d="M1295.9,779.6c0-5.1,6.1-9.1,13.5-9.1c7.5,0,13.5,4.1,13.5,9.1"/>

		<path class="st1" d="M1295.9,858c0,5.1,6.1,9.2,13.5,9.2c7.5,0,13.5-4.1,13.5-9.2"/>

		<line class="st1" x1="1376.6" y1="911.7" x2="1376.6" y2="833.3"/>

		<line class="st1" x1="1349.5" y1="911.7" x2="1349.5" y2="833.3"/>

		<path class="st1" d="M1349.5,833.3c0-5.1,6.1-9.2,13.5-9.2s13.5,4.1,13.5,9.2"/>

		<path class="st1" d="M1349.5,911.7c0,5.1,6.1,9.2,13.5,9.2c7.5,0,13.5-4.1,13.5-9.2"/>

		<line class="st1" x1="1430.3" y1="965.4" x2="1430.3" y2="887"/>

		<line class="st1" x1="1403.2" y1="965.4" x2="1403.2" y2="887.1"/>

		<path class="st1" d="M1403.2,887c0-5.1,6.1-9.2,13.5-9.2c7.5,0,13.5,4.1,13.5,9.2"/>

		<path class="st1" d="M1403.2,965.4c0,5.1,6.1,9.2,13.5,9.2c7.5,0,13.6-4.1,13.6-9.2"/>

		<line class="st1" x1="1484" y1="1019.1" x2="1484" y2="940.7"/>

		<line class="st1" x1="1456.9" y1="1019.1" x2="1456.9" y2="940.8"/>

		<path class="st1" d="M1456.9,940.7c0-5.1,6.1-9.2,13.5-9.2c7.5,0,13.5,4.1,13.5,9.2"/>

		<path class="st1" d="M1456.9,1019.1c0,5.1,6.1,9.2,13.5,9.2c7.5,0,13.6-4.1,13.6-9.2"/>

		<line class="st1" x1="1449.6" y1="1324.2" x2="1449.6" y2="1245.8"/>

		<line class="st1" x1="1422.5" y1="1324.2" x2="1422.5" y2="1245.8"/>

		<path class="st1" d="M1422.6,1245.8c0-5.1,6.1-9.1,13.5-9.1c7.5,0,13.6,4.1,13.6,9.1"/>

		<path class="st1" d="M1422.6,1324.2c0,5.1,6.1,9.2,13.5,9.2c7.5,0,13.5-4.1,13.5-9.2"/>

		<line class="st1" x1="1501.7" y1="1376.3" x2="1501.7" y2="1297.9"/>

		<line class="st1" x1="1474.6" y1="1376.3" x2="1474.6" y2="1298"/>

		<path class="st1" d="M1474.6,1297.9c0-5.1,6.1-9.2,13.5-9.2c7.5,0,13.5,4.1,13.5,9.2"/>

		<path class="st1" d="M1474.6,1376.3c0,5.1,6.1,9.1,13.5,9.1c7.5,0,13.5-4.1,13.5-9.1"/>

		<line class="st1" x1="1665.5" y1="1200.2" x2="1665.5" y2="1121.8"/>

		<line class="st1" x1="1638.4" y1="1200.2" x2="1638.4" y2="1121.8"/>

		<path class="st1" d="M1638.4,1121.8c0-5.1,6.1-9.1,13.5-9.1c7.5,0,13.5,4.1,13.5,9.1"/>

		<path class="st1" d="M1638.4,1200.2c0,5.1,6.1,9.2,13.5,9.2c7.5,0,13.5-4.1,13.5-9.2"/>

		<line class="st1" x1="1717.6" y1="1252.3" x2="1717.6" y2="1173.9"/>

		<line class="st1" x1="1690.5" y1="1252.3" x2="1690.5" y2="1174"/>

		<path class="st1" d="M1690.5,1173.9c0-5.1,6.1-9.2,13.5-9.2c7.5,0,13.5,4.1,13.5,9.2"/>

		<path class="st1" d="M1690.5,1252.3c0,5,6.1,9.2,13.5,9.2c7.5,0,13.5-4.1,13.5-9.2"/>

		<line class="st1" x1="1575.8" y1="1450.5" x2="1575.8" y2="1372.1"/>

		<line class="st1" x1="1548.7" y1="1450.5" x2="1548.7" y2="1372.1"/>

		<path class="st1" d="M1548.7,1372.1c0-5.1,6.1-9.2,13.5-9.2c7.5,0,13.5,4.1,13.5,9.2"/>

		<path class="st1" d="M1548.7,1450.5c0,5.1,6.1,9.1,13.5,9.1c7.5,0,13.6-4.1,13.6-9.1"/>

		<line class="st1" x1="1629.3" y1="1504.1" x2="1629.3" y2="1425.7"/>

		<line class="st1" x1="1602.2" y1="1504.1" x2="1602.2" y2="1425.7"/>

		<path class="st1" d="M1602.3,1425.7c0-5.1,6.1-9.2,13.5-9.2c7.5,0,13.5,4.1,13.5,9.2"/>

		<path class="st1" d="M1602.3,1504.1c0,5.1,6.1,9.2,13.5,9.2c7.5,0,13.6-4.1,13.6-9.2"/>

		<line class="st1" x1="1682.9" y1="1557.6" x2="1682.9" y2="1479.2"/>

		<line class="st1" x1="1655.8" y1="1557.6" x2="1655.8" y2="1479.2"/>

		<path class="st1" d="M1655.8,1479.2c0-5.1,6.1-9.2,13.5-9.2c7.5,0,13.6,4.1,13.6,9.2"/>

		<path class="st1" d="M1655.8,1557.6c0,5.1,6.1,9.2,13.6,9.2s13.5-4.1,13.5-9.2"/>

		<line class="st1" x1="1215.6" y1="750.6" x2="1215.6" y2="672.2"/>

		<line class="st1" x1="1188.5" y1="750.6" x2="1188.5" y2="672.2"/>

		<path class="st1" d="M1188.5,672.2c0-5.1,6.1-9.2,13.5-9.2c7.5,0,13.6,4.1,13.6,9.2"/>

		<path class="st1" d="M1188.5,750.6c0,5.1,6.1,9.2,13.6,9.2s13.5-4.1,13.5-9.2"/>

		<line class="st1" x1="1161.9" y1="696.8" x2="1161.9" y2="618.5"/>

		<line class="st1" x1="1134.8" y1="696.8" x2="1134.8" y2="618.5"/>

		<path class="st1" d="M1134.9,618.4c0-5,6.1-9.1,13.5-9.1c7.5,0,13.5,4.1,13.5,9.1"/>

		<path class="st1" d="M1134.9,696.8c0,5.1,6.1,9.2,13.5,9.2c7.5,0,13.5-4.1,13.5-9.2"/>

		<line class="st1" x1="1736.4" y1="1611.2" x2="1736.4" y2="1532.8"/>

		<line class="st1" x1="1709.3" y1="1611.1" x2="1709.3" y2="1532.8"/>

		<path class="st1" d="M1709.3,1532.8c0-5.1,6.1-9.2,13.5-9.2c7.5,0,13.6,4.1,13.6,9.2"/>

		<path class="st1" d="M1709.3,1611.1c0,5.1,6.1,9.2,13.6,9.2s13.5-4.1,13.5-9.2"/>

		<line class="st1" x1="1789.9" y1="1664.7" x2="1789.9" y2="1586.3"/>

		<line class="st1" x1="1762.8" y1="1664.7" x2="1762.8" y2="1586.3"/>

		<path class="st1" d="M1762.8,1586.3c0-5.1,6.1-9.2,13.6-9.2s13.5,4.1,13.5,9.2"/>

		<path class="st1" d="M1762.8,1664.7c0,5.1,6.1,9.2,13.5,9.2c7.5,0,13.5-4.1,13.5-9.2"/>

		<line class="st1" x1="1843.4" y1="1718.3" x2="1843.4" y2="1639.9"/>

		<line class="st1" x1="1816.3" y1="1718.3" x2="1816.3" y2="1639.9"/>

		<path class="st1" d="M1816.3,1639.9c0-5.1,6.1-9.2,13.6-9.2s13.5,4.1,13.5,9.2"/>

		<path class="st1" d="M1816.3,1718.3c0,5.1,6.1,9.2,13.5,9.2c7.5,0,13.5-4.1,13.5-9.2"/>

		<line class="st1" x1="1896.9" y1="1771.8" x2="1896.9" y2="1693.4"/>

		<line class="st1" x1="1869.8" y1="1771.8" x2="1869.8" y2="1693.4"/>

		<path class="st1" d="M1869.8,1693.4c0-5,6.1-9.2,13.5-9.2c7.5,0,13.5,4.1,13.5,9.2"/>

		<path class="st1" d="M1869.8,1771.8c0,5.1,6.1,9.2,13.5,9.2s13.5-4.1,13.5-9.2"/>

		<line class="st1" x1="1950.4" y1="1825.4" x2="1950.4" y2="1747"/>

		<line class="st1" x1="1923.3" y1="1825.4" x2="1923.3" y2="1747"/>

		<path class="st1" d="M1923.3,1747c0-5.1,6.1-9.1,13.5-9.1c7.5,0,13.5,4.1,13.5,9.1"/>

		<path class="st1" d="M1923.3,1825.4c0,5.1,6.1,9.2,13.5,9.2c7.5,0,13.5-4.1,13.5-9.2"/>

		<line class="st1" x1="2003.9" y1="1878.9" x2="2003.9" y2="1800.5"/>

		<line class="st1" x1="1976.8" y1="1878.9" x2="1976.8" y2="1800.6"/>

		<path class="st1" d="M1976.8,1800.5c0-5.1,6.1-9.2,13.5-9.2c7.5,0,13.5,4.1,13.5,9.2"/>

		<path class="st1" d="M1976.8,1878.9c0,5.1,6.1,9.2,13.5,9.2c7.5,0,13.5-4.1,13.5-9.2"/>

		<line class="st1" x1="2340.5" y1="1875.8" x2="2340.5" y2="1797.5"/>

		<line class="st1" x1="2313.4" y1="1875.8" x2="2313.4" y2="1797.5"/>

		<path class="st1" d="M2313.4,1797.4c0-5.1,6.1-9.2,13.5-9.2c7.5,0,13.5,4.1,13.5,9.2"/>

		<path class="st1" d="M2313.4,1875.8c0,5,6.1,9.1,13.5,9.1c7.5,0,13.5-4.1,13.5-9.1"/>

		<line class="st1" x1="2444.8" y1="1980.2" x2="2444.8" y2="1901.8"/>

		<line class="st1" x1="2417.7" y1="1980.2" x2="2417.7" y2="1901.8"/>

		<path class="st1" d="M2417.7,1901.8c0-5.1,6.1-9.2,13.6-9.2s13.5,4.1,13.5,9.2"/>

		<path class="st1" d="M2417.7,1980.2c0,5.1,6.1,9.2,13.5,9.2c7.5,0,13.5-4.1,13.5-9.2"/>

		<line class="st1" x1="2124.6" y1="1999.8" x2="2124.6" y2="1921.4"/>

		<line class="st1" x1="2097.6" y1="1999.7" x2="2097.6" y2="1921.4"/>

		<path class="st1" d="M2097.6,1921.4c0-5.1,6.1-9.2,13.5-9.2c7.5,0,13.5,4.1,13.5,9.2"/>

		<path class="st1" d="M2097.6,1999.7c0,5.1,6.1,9.2,13.5,9.2c7.5,0,13.6-4.1,13.6-9.2"/>

	</g>

	<g>

		<g>

			<path class="st2" d="M1102.3,1470.2c-2,0-3.7-1-4.4-2.7c-0.7-1.7-0.3-3.5,1.2-5l21.4-21.9c4.3-4.4,6.9-7.6,8.3-10

				c1.1-2,1.4-3.5,1.4-5.2c0-4.9-3.4-8.3-8.3-8.3h-8.3c-4.6,0-8.3,3.7-8.3,8.3v2.4c0,1.9-1.6,3.5-3.5,3.5s-3.5-1.6-3.5-3.5v-2.4

				c0-8.6,6.8-15.4,15.4-15.4h8.3c8.9,0,15.4,6.4,15.4,15.4c0,2.4-0.3,5.1-2.3,8.7c-1.7,3-4.6,6.6-9.4,11.5l-17.1,17.6h26.4

				c1.9,0,3.5,1.6,3.5,3.5s-1.6,3.5-3.5,3.5H1102.3z"/>

			<path class="st2" d="M1157.8,1459.5c-2.4,0-4.6-1.3-5.7-3.3c-1.2-2.2-0.9-4.9,0.6-7.3l24-38.5c1.1-1.7,3.2-2.2,4.9-1.2

				c1.7,1.1,2.2,3.3,1.2,4.9l-23.9,38.3h23.2v-23c0-1.9,1.6-3.5,3.5-3.5s3.5,1.6,3.5,3.5v23h4.1c1.9,0,3.5,1.6,3.5,3.5

				s-1.6,3.5-3.5,3.5h-4.1v7.7c0,1.9-1.6,3.5-3.5,3.5s-3.5-1.6-3.5-3.5v-7.7L1157.8,1459.5L1157.8,1459.5z"/>

		</g>

		<g>

			<path class="st2" d="M1174.4,921.9h10.6c4.2,0,7.7-3.5,7.7-7.7v-8.3c0-4.6-3.7-8.3-8.3-8.3h-6.5c-2,0-3.5-1.4-3.5-3.5

				c0-0.8,0.5-1.6,1-2.3l13.5-16.1h-24.6c-2,0-3.5-1.5-3.5-3.5s1.5-3.5,3.5-3.5h30c2.7,0,4.3,1.4,4.3,3.8c0,0.7-0.2,1.5-1.1,2.6

				l-12.5,15.4c8,0.3,14.8,6.7,14.8,15.4v8.3c0,8.3-6.5,14.8-14.8,14.8h-10.6c-8.3,0-14.8-6.5-14.8-14.8c0-2,1.5-3.5,3.5-3.5

				s3.5,1.5,3.5,3.5C1166.8,918.4,1170.2,921.9,1174.4,921.9z"/>

			<path class="st2" d="M1231.2,928.9c-8.3,0-14.8-6.5-14.8-14.8v-30.7c0-8.3,6.5-14.8,14.8-14.8h10.6c8.3,0,14.8,6.5,14.8,14.8

				v30.7c0,8.3-6.5,14.8-14.8,14.8H1231.2z M1241.8,921.9c4.2,0,7.7-3.5,7.7-7.7v-30.7c0-4.2-3.5-7.7-7.7-7.7h-10.6

				c-4.2,0-7.7,3.5-7.7,7.7v30.7c0,4.2,3.5,7.7,7.7,7.7H1241.8z"/>

		</g>

		<g>

			<path class="st2" d="M819.6,572.8c-2,0-3.7-1-4.4-2.7s-0.3-3.5,1.2-5l21.3-21.9c4.3-4.4,6.9-7.6,8.3-10c1.1-2,1.4-3.5,1.4-5.2

				c0-4.9-3.4-8.3-8.3-8.3h-8.3c-4.6,0-8.3,3.7-8.3,8.3v2.4c0,1.9-1.6,3.5-3.5,3.5s-3.5-1.6-3.5-3.5V528c0-8.6,6.8-15.4,15.4-15.4

				h8.3c8.9,0,15.4,6.4,15.4,15.4c0,2.4-0.3,5.1-2.3,8.7c-1.7,3-4.6,6.6-9.4,11.5l-17.1,17.6h26.4c1.9,0,3.5,1.6,3.5,3.5

				s-1.6,3.5-3.5,3.5H819.6z"/>

			<path class="st2" d="M883.4,569.8c0-12.5,3.3-19.8,11.4-30.5l2.2-2.9c3.6-4.7,8.1-9.5,8.7-16.9h-26.4v7.1c0,1.9-1.6,3.5-3.5,3.5

				s-3.5-1.6-3.5-3.5V516c0-1.9,1.6-3.5,3.5-3.5h33.7c1.9,0,3.5,1.6,3.5,3.5v1.2c0,9.8-5,16.5-10.5,23.6l-2.2,2.8

				c-4.9,6.2-9.7,13.7-9.7,26.2c0,1.9-1.6,3.5-3.5,3.5C885,573.4,883.4,571.8,883.4,569.8z"/>

		</g>

		<g>

			<path class="st2" d="M413.1,880.2c-2,0-3.7-1-4.4-2.7s-0.3-3.5,1.2-5l21.4-21.9c4.3-4.4,6.9-7.6,8.3-10c1.1-2,1.4-3.5,1.4-5.2

				c0-4.9-3.4-8.3-8.3-8.3h-8.3c-4.6,0-8.3,3.7-8.3,8.3v2.4c0,1.9-1.6,3.5-3.5,3.5s-3.5-1.6-3.5-3.5v-2.4c0-8.6,6.8-15.4,15.4-15.4

				h8.3c8.9,0,15.4,6.4,15.4,15.4c0,2.4-0.3,5.1-2.3,8.7c-1.7,3-4.6,6.6-9.4,11.5l-17.1,17.6h26.4c1.9,0,3.5,1.6,3.5,3.5

				s-1.6,3.5-3.5,3.5L413.1,880.2L413.1,880.2z"/>

			<path class="st2" d="M479.3,880.2c-8.3,0-14.8-6.5-14.8-14.8v-16c0-10.6,3.2-20.3,12.6-25.9c6.2-3.6,13.5-4.8,21.1-4.8

				c1.9,0,3.5,1.6,3.5,3.5s-1.6,3.5-3.5,3.5c-7.6,0-13.2,1.3-17.5,3.8c-5.6,3.3-7.9,8.6-8.7,14c2.1-1.2,4.6-1.9,7.3-1.9h10.6

				c8.3,0,14.8,6.5,14.8,14.8v8.9c0,8.3-6.5,14.8-14.8,14.8L479.3,880.2L479.3,880.2z M479.3,848.9c-4.2,0-7.7,3.5-7.7,7.7v8.9

				c0,4.2,3.5,7.7,7.7,7.7h10.6c4.2,0,7.7-3.5,7.7-7.7v-8.9c0-4.2-3.5-7.7-7.7-7.7H479.3z"/>

		</g>

		<g>

			<path class="st2" d="M493,1309.1c-2,0-3.7-1-4.4-2.7s-0.3-3.5,1.2-5l21.4-21.9c4.3-4.4,6.9-7.6,8.3-10c1.1-2,1.4-3.5,1.4-5.2

				c0-4.9-3.4-8.3-8.3-8.3h-8.3c-4.6,0-8.3,3.7-8.3,8.3v2.4c0,1.9-1.6,3.5-3.5,3.5s-3.5-1.6-3.5-3.5v-2.4c0-8.6,6.8-15.4,15.4-15.4

				h8.3c8.9,0,15.4,6.4,15.4,15.4c0,2.4-0.3,5.1-2.3,8.7c-1.7,3-4.6,6.6-9.4,11.5l-17.1,17.6h26.4c1.9,0,3.5,1.6,3.5,3.5

				s-1.6,3.5-3.5,3.5H493z"/>

			<path class="st2" d="M558.7,1309.1c-7.3,0-13.2-5.1-14.4-11.2c-0.6-3,0.9-4.7,3.3-4.7c2,0,3.1,1.2,3.5,2.9c0.8,3.5,3.9,6,7.6,6

				h11.1c4.2,0,7.7-3.5,7.7-7.7v-8.9c0-4.2-3.5-7.7-7.7-7.7h-11.2c-2.4,0-3.6,0.5-4.7,1c-0.8,0.3-1.8,0.8-3,0.8

				c-2.7,0-4.7-2-4.7-4.7v-21.3c0-2.7,2-4.7,4.7-4.7h27.8c2,0,3.5,1.5,3.5,3.5s-1.5,3.5-3.5,3.5h-25.4v15.5c1.3-0.4,3-0.8,5.3-0.8

				h11.2c8.3,0,14.8,6.5,14.8,14.8v8.9c0,8.3-6.5,14.8-14.8,14.8L558.7,1309.1L558.7,1309.1z"/>

		</g>

		<g>

			<path class="st2" d="M1192.4,2014.1c-2,0-3.7-1-4.4-2.7c-0.7-1.7-0.3-3.5,1.2-5l21.4-21.9c4.3-4.4,6.9-7.6,8.3-10

				c1.1-2,1.4-3.5,1.4-5.2c0-4.9-3.4-8.3-8.3-8.3h-8.3c-4.6,0-8.3,3.7-8.3,8.3v2.4c0,1.9-1.6,3.5-3.5,3.5s-3.5-1.6-3.5-3.5v-2.4

				c0-8.6,6.8-15.4,15.4-15.4h8.3c8.9,0,15.4,6.4,15.4,15.4c0,2.4-0.3,5.1-2.3,8.7c-1.7,3-4.6,6.6-9.4,11.5l-17.1,17.6h26.4

				c1.9,0,3.5,1.6,3.5,3.5s-1.6,3.5-3.5,3.5H1192.4L1192.4,2014.1z"/>

			<path class="st2" d="M1258.6,2007h10.6c4.2,0,7.7-3.5,7.7-7.7v-8.3c0-4.6-3.7-8.3-8.3-8.3h-6.5c-2,0-3.5-1.4-3.5-3.5

				c0-0.8,0.5-1.6,1-2.3l13.5-16.1h-24.6c-2,0-3.5-1.5-3.5-3.5s1.5-3.5,3.5-3.5h30c2.7,0,4.3,1.4,4.3,3.8c0,0.7-0.2,1.5-1.1,2.6

				l-12.5,15.4c8,0.3,14.8,6.7,14.8,15.4v8.3c0,8.3-6.5,14.8-14.8,14.8h-10.6c-8.3,0-14.8-6.5-14.8-14.8c0-2,1.5-3.5,3.5-3.5

				s3.5,1.5,3.5,3.5C1250.9,2003.5,1254.3,2007,1258.6,2007z"/>

		</g>

		<g>

			<path class="st2" d="M1534.8,2356.9c-2,0-3.7-1-4.4-2.7s-0.3-3.5,1.2-5l21.4-21.9c4.3-4.4,6.9-7.6,8.3-10c1.1-2,1.4-3.5,1.4-5.2

				c0-4.9-3.4-8.3-8.3-8.3h-8.3c-4.6,0-8.3,3.7-8.3,8.3v2.4c0,1.9-1.6,3.5-3.5,3.5s-3.5-1.6-3.5-3.5v-2.4c0-8.6,6.8-15.4,15.4-15.4

				h8.3c8.9,0,15.4,6.4,15.4,15.4c0,2.4-0.3,5.1-2.3,8.7c-1.7,3-4.6,6.6-9.4,11.5l-17.1,17.6h26.4c1.9,0,3.5,1.6,3.5,3.5

				s-1.6,3.5-3.5,3.5L1534.8,2356.9L1534.8,2356.9z"/>

			<path class="st2" d="M1591.5,2356.9c-2,0-3.7-1-4.4-2.7s-0.3-3.5,1.2-5l21.4-21.9c4.3-4.4,6.9-7.6,8.3-10c1.1-2,1.4-3.5,1.4-5.2

				c0-4.9-3.4-8.3-8.3-8.3h-8.3c-4.6,0-8.3,3.7-8.3,8.3v2.4c0,1.9-1.6,3.5-3.5,3.5s-3.5-1.6-3.5-3.5v-2.4c0-8.6,6.8-15.4,15.4-15.4

				h8.3c8.9,0,15.4,6.4,15.4,15.4c0,2.4-0.3,5.1-2.3,8.7c-1.7,3-4.6,6.6-9.4,11.5l-17.1,17.6h26.4c1.9,0,3.5,1.6,3.5,3.5

				s-1.6,3.5-3.5,3.5L1591.5,2356.9L1591.5,2356.9z"/>

		</g>

		<g>

			<path class="st2" d="M1861,2173.3c-2,0-3.7-1-4.4-2.7s-0.3-3.5,1.2-5l21.4-21.9c4.3-4.4,6.9-7.6,8.3-10c1.1-2,1.4-3.5,1.4-5.2

				c0-4.9-3.4-8.3-8.3-8.3h-8.3c-4.6,0-8.3,3.7-8.3,8.3v2.4c0,1.9-1.6,3.5-3.5,3.5s-3.5-1.6-3.5-3.5v-2.4c0-8.6,6.8-15.4,15.4-15.4

				h8.3c8.9,0,15.4,6.4,15.4,15.4c0,2.4-0.3,5.1-2.3,8.7c-1.7,3-4.6,6.6-9.4,11.5l-17.1,17.6h26.4c1.9,0,3.5,1.6,3.5,3.5

				s-1.6,3.5-3.5,3.5L1861,2173.3L1861,2173.3z"/>

			<path class="st2" d="M1921.9,2173.3c-2,0-3.5-1.5-3.5-3.5s1.5-3.5,3.5-3.5h10.6v-43.2l-10.2,8.2c-0.7,0.5-1.4,0.8-2.2,0.8

				c-2,0-3.5-1.5-3.5-3.5c0-1,0.4-2,1.4-2.8l14.9-12c0.4-0.3,1.4-1.2,3-1.2c2.2,0,3.8,1.7,3.8,3.9v49.9h10.6c2,0,3.5,1.5,3.5,3.5

				s-1.5,3.5-3.5,3.5L1921.9,2173.3L1921.9,2173.3z"/>

		</g>

		<g>

			<path class="st2" d="M2215.6,1979.3c-2,0-3.5-1.5-3.5-3.5s1.5-3.5,3.5-3.5h10.6v-43.2l-10.2,8.2c-0.7,0.5-1.4,0.8-2.2,0.8

				c-2,0-3.5-1.5-3.5-3.5c0-1,0.4-2,1.4-2.8l14.9-12c0.4-0.3,1.4-1.2,3-1.2c2.2,0,3.8,1.7,3.8,3.9v49.9h10.6c2,0,3.5,1.5,3.5,3.5

				s-1.5,3.5-3.5,3.5L2215.6,1979.3L2215.6,1979.3z"/>

			<path class="st2" d="M2267,1977c0-1.9,1.6-3.5,3.5-3.5c6.2,0,12.5-0.4,17.2-3.5c4.3-2.7,7.2-7.5,7.8-14.4

				c-2.2,1.2-4.6,1.9-7.3,1.9h-10.6c-8.3,0-14.8-6.5-14.8-14.8v-8.9c0-8.3,6.5-14.8,14.8-14.8h10.6c8.3,0,14.8,6.5,14.8,14.8v16

				c0,9.6-2.3,20.4-11.5,26.2c-6.3,4-13.9,4.6-21,4.6C2268.6,1980.5,2267,1978.9,2267,1977z M2288.3,1950.4c4.2,0,7.7-3.5,7.7-7.7

				v-8.9c0-4.2-3.5-7.7-7.7-7.7h-10.6c-4.2,0-7.7,3.5-7.7,7.7v8.9c0,4.2,3.5,7.7,7.7,7.7H2288.3z"/>

		</g>

		<g>

			<path class="st2" d="M2362.1,2133.6c-2,0-3.7-1-4.4-2.7s-0.3-3.5,1.2-5l21.4-21.9c4.3-4.4,6.9-7.6,8.3-10c1.1-2,1.4-3.5,1.4-5.2

				c0-4.9-3.4-8.3-8.3-8.3h-8.3c-4.6,0-8.3,3.7-8.3,8.3v2.4c0,1.9-1.6,3.5-3.5,3.5s-3.5-1.6-3.5-3.5v-2.4c0-8.6,6.8-15.4,15.4-15.4

				h8.3c8.9,0,15.4,6.4,15.4,15.4c0,2.4-0.3,5.1-2.3,8.7c-1.7,3-4.6,6.6-9.4,11.5l-17.1,17.6h26.4c1.9,0,3.5,1.6,3.5,3.5

				s-1.6,3.5-3.5,3.5L2362.1,2133.6L2362.1,2133.6z"/>

			<path class="st2" d="M2428.2,2133.6c-8.3,0-14.8-6.5-14.8-14.8v-30.7c0-8.3,6.5-14.8,14.8-14.8h10.6c8.3,0,14.8,6.5,14.8,14.8

				v30.7c0,8.3-6.5,14.8-14.8,14.8H2428.2z M2438.9,2126.5c4.2,0,7.7-3.5,7.7-7.7v-30.7c0-4.2-3.5-7.7-7.7-7.7h-10.6

				c-4.2,0-7.7,3.5-7.7,7.7v30.7c0,4.2,3.5,7.7,7.7,7.7H2438.9z"/>

		</g>

		<g>

			<path class="st2" d="M2552.8,1780.7c-2,0-3.5-1.5-3.5-3.5s1.5-3.5,3.5-3.5h10.6v-43.2l-10.2,8.2c-0.7,0.5-1.4,0.8-2.2,0.8

				c-2,0-3.5-1.5-3.5-3.5c0-1,0.4-2,1.4-2.8l14.9-12c0.4-0.3,1.4-1.2,3-1.2c2.2,0,3.8,1.7,3.8,3.9v49.9h10.6c2,0,3.5,1.5,3.5,3.5

				s-1.5,3.5-3.5,3.5h-28.4L2552.8,1780.7L2552.8,1780.7z"/>

			<path class="st2" d="M2624.9,1720.5c7.9,0,14.2,6.2,14.2,14.2v3.5c0,4.1-1.7,7.6-4.4,10.2c3.5,2.7,5.6,6.9,5.6,11.6v5.9

				c0,8.3-6.5,14.8-14.8,14.8h-10.6c-8.3,0-14.8-6.5-14.8-14.8v-5.9c0-4.7,2.1-8.9,5.5-11.6c-2.7-2.6-4.3-6.2-4.3-10.3v-3.5

				c0-7.9,6.2-14.2,14.2-14.2h9.4L2624.9,1720.5L2624.9,1720.5z M2614.8,1752.4c-4.2,0-7.7,3.5-7.7,7.7v5.9c0,4.2,3.5,7.7,7.7,7.7

				h10.6c4.2,0,7.7-3.5,7.7-7.7v-5.9c0-4.2-3.5-7.7-7.7-7.7H2614.8z M2632,1734.6c0-3.9-3.2-7.1-7.1-7.1h-9.5

				c-3.9,0-7.1,3.2-7.1,7.1v3.5c0,3.9,3.2,7.1,7.1,7.1h9.5c3.9,0,7.1-3.2,7.1-7.1V1734.6z"/>

		</g>

		<g>

			<path class="st2" d="M2552.3,1252.3c-2,0-3.5-1.5-3.5-3.5s1.5-3.5,3.5-3.5h10.6v-43.2l-10.2,8.2c-0.7,0.5-1.4,0.8-2.2,0.8

				c-2,0-3.5-1.5-3.5-3.5c0-1,0.4-2,1.4-2.8l14.9-12c0.4-0.3,1.4-1.2,3-1.2c2.2,0,3.8,1.7,3.8,3.9v49.9h10.6c2,0,3.5,1.5,3.5,3.5

				s-1.5,3.5-3.5,3.5h-28.4L2552.3,1252.3L2552.3,1252.3z"/>

			<path class="st2" d="M2612,1249.4c0-12.5,3.3-19.8,11.4-30.5l2.2-2.9c3.6-4.7,8.1-9.5,8.7-16.9h-26.4v7.1c0,1.9-1.6,3.5-3.5,3.5

				s-3.5-1.6-3.5-3.5v-10.6c0-1.9,1.6-3.5,3.5-3.5h33.7c1.9,0,3.5,1.6,3.5,3.5v1.2c0,9.8-5,16.5-10.5,23.6l-2.2,2.8

				c-4.9,6.2-9.7,13.7-9.7,26.2c0,1.9-1.6,3.5-3.5,3.5S2612,1251.3,2612,1249.4z"/>

		</g>

		<g>

			<path class="st2" d="M1941.7,985.1c-2,0-3.5-1.5-3.5-3.5s1.5-3.5,3.5-3.5h10.6v-43.2l-10.2,8.2c-0.7,0.5-1.4,0.8-2.2,0.8

				c-2,0-3.5-1.5-3.5-3.5c0-1,0.4-2,1.4-2.8l14.9-12c0.4-0.3,1.4-1.2,3-1.2c2.2,0,3.8,1.7,3.8,3.9v49.9h10.6c2,0,3.5,1.5,3.5,3.5

				s-1.5,3.5-3.5,3.5h-28.4L1941.7,985.1L1941.7,985.1z"/>

			<path class="st2" d="M2003.8,985.1c-8.3,0-14.8-6.5-14.8-14.8v-16c0-10.6,3.2-20.3,12.6-25.9c6.2-3.6,13.5-4.8,21.1-4.8

				c1.9,0,3.5,1.6,3.5,3.5s-1.6,3.5-3.5,3.5c-7.6,0-13.3,1.3-17.5,3.8c-5.6,3.3-7.9,8.6-8.7,14c2.1-1.2,4.6-1.9,7.3-1.9h10.6

				c8.3,0,14.8,6.5,14.8,14.8v8.9c0,8.3-6.5,14.8-14.8,14.8L2003.8,985.1L2003.8,985.1z M2003.8,953.8c-4.2,0-7.7,3.5-7.7,7.7v8.9

				c0,4.2,3.5,7.7,7.7,7.7h10.6c4.2,0,7.7-3.5,7.7-7.7v-8.9c0-4.2-3.5-7.7-7.7-7.7H2003.8z"/>

		</g>

		<g>

			<path class="st2" d="M1308.7,365.9c-2,0-3.7-1-4.4-2.7s-0.3-3.5,1.2-5l21.4-21.9c4.3-4.4,6.9-7.6,8.3-10c1.1-2,1.4-3.5,1.4-5.2

				c0-4.9-3.4-8.3-8.3-8.3h-8.3c-4.6,0-8.3,3.7-8.3,8.3v2.4c0,1.9-1.6,3.5-3.5,3.5s-3.5-1.6-3.5-3.5v-2.4c0-8.6,6.8-15.4,15.4-15.4

				h8.3c8.9,0,15.4,6.4,15.4,15.4c0,2.4-0.3,5.1-2.3,8.7c-1.7,3-4.6,6.6-9.4,11.5l-17.1,17.6h26.4c1.9,0,3.5,1.6,3.5,3.5

				s-1.6,3.5-3.5,3.5H1308.7L1308.7,365.9z"/>

			<path class="st2" d="M1384.9,305.7c7.9,0,14.2,6.2,14.2,14.2v3.5c0,4.1-1.7,7.6-4.4,10.2c3.5,2.7,5.6,6.9,5.6,11.6v5.9

				c0,8.3-6.5,14.8-14.8,14.8h-10.6c-8.3,0-14.8-6.5-14.8-14.8v-5.9c0-4.7,2.1-8.9,5.5-11.6c-2.7-2.6-4.3-6.2-4.3-10.3v-3.5

				c0-7.9,6.2-14.2,14.2-14.2L1384.9,305.7L1384.9,305.7z M1374.8,337.6c-4.2,0-7.7,3.5-7.7,7.7v5.9c0,4.2,3.5,7.7,7.7,7.7h10.6

				c4.2,0,7.7-3.5,7.7-7.7v-6c0-4.2-3.5-7.7-7.7-7.7h-10.6V337.6z M1392,319.8c0-3.9-3.2-7.1-7.1-7.1h-9.5c-3.9,0-7.1,3.2-7.1,7.1

				v3.5c0,3.9,3.2,7.1,7.1,7.1h9.5c3.9,0,7.1-3.2,7.1-7.1V319.8z"/>

		</g>

		<g>

			<path class="st2" d="M1856.2,583.4c-2,0-3.7-1-4.4-2.7s-0.3-3.5,1.2-5l21.4-21.9c4.3-4.4,6.9-7.6,8.3-10c1.1-2,1.4-3.5,1.4-5.2

				c0-4.9-3.4-8.3-8.3-8.3h-8.3c-4.6,0-8.3,3.7-8.3,8.3v2.4c0,1.9-1.6,3.5-3.5,3.5s-3.5-1.6-3.5-3.5v-2.4c0-8.6,6.8-15.4,15.4-15.4

				h8.3c8.9,0,15.4,6.4,15.4,15.4c0,2.4-0.3,5.1-2.3,8.7c-1.7,3-4.6,6.6-9.4,11.5l-17.1,17.6h26.4c1.9,0,3.5,1.6,3.5,3.5

				s-1.6,3.5-3.5,3.5L1856.2,583.4L1856.2,583.4z"/>

			<path class="st2" d="M1911.7,581.1c0-1.9,1.6-3.5,3.5-3.5c6.2,0,12.5-0.4,17.2-3.5c4.3-2.7,7.2-7.5,7.8-14.4

				c-2.2,1.2-4.6,1.9-7.3,1.9h-10.6c-8.3,0-14.8-6.5-14.8-14.8v-8.9c0-8.3,6.5-14.8,14.8-14.8h10.6c8.3,0,14.8,6.5,14.8,14.8v16

				c0,9.6-2.3,20.4-11.5,26.2c-6.3,4-13.9,4.6-21,4.6C1913.3,584.6,1911.7,583,1911.7,581.1z M1933,554.5c4.2,0,7.7-3.5,7.7-7.7

				v-8.9c0-4.2-3.5-7.7-7.7-7.7h-10.6c-4.2,0-7.7,3.5-7.7,7.7v8.9c0,4.2,3.5,7.7,7.7,7.7H1933z"/>

		</g>

		<g>

			<path class="st2" d="M1942.2,1186.4c-2,0-3.5-1.5-3.5-3.5s1.5-3.5,3.5-3.5h10.6v-43.2l-10.2,8.2c-0.7,0.5-1.4,0.8-2.2,0.8

				c-2,0-3.5-1.5-3.5-3.5c0-1,0.4-2,1.4-2.8l14.9-12c0.4-0.3,1.4-1.2,3-1.2c2.2,0,3.8,1.7,3.8,3.9v49.9h10.6c2,0,3.5,1.5,3.5,3.5

				s-1.5,3.5-3.5,3.5h-28.4L1942.2,1186.4L1942.2,1186.4z"/>

			<path class="st2" d="M2004.3,1186.4c-8.3,0-14.8-6.5-14.8-14.8v-16c0-10.6,3.2-20.3,12.6-25.9c6.2-3.6,13.5-4.8,21.1-4.8

				c1.9,0,3.5,1.6,3.5,3.5s-1.6,3.5-3.5,3.5c-7.6,0-13.3,1.3-17.5,3.8c-5.6,3.3-7.9,8.6-8.7,14c2.1-1.2,4.6-1.9,7.3-1.9h10.6

				c8.3,0,14.8,6.5,14.8,14.8v8.9c0,8.3-6.5,14.8-14.8,14.8L2004.3,1186.4L2004.3,1186.4z M2004.3,1155.1c-4.2,0-7.7,3.5-7.7,7.7

				v8.9c0,4.2,3.5,7.7,7.7,7.7h10.6c4.2,0,7.7-3.5,7.7-7.7v-8.9c0-4.2-3.5-7.7-7.7-7.7H2004.3z"/>

			<path class="st2" d="M2083.5,1185.5c-0.9-0.8-1.9-1.6-3-3.1c-2.2,2-5.6,4-10.1,4h-11.2c-8.6,0-14.2-5.1-14.2-13

				c0-5.6,3.3-11.5,12.5-12.9l20.6-3.1v-1.1c0-3.9-3.2-7.1-7.1-7.1h-10c-3,0-5.7,1.9-6.7,4.7c-0.5,1.4-1.9,2.4-3.4,2.4

				c-2,0-3.5-1.5-3.5-3.5c0-0.4,0.1-0.8,0.3-1.4c2.2-5.7,7.4-9.3,13.3-9.3h10c8.1,0,14.2,6.1,14.2,14.2v17.1c0,4.2,1.3,5.3,2.9,6.8

				c0.9,0.8,1.3,1.7,1.3,2.7c0,2-1.5,3.5-3.5,3.5C2085,1186.4,2084.3,1186.1,2083.5,1185.5z M2059.2,1179.3h11.2

				c4.2,0,7.7-3.5,7.7-7.7v-7.2l-19.6,3c-4.9,0.8-6.4,3.6-6.4,6C2052.1,1177.3,2054.7,1179.3,2059.2,1179.3z"/>

		</g>

	</g>

</g>

<circle class="st3" cx="336.2" cy="1099.4" r="5" id="200" nbgh="229,201" hn=""/>

<circle class="st3" cx="569.4" cy="1331.6" r="5" id="201" nbgh="200,202" hn="25"/>

<circle class="st3" cx="770.4" cy="1537.8" r="5" id="202" nbgh="201,203" hn=""/>

<circle class="st3" cx="844.5" cy="1630.5" r="5" id="203" nbgh="202,204,230" hn="24"/>

<circle class="st3" cx="978" cy="1750.2" r="5" id="204" nbgh="203,205" hn=""/>

<circle class="st3" cx="1063" cy="1840.3" r="5" id="205" nbgh="204,206" hn=""/>

<circle class="st3" cx="1274.3" cy="2052.5" r="5" id="206" nbgh="205,207" hn="27"/>

<circle class="st3" cx="1461.9" cy="2231.5" r="5" id="207" nbgh="206,208" hn=""/>

<circle class="st3" cx="1581" cy="2348" r="5" id="208" nbgh="207,209" hn="22"/>

<circle class="st3" cx="1721.4" cy="2275.9" r="5" id="209" nbgh="208,210" hn=""/>

<circle class="st3" cx="1966.1" cy="2153" r="5" id="210" nbgh="209,212" hn="21"/>

<circle class="st3" cx="2402.4" cy="2115" r="5" id="211" nbgh="212" hn="20"/>

<circle class="st3" cx="2299.4" cy="1989.8" r="5" id="212" nbgh="210,211,213" hn="19"/>

<circle class="st3" cx="2489.4" cy="1897.7" r="5" id="213" nbgh="212,214" hn="18"/>

<circle class="st3" cx="2774.7" cy="1672.4" r="5" id="214" nbgh="213,215" hn=""/>

<circle class="st3" cx="2862.9" cy="1640.3" r="5" id="215" nbgh="214,216" hn=""/>

<circle class="st3" cx="2701.5" cy="1516.4" r="5" id="216" nbgh="215,217" hn=""/>

<circle class="st3" cx="2611.1" cy="1277.2" r="5" id="217" nbgh="216,218" hn="17"/>

<circle class="st3" cx="2413.4" cy="1065.2" r="5" id="218" nbgh="217,219" hn=""/>

<circle class="st3" cx="2325.1" cy="975" r="5" id="219" nbgh="218,220" hn=""/>

<circle class="st3" cx="2100.4" cy="774.4" r="5" id="220" nbgh="234,219,221" hn=""/>

<circle class="st3" cx="1952.7" cy="604.2" r="5" id="221" nbgh="222,220" hn="29"/>

<circle class="st3" cx="1749.7" cy="428.8" r="5" id="222" nbgh="221,223" hn=""/>

<circle class="st3" cx="1663.6" cy="337.4" r="5" id="223" nbgh="222,224" hn=""/>

<circle class="st3" cx="1578.2" cy="223" r="5" id="224" nbgh="223,225" hn="28"/>

<circle class="st3" cx="1166.9" cy="464.2" r="5" id="225" nbgh="224,226" hn="28"/>

<circle class="st3" cx="994.3" cy="542.7" r="5" id="226" nbgh="225,227" hn=""/>

<circle class="st3" cx="796.6" cy="683.5" r="5" id="227" nbgh="226,228" hn="27"/>

<circle class="st3" cx="562.3" cy="825.6" r="5" id="228" nbgh="227,229" hn="26"/>

<circle class="st3" cx="301.7" cy="979.6" r="5" id="229" nbgh="228,200" hn="26"/>

<circle class="st3" cx="1381.5" cy="1334.4" r="5" id="230" nbgh="203,231" hn="24"/>

<circle class="st3" cx="1560.8" cy="1238.9" r="5" id="231" nbgh="230,232,240,234" hn=""/>

<circle class="st3" cx="1443" cy="1151.7" r="5" id="232" nbgh="231,233" hn=""/>

<circle class="st3" cx="1018.2" cy="713.6" r="5" id="233" nbgh="232" hn="233"/>

<circle class="st3" cx="1935.7" cy="1015.7" r="5" id="234" nbgh="231,235,220" hn="16"/>

<circle class="st3" cx="2027.1" cy="1119.9" r="5" id="235" nbgh="234,236" hn=""/>

<circle class="st3" cx="2045" cy="1164.8" r="5" id="236" nbgh="235,237" hn="16a"/>

<circle class="st3" cx="2160.2" cy="1114.4" r="5" id="237" nbgh="236,238" hn=""/>

<circle class="st3" cx="2253.6" cy="1267" r="5" id="238" nbgh="237,239" hn=""/>

<circle class="st3" cx="2390.3" cy="1518.3" r="5" id="239" nbgh="238" hn=""/>

<circle class="st3" cx="1669" cy="1400" r="7.5" id="240" nbgh="231" hn=""/>

<line class="st" x1="1669.0" y1="1400.0" x2="1560.8" y2="1238.9"/>
<line class="st" x1="1560.8" y1="1238.9" x2="1935.7" y2="1015.7"/>
<line class="st" x1="1935.7" y1="1015.7" x2="2100.4" y2="774.4"/>
<line class="st" x1="2100.4" y1="774.4" x2="1952.7" y2="604.2"/>
<line class="st" x1="1952.7" y1="604.2" x2="1749.7" y2="428.8"/>
<line class="st" x1="1749.7" y1="428.8" x2="1663.6" y2="337.4"/>
<line class="st" x1="1663.6" y1="337.4" x2="1578.2" y2="223.0"/>
</svg>