<?xml version="1.0" encoding="utf-8"?>

<!-- Generator: Adobe Illustrator 22.0.1, SVG Export Plug-In . SVG Version: 6.00 Build 0)  -->

<svg version="1.1" id="Layer_1" xmlns="http://www.w3.org/2000/svg" xmlns:xlink="http://www.w3.org/1999/xlink" x="0px" y="0px"

	 viewBox="0 0 3203.9 2322.7" style="enable-background:new 0 0 3203.9 2322.7;" xml:space="preserve">

<style type="text/css">

	.st0{fill:#FFFFFF;}

	.st1{fill:none;stroke:#939393;stroke-width:6;stroke-linecap:round;stroke-linejoin:round;stroke-miterlimit:10;}

	.st2{fill:#939393;}

	.st3{stroke:#ffffff;stroke-miterlimit:10;}

	.st{stroke:purple;fill:red;fill-opacity:0.5;stroke-opacity:0.25;stroke-width:30;stroke-linecap:round;}

</style>

<g id="Background">

	<polygon class="st0" points="1560.8,197.1 1904.1,0 3203.9,1300.8 3203.9,1376.8 1556,2322.7 0,765.5 0,689.6 343.4,492.5 

		946.8,1096.4 1159.2,974.4 860.2,675.2 860.2,599.2 1300.1,346.7 1647.4,694.2 1647.4,771.4 1627.3,781.7 1734.1,888.6 

		2060.5,701.2 1953.8,594.4 1908.1,620.6 1560.8,273.1 	"/>

</g>

<g id="Halls">

	<polygon class="st0" points="1980.9,1013.9 1981.8,1016.5 1983.6,1018.8 1986.1,1020.8 1989.2,1022.1 1992.6,1022.8 1996.2,1022.9 

		1999.6,1022.2 2002.7,1020.8 2005.3,1019 2007.1,1016.6 2008,1014 2008,1011.3 2008,983 2035.9,967 2035.9,982.3 2036.8,985 

		2038.5,987.3 2041,989.2 2044.1,990.6 2047.6,991.3 2051.1,991.3 2054.6,990.6 2057.7,989.3 2060.2,987.4 2062,985.1 2063,982.5 

		2063,979.8 2063,951.4 2090.8,935.4 2090.8,950.8 2091.7,953.4 2093.5,955.8 2096,957.7 2099.1,959.1 2102.5,959.8 2106.1,959.8 

		2109.5,959.1 2112.6,957.8 2115.2,955.9 2117,953.5 2117.9,950.9 2117.9,948.2 2117.9,919.9 2180.2,884.1 2180.2,964.1 

		2180.3,964.2 2180.3,964.2 2349.5,1133.5 2440.4,1081.4 2598.1,1239.2 2524.5,1281.4 2524.5,1357.4 2466.2,1390.8 2466.2,1314.8 

		2352.8,1380 2273.6,1425.4 2253.9,1405.7 2255.2,1405.1 2257.8,1403.2 2259.5,1400.9 2260.5,1398.2 2260.5,1322.3 2260.5,1319.5 

		2259.5,1316.9 2257.8,1314.6 2255.2,1312.7 2252.1,1311.3 2248.7,1310.6 2245.1,1310.6 2241.7,1311.3 2238.6,1312.7 2236.1,1314.6 

		2234.3,1317 2233.4,1319.6 2233.4,1322.3 2233.4,1385.2 2185.8,1337.5 2187.1,1337 2189.6,1335 2191.4,1332.7 2192.3,1330.1 

		2192.3,1254.1 2192.3,1251.4 2191.4,1248.8 2189.6,1246.4 2187.1,1244.5 2184,1243.2 2180.6,1242.5 2177,1242.5 2173.6,1243.2 

		2170.5,1244.5 2168,1246.4 2166.2,1248.8 2165.3,1251.4 2165.3,1254.1 2165.3,1317 2117.7,1269.4 2119.1,1268.8 2121.6,1266.8 

		2123.4,1264.5 2124.3,1261.9 2124.3,1185.9 2124.3,1183.2 2123.4,1180.6 2121.6,1178.2 2119.1,1176.3 2116,1175 2112.6,1174.3 

		2109,1174.3 2105.6,1175 2102.5,1176.3 2099.9,1178.3 2098.2,1180.6 2097.2,1183.2 2097.2,1185.9 2097.2,1249 2048,1199.7 

		2048,1123.7 1944.1,1019.7 1980.9,998.5 	"/>

	<polygon class="st0" points="1748.8,1480.9 1749.4,1480.6 1798,1529.3 1798,1540.9 1798.9,1543.5 1800.7,1545.9 1803.2,1547.8 

		1806.3,1549.1 1809.8,1549.8 1813.3,1549.8 1816.8,1549.1 1817.5,1548.8 1866.1,1597.4 1866.1,1609.1 1867,1611.7 1868.8,1614 

		1871.3,1615.9 1874.4,1617.3 1877.9,1618 1881.4,1618 1884.9,1617.3 1885.6,1617 1905.4,1636.7 1887.2,1647.2 1859.6,1663 

		1763,1566.4 1678.4,1614.9 1340,1276.3 1420.6,1230 1470.4,1201.4 1525.6,1256.7 1525.7,1268.2 1526.6,1270.8 1528.4,1273.2 

		1530.9,1275.1 1534,1276.5 1537.4,1277.2 1541,1277.2 1544.4,1276.4 1545.1,1276.2 1593.7,1324.8 1593.7,1336.4 1594.6,1339 

		1596.4,1341.4 1598.9,1343.3 1602,1344.6 1605.4,1345.3 1609,1345.3 1612.5,1344.6 1613.2,1344.3 1661.8,1393 1661.8,1404.6 

		1662.7,1407.2 1664.5,1409.5 1667,1411.5 1670.1,1412.8 1673.6,1413.5 1677.1,1413.5 1680.6,1412.8 1681.3,1412.5 1730,1461.2 

		1730,1472.7 1730.9,1475.3 1732.7,1477.7 1735.2,1479.6 1738.3,1480.9 1741.8,1481.6 1745.3,1481.6 	"/>

	<polygon class="st0" points="2484.1,1049.1 2376.9,856.3 2355.1,834.5 2379.4,820.5 2379.4,744.5 2306.8,786.2 2295.4,774.8 

		2271.1,750.4 2265.6,745 2289.9,731 2348.2,697.6 2460.7,633 2501.9,674.2 2437.6,711.1 2437.6,787.1 2550.1,722.5 2895.7,1068.3 

		2831.4,1105.2 2831.4,1181.2 2773.2,1214.6 2773.2,1138.6 2646.3,1211.5 	"/>

	<polygon class="st0" points="2289.9,655 2217.4,696.7 2163.1,642.3 2108.8,673.5 2002,566.7 2062.9,531.7 2121.4,498.2 

		2251.4,423.5 2412.4,584.7 2348.2,621.6 2348.2,697.6 2289.9,731 	"/>

	<polygon class="st0" points="343.4,568.5 461.9,687 358.2,746.5 358.2,822.5 296.8,857.8 296.8,781.8 166.8,856.4 48.3,737.8 	"/>

	<polygon class="st0" points="510.1,735.3 898.6,1124.1 794.9,1183.6 794.9,1259.6 733.5,1294.8 733.5,1218.8 603.5,1293.4 

		215,904.7 296.8,857.8 358.2,822.5 	"/>

	<path class="st0" d="M1346,576.2l104.2,104.3v-76L1346,500.2V576.2z M1042.7,750.3l104.2,104.3v-76l-104.2-104.3V750.3z

		 M1206.1,798.2l156.6-89.9v-76L1258.5,528l-156.6,89.9v76L1206.1,798.2z M1280.1,434.2l20-11.5l299,299.3l-20,11.5l-86.1-86.2v76

		l37.9,37.9l-72.7,41.7v76l120.9-69.4l56.4,56.4l-60.5,34.7v76l-85.8,49.2v-76l-108.8,62.4l-56.4-56.4l72.7-41.7v-76l-120.9,69.4

		l-86.1-86.2v76l37.9,37.9l-20,11.5l-299-299.3l20-11.5l71.5,71.6v-76l-23.2-23.3l255-146.4l71.5,71.6v-76L1280.1,434.2z"/>

	<polygon class="st0" points="2944,1116.6 3155.6,1328.5 2612.7,1640.1 2401,1428.2 2466.2,1390.8 2524.5,1357.4 2646.3,1287.5 

		2773.2,1214.6 2831.4,1181.2 	"/>

	<polygon class="st0" points="1904.1,76 2203.1,375.2 2121.4,422.2 2121.4,498.2 2062.9,531.7 2062.9,455.7 1953.8,518.4 

		1908.1,544.6 1609,245.4 	"/>

	<polygon class="st0" points="1130.7,1066.8 1291.8,1228 1110.4,1332.1 1072.4,1353.8 1072.4,1294.1 949.4,1170.9 	"/>

	<polygon class="st0" points="1340,1391.6 1673.3,1725.2 1670.7,1726.6 1670.7,1749.7 1638.8,1768 1638.8,1789.8 1593.7,1815.7 

		1231.9,1453.7 	"/>

	<polygon class="st0" points="651.7,1341.7 733.5,1294.8 794.9,1259.6 901.1,1198.6 939.1,1236.6 1062.1,1359.8 997.9,1396.6 

		997.9,1472.6 939.6,1506.1 939.6,1430.1 812.8,1502.9 	"/>

	<polygon class="st0" points="950.4,1640.7 1029.1,1595.6 1087.3,1562.1 1199.8,1497.5 1545.4,1843.4 1481.2,1880.3 1481.2,1956.2 

		1422.9,1989.7 1422.9,1913.7 1296,1986.5 	"/>

	<polygon class="st0" points="1344.3,2034.8 1422.9,1989.7 1481.2,1956.2 1593.7,1891.7 1887.2,1723.2 2098.9,1935 1556,2246.7 	"/>

	<polygon class="st0" points="939.1,1236.6 901.1,1198.6 939.1,1176.8 	"/>

	<polygon class="st0" points="1150.1,666.2 1258.4,604 1314.4,660 1206.1,722.2 	"/>

	<path class="st0" d="M1478.8,1196.6l115-66v-76l-115,66V1196.6z M1029.1,1595.6v-76l-126.9,72.8l-41.2-41.2l78.6-45.1l58.3-33.4

		l112.5-64.6l41.2,41.2l-64.2,36.9v76L1029.1,1595.6z"/>

</g>

<g id="Plan">

	<g>

		<line class="st1" x1="1206.1" y1="798.2" x2="1362.6" y2="708.3"/>

		<line class="st1" x1="1150.1" y1="666.2" x2="1258.4" y2="604"/>

		<line class="st1" x1="1314.4" y1="660" x2="1258.4" y2="604"/>

		<line class="st1" x1="1206.1" y1="798.2" x2="1101.8" y2="693.9"/>

		<line class="st1" x1="2343.7" y1="892.3" x2="2343.7" y2="869.3"/>

		<line class="st1" x1="2367.9" y1="939.6" x2="2367.9" y2="916.5"/>

		<line class="st1" x1="2392" y1="986.8" x2="2392" y2="963.8"/>

		<line class="st1" x1="2416.2" y1="1011" x2="2392" y2="986.8"/>

		<line class="st1" x1="2319.6" y1="822" x2="2295.4" y2="797.8"/>

		<line class="st1" x1="2319.6" y1="845.1" x2="2319.6" y2="822"/>

		<line class="st1" x1="2343.7" y1="869.3" x2="2319.6" y2="845.1"/>

		<line class="st1" x1="2392" y1="963.8" x2="2367.9" y2="939.6"/>

		<line class="st1" x1="2416.2" y1="1034.1" x2="2416.2" y2="1011"/>

		<line class="st1" x1="2367.9" y1="916.5" x2="2343.7" y2="892.3"/>

		<line class="st1" x1="2295.4" y1="774.8" x2="2271.1" y2="750.4"/>

		<line class="st1" x1="2295.4" y1="797.8" x2="2295.4" y2="774.8"/>

		<line class="st1" x1="2440.4" y1="1058.3" x2="2416.2" y2="1034.1"/>

		<line class="st1" x1="2440.4" y1="1081.4" x2="2440.4" y2="1058.3"/>

		<line class="st1" x1="1478.8" y1="1196.6" x2="1593.9" y2="1130.5"/>

		<path class="st1" d="M1469.5,1521.1L1340,1391.6 M1673.3,1725.2l-115.1-115.1"/>

		<line class="st1" x1="2437.6" y1="787.1" x2="2550.1" y2="722.5"/>

		<line class="st1" x1="2355.1" y1="834.5" x2="2379.4" y2="820.5"/>

		<line class="st1" x1="1458.1" y1="878.9" x2="1579.1" y2="809.4"/>

		<line class="st1" x1="1000" y1="707.5" x2="928.5" y2="636"/>

		<line class="st1" x1="1227.5" y1="935.2" x2="1189.6" y2="897.3"/>

		<line class="st1" x1="1146.9" y1="854.6" x2="1042.7" y2="750.3"/>

		<line class="st1" x1="1450.2" y1="680.5" x2="1346" y2="576.2"/>

		<line class="st1" x1="1303.3" y1="533.4" x2="1231.8" y2="461.9"/>

		<line class="st1" x1="1530.8" y1="761.1" x2="1492.9" y2="723.2"/>

		<line class="st1" x1="1324.1" y1="955.8" x2="1396.7" y2="914.1"/>

		<line class="st1" x1="1985.4" y1="1562.1" x2="2133.2" y2="1477.3"/>

		<line class="st1" x1="1787.2" y1="1636.7" x2="1787.2" y2="1613.6"/>

		<line class="st1" x1="1787.2" y1="1613.6" x2="1763" y2="1589.4"/>

		<line class="st1" x1="1763" y1="1589.4" x2="1763" y2="1566.4"/>

		<line class="st1" x1="1984.2" y1="1690.6" x2="2016.1" y2="1672.3"/>

		<line class="st1" x1="1964.8" y1="1724.8" x2="1984.2" y2="1713.7"/>

		<line class="st1" x1="2016.1" y1="1672.3" x2="2016.1" y2="1649.2"/>

		<line class="st1" x1="2349.5" y1="1133.5" x2="2440.4" y2="1081.4"/>

		<line class="st1" x1="2180.3" y1="964.2" x2="2180.2" y2="964.1"/>

		<line class="st1" x1="2258" y1="1531.1" x2="2281.2" y2="1517.8"/>

		<line class="st1" x1="2294.4" y1="1531" x2="2317.6" y2="1517.7"/>

		<line class="st1" x1="2330.8" y1="1530.9" x2="2353.9" y2="1517.6"/>

		<line class="st1" x1="2367.1" y1="1530.8" x2="2390.3" y2="1517.5"/>

		<line class="st1" x1="1258.4" y1="604" x2="1258.4" y2="528"/>

		<line class="st1" x1="1206.1" y1="798.2" x2="1206.1" y2="722.2"/>

		<line class="st1" x1="1362.6" y1="708.3" x2="1362.6" y2="632.3"/>

		<line class="st1" x1="1258.4" y1="528" x2="1101.8" y2="617.9"/>

		<line class="st1" x1="1101.8" y1="693.9" x2="1101.8" y2="617.9"/>

		<line class="st1" x1="1362.6" y1="632.3" x2="1258.4" y2="528"/>

		<line class="st1" x1="3155.6" y1="1328.5" x2="2944" y2="1116.6"/>

		<line class="st1" x1="0" y1="689.6" x2="0" y2="765.5"/>

		<line class="st1" x1="0" y1="765.5" x2="166.8" y2="932.4"/>

		<line class="st1" x1="3203.9" y1="1300.8" x2="3203.9" y2="1376.8"/>

		<line class="st1" x1="1556" y1="2322.7" x2="1556" y2="2246.7"/>

		<line class="st1" x1="1556" y1="2322.7" x2="2147.1" y2="1983.3"/>

		<line class="st1" x1="3203.9" y1="1376.8" x2="2612.7" y2="1716.1"/>

		<line class="st1" x1="946.8" y1="1096.4" x2="510.1" y2="659.3"/>

		<line class="st1" x1="343.4" y1="492.5" x2="343.4" y2="568.5"/>

		<line class="st1" x1="343.4" y1="568.5" x2="461.9" y2="687"/>

		<line class="st1" x1="343.4" y1="568.5" x2="48.3" y2="737.8"/>

		<line class="st1" x1="0" y1="689.6" x2="343.4" y2="492.5"/>

		<line class="st1" x1="946.8" y1="1096.4" x2="1130.7" y2="990.8"/>

		<line class="st1" x1="1207.5" y1="1022.7" x2="1179" y2="1039.1"/>

		<line class="st1" x1="1159.2" y1="974.4" x2="860.2" y2="675.2"/>

		<line class="st1" x1="510.1" y1="659.3" x2="343.4" y2="492.5"/>

		<line class="st1" x1="510.1" y1="735.3" x2="898.6" y2="1124.1"/>

		<line class="st1" x1="510.1" y1="659.3" x2="510.1" y2="735.3"/>

		<line class="st1" x1="166.8" y1="932.4" x2="603.5" y2="1369.4"/>

		<line class="st1" x1="510.1" y1="735.3" x2="358.2" y2="822.5"/>

		<line class="st1" x1="603.5" y1="1369.4" x2="812.8" y2="1578.9"/>

		<line class="st1" x1="860.2" y1="599.2" x2="928.5" y2="560"/>

		<line class="st1" x1="860.2" y1="675.2" x2="860.2" y2="599.2"/>

		<line class="st1" x1="1300.1" y1="422.7" x2="1280.1" y2="434.2"/>

		<line class="st1" x1="1300.1" y1="422.7" x2="1300.1" y2="346.7"/>

		<line class="st1" x1="1300.1" y1="346.7" x2="1647.4" y2="694.2"/>

		<line class="st1" x1="1647.4" y1="694.2" x2="1647.4" y2="770.2"/>

		<line class="st1" x1="1599.1" y1="721.9" x2="1300.1" y2="422.7"/>

		<line class="st1" x1="1275.8" y1="907.5" x2="1275.8" y2="983.5"/>

		<line class="st1" x1="1275.8" y1="983.5" x2="1207.5" y2="1022.7"/>

		<line class="st1" x1="2323.5" y1="1806.1" x2="2147.1" y2="1907.3"/>

		<line class="st1" x1="2436.3" y1="1817.3" x2="2612.7" y2="1716.1"/>

		<line class="st1" x1="1296" y1="2062.5" x2="1556" y2="2322.7"/>

		<line class="st1" x1="1110.4" y1="1408" x2="1151.6" y2="1449.3"/>

		<line class="st1" x1="1593.7" y1="1891.7" x2="1481.2" y2="1956.2"/>

		<line class="st1" x1="812.8" y1="1578.9" x2="902.2" y2="1668.4"/>

		<line class="st1" x1="1110.4" y1="1408" x2="997.9" y2="1472.6"/>

		<line class="st1" x1="902.2" y1="1668.4" x2="1296" y2="2062.5"/>

		<line class="st1" x1="2163.1" y1="803.8" x2="1819" y2="1001.3"/>

		<line class="st1" x1="2163.1" y1="803.8" x2="2180.2" y2="821"/>

		<line class="st1" x1="2289.9" y1="731" x2="2265.6" y2="745"/>

		<line class="st1" x1="2217.4" y1="696.7" x2="2289.9" y2="655"/>

		<line class="st1" x1="2460.7" y1="633" x2="2348.2" y2="697.6"/>

		<line class="st1" x1="2412.4" y1="584.7" x2="2251.4" y2="423.5"/>

		<line class="st1" x1="2895.7" y1="1068.3" x2="2550.1" y2="722.5"/>

		<line class="st1" x1="2460.7" y1="557" x2="2550.1" y2="646.5"/>

		<line class="st1" x1="2550.1" y1="646.5" x2="2944" y2="1040.6"/>

		<line class="st1" x1="2440.4" y1="1081.4" x2="2598.1" y2="1239.2"/>

		<line class="st1" x1="2944" y1="1116.6" x2="2831.4" y2="1181.2"/>

		<line class="st1" x1="2944" y1="1040.6" x2="3203.9" y2="1300.8"/>

		<line class="st1" x1="1560.8" y1="197.1" x2="1904.1" y2="0"/>

		<line class="st1" x1="1560.8" y1="273.1" x2="1560.8" y2="197.1"/>

		<line class="st1" x1="1904.1" y1="0" x2="2251.4" y2="347.5"/>

		<line class="st1" x1="2203.1" y1="375.2" x2="1904.1" y2="76"/>

		<line class="st1" x1="2251.4" y1="347.5" x2="2460.7" y2="557"/>

		<line class="st1" x1="1908.1" y1="544.6" x2="1908.1" y2="620.6"/>

		<line class="st1" x1="1908.1" y1="620.6" x2="1560.8" y2="273.1"/>

		<line class="st1" x1="1908.1" y1="544.6" x2="1953.8" y2="518.4"/>

		<line class="st1" x1="1953.8" y1="594.4" x2="1908.1" y2="620.6"/>

		<line class="st1" x1="1953.8" y1="518.4" x2="2062.9" y2="455.7"/>

		<line class="st1" x1="2060.5" y1="701.2" x2="1953.8" y2="594.4"/>

		<line class="st1" x1="1953.8" y1="594.4" x2="1953.8" y2="518.4"/>

		<line class="st1" x1="1275.8" y1="983.5" x2="1380.4" y2="1088.3"/>

		<line class="st1" x1="2944" y1="1040.6" x2="2944" y2="1116.6"/>

		<line class="st1" x1="2376.9" y1="856.3" x2="2484.1" y2="1049.1"/>

		<line class="st1" x1="2062.9" y1="531.7" x2="2062.9" y2="455.7"/>

		<line class="st1" x1="2062.9" y1="531.7" x2="2002" y2="566.7"/>

		<line class="st1" x1="2176.4" y1="1481.2" x2="2176.4" y2="1557.2"/>

		<line class="st1" x1="2063.6" y1="1545.9" x2="2063.6" y2="1621.9"/>

		<line class="st1" x1="2323.5" y1="1806.1" x2="2323.5" y2="1882.1"/>

		<line class="st1" x1="2436.3" y1="1741.3" x2="2436.3" y2="1817.3"/>

		<line class="st1" x1="1130.7" y1="990.8" x2="1130.7" y2="1066.8"/>

		<path class="st1" d="M1130.7,1066.8l102.8,102.9 M1280.4,1216.6l11.4,11.4"/>

		<line class="st1" x1="1130.7" y1="1066.8" x2="949.4" y2="1170.9"/>

		<line class="st1" x1="1340" y1="1276.3" x2="1340" y2="1391.6"/>

		<line class="st1" x1="1231.9" y1="1453.7" x2="1340" y2="1391.6"/>

		<line class="st1" x1="2048" y1="1199.7" x2="1895.8" y2="1047.4"/>

		<line class="st1" x1="2048" y1="1199.7" x2="2048" y2="1123.7"/>

		<line class="st1" x1="1683.7" y1="838.2" x2="1683.7" y2="914.2"/>

		<line class="st1" x1="1635.5" y1="865.9" x2="1579.1" y2="809.4"/>

		<line class="st1" x1="1579.1" y1="809.4" x2="1579.1" y2="733.4"/>

		<line class="st1" x1="1647.4" y1="770.2" x2="1627.3" y2="781.7"/>

		<line class="st1" x1="1683.7" y1="914.2" x2="1716.4" y2="946.9"/>

		<line class="st1" x1="1734.1" y1="888.6" x2="1683.7" y2="838.2"/>

		<line class="st1" x1="1340" y1="1200.3" x2="1420.6" y2="1154"/>

		<line class="st1" x1="1683.7" y1="914.2" x2="1575" y2="976.6"/>

		<line class="st1" x1="1575" y1="900.6" x2="1575" y2="976.6"/>

		<line class="st1" x1="1489.2" y1="1025.8" x2="1380.4" y2="1088.3"/>

		<line class="st1" x1="1489.2" y1="949.8" x2="1489.2" y2="1025.8"/>

		<line class="st1" x1="1380.4" y1="1012.3" x2="1380.4" y2="1088.3"/>

		<line class="st1" x1="1380.4" y1="1012.3" x2="1489.2" y2="949.8"/>

		<line class="st1" x1="1478.8" y1="1120.6" x2="1593.9" y2="1054.6"/>

		<line class="st1" x1="1593.9" y1="1054.6" x2="1593.9" y2="1130.5"/>

		<line class="st1" x1="1478.8" y1="1120.6" x2="1478.8" y2="1196.6"/>

		<line class="st1" x1="1887.2" y1="1723.2" x2="1593.7" y2="1891.7"/>

		<line class="st1" x1="1678.4" y1="1614.9" x2="1340" y2="1276.3"/>

		<line class="st1" x1="1904.1" y1="76" x2="1904.1" y2="0"/>

		<line class="st1" x1="2121.4" y1="422.2" x2="2121.4" y2="498.2"/>

		<line class="st1" x1="2121.4" y1="498.2" x2="2251.4" y2="423.5"/>

		<line class="st1" x1="2251.4" y1="423.5" x2="2251.4" y2="347.5"/>

		<line class="st1" x1="2437.6" y1="711.1" x2="2437.6" y2="787.1"/>

		<line class="st1" x1="2550.1" y1="722.5" x2="2550.1" y2="646.5"/>

		<line class="st1" x1="2460.7" y1="633" x2="2460.7" y2="557"/>

		<line class="st1" x1="950.4" y1="1640.7" x2="1029.1" y2="1595.6"/>

		<line class="st1" x1="1029.1" y1="1519.6" x2="902.2" y2="1592.4"/>

		<line class="st1" x1="733.5" y1="1218.8" x2="603.5" y2="1293.4"/>

		<line class="st1" x1="733.5" y1="1218.8" x2="733.5" y2="1294.8"/>

		<line class="st1" x1="733.5" y1="1294.8" x2="651.7" y2="1341.7"/>

		<line class="st1" x1="296.8" y1="781.8" x2="166.8" y2="856.4"/>

		<line class="st1" x1="296.8" y1="857.8" x2="296.8" y2="781.8"/>

		<line class="st1" x1="296.8" y1="857.8" x2="215" y2="904.7"/>

		<line class="st1" x1="861" y1="1551.2" x2="939.6" y2="1506.1"/>

		<line class="st1" x1="939.6" y1="1430.1" x2="939.6" y2="1506.1"/>

		<line class="st1" x1="939.6" y1="1430.1" x2="812.8" y2="1502.9"/>

		<line class="st1" x1="1344.3" y1="2034.8" x2="1422.9" y2="1989.7"/>

		<line class="st1" x1="1422.9" y1="1913.7" x2="1422.9" y2="1989.7"/>

		<line class="st1" x1="1296" y1="1986.5" x2="1422.9" y2="1913.7"/>

		<line class="st1" x1="1481.2" y1="1956.2" x2="1481.2" y2="1880.3"/>

		<line class="st1" x1="358.2" y1="746.5" x2="358.2" y2="822.5"/>

		<line class="st1" x1="997.9" y1="1396.6" x2="997.9" y2="1472.6"/>

		<line class="st1" x1="2379.4" y1="744.5" x2="2379.4" y2="820.5"/>

		<line class="st1" x1="2289.9" y1="655" x2="2289.9" y2="731"/>

		<line class="st1" x1="2501.9" y1="674.2" x2="2460.7" y2="633"/>

		<line class="st1" x1="794.9" y1="1183.6" x2="794.9" y2="1259.6"/>

		<line class="st1" x1="1029.1" y1="1519.6" x2="1029.1" y2="1595.6"/>

		<line class="st1" x1="2348.2" y1="621.6" x2="2348.2" y2="697.6"/>

		<line class="st1" x1="1199.8" y1="1497.5" x2="1087.3" y2="1562.1"/>

		<line class="st1" x1="1087.3" y1="1486.1" x2="1087.3" y2="1562.1"/>

		<line class="st1" x1="1199.8" y1="1497.5" x2="1199.8" y2="1421.5"/>

		<line class="st1" x1="1199.8" y1="1497.5" x2="1545.4" y2="1843.4"/>

		<line class="st1" x1="1904.1" y1="76" x2="1609" y2="245.4"/>

		<line class="st1" x1="2306.8" y1="786.2" x2="2379.4" y2="744.5"/>

		<line class="st1" x1="2773.2" y1="1138.6" x2="2773.2" y2="1214.6"/>

		<line class="st1" x1="2646.3" y1="1211.5" x2="2773.2" y2="1138.6"/>

		<line class="st1" x1="2773.2" y1="1214.6" x2="2646.3" y2="1287.5"/>

		<line class="st1" x1="2831.4" y1="1105.2" x2="2831.4" y2="1181.2"/>

		<line class="st1" x1="2646.3" y1="1211.5" x2="2484.1" y2="1049.1"/>

		<line class="st1" x1="1420.6" y1="1230" x2="1340" y2="1276.3"/>

		<line class="st1" x1="1420.6" y1="1154" x2="1420.6" y2="1230"/>

		<line class="st1" x1="2466.2" y1="1314.8" x2="2466.2" y2="1390.8"/>

		<line class="st1" x1="2524.5" y1="1281.4" x2="2524.5" y2="1357.4"/>

		<line class="st1" x1="2466.2" y1="1314.8" x2="2352.8" y2="1380"/>

		<line class="st1" x1="2524.5" y1="1357.4" x2="2646.3" y2="1287.5"/>

		<line class="st1" x1="1895.8" y1="1047.4" x2="1895.8" y2="971.4"/>

		<line class="st1" x1="1887.2" y1="1647.2" x2="1887.2" y2="1723.2"/>

		<line class="st1" x1="2147.1" y1="1983.3" x2="2323.5" y2="1882.1"/>

		<line class="st1" x1="2352.8" y1="1380" x2="2352.8" y2="1455.9"/>

		<line class="st1" x1="1110.4" y1="1332.1" x2="1110.4" y2="1408"/>

		<line class="st1" x1="1072.4" y1="1294.1" x2="1072.4" y2="1353.8"/>

		<line class="st1" x1="1062.1" y1="1359.8" x2="939.1" y2="1236.6"/>

		<line class="st1" x1="928.5" y1="636" x2="908.5" y2="647.5"/>

		<line class="st1" x1="928.5" y1="560" x2="1231.8" y2="385.9"/>

		<line class="st1" x1="928.5" y1="636" x2="928.5" y2="560"/>

		<line class="st1" x1="1231.8" y1="385.9" x2="1300.1" y2="346.7"/>

		<line class="st1" x1="1231.8" y1="461.9" x2="976.8" y2="608.3"/>

		<line class="st1" x1="1231.8" y1="385.9" x2="1231.8" y2="461.9"/>

		<line class="st1" x1="1146.9" y1="854.6" x2="1146.9" y2="778.6"/>

		<line class="st1" x1="1189.6" y1="897.3" x2="1189.6" y2="821.3"/>

		<line class="st1" x1="1189.6" y1="821.3" x2="1275.8" y2="907.5"/>

		<line class="st1" x1="1042.7" y1="750.3" x2="1042.7" y2="674.3"/>

		<line class="st1" x1="1000" y1="707.5" x2="1000" y2="631.5"/>

		<line class="st1" x1="1042.7" y1="674.3" x2="1146.9" y2="778.6"/>

		<line class="st1" x1="1346" y1="576.2" x2="1346" y2="500.2"/>

		<line class="st1" x1="1450.2" y1="604.5" x2="1346" y2="500.2"/>

		<line class="st1" x1="1303.3" y1="533.4" x2="1303.3" y2="457.5"/>

		<line class="st1" x1="1492.9" y1="723.2" x2="1492.9" y2="647.2"/>

		<line class="st1" x1="1579.1" y1="733.4" x2="1492.9" y2="647.2"/>

		<line class="st1" x1="1450.2" y1="680.5" x2="1450.2" y2="604.5"/>

		<line class="st1" x1="1396.7" y1="838.1" x2="1396.7" y2="914.1"/>

		<line class="st1" x1="1458.1" y1="802.9" x2="1458.1" y2="878.9"/>

		<line class="st1" x1="1396.7" y1="838.1" x2="1275.8" y2="907.5"/>

		<line class="st1" x1="2036.6" y1="1288.3" x2="1888.8" y2="1373.1"/>

		<line class="st1" x1="1864.6" y1="1325.9" x2="1864.6" y2="1302.8"/>

		<line class="st1" x1="2084.9" y1="1359.7" x2="1937.1" y2="1444.5"/>

		<line class="st1" x1="1961.2" y1="1491.8" x2="1937.1" y2="1467.6"/>

		<line class="st1" x1="1864.6" y1="1302.8" x2="2012.4" y2="1217.9"/>

		<line class="st1" x1="2012.4" y1="1241" x2="1864.6" y2="1325.9"/>

		<line class="st1" x1="1912.9" y1="1397.3" x2="1888.8" y2="1373.1"/>

		<line class="st1" x1="2109.1" y1="1407" x2="1961.2" y2="1491.8"/>

		<line class="st1" x1="1961.2" y1="1514.9" x2="2109.1" y2="1430"/>

		<line class="st1" x1="1840.4" y1="1278.6" x2="1840.4" y2="1255.5"/>

		<line class="st1" x1="2109.1" y1="1407" x2="2109.1" y2="1430"/>

		<line class="st1" x1="2133.2" y1="1454.2" x2="1985.4" y2="1539.1"/>

		<line class="st1" x1="1937.1" y1="1467.6" x2="2084.9" y2="1382.8"/>

		<line class="st1" x1="1888.8" y1="1373.1" x2="1888.8" y2="1350"/>

		<line class="st1" x1="1888.8" y1="1350" x2="2036.6" y2="1265.2"/>

		<line class="st1" x1="2060.7" y1="1335.5" x2="1912.9" y2="1420.4"/>

		<line class="st1" x1="1985.4" y1="1539.1" x2="1961.2" y2="1514.9"/>

		<line class="st1" x1="2060.7" y1="1312.5" x2="1912.9" y2="1397.3"/>

		<line class="st1" x1="1912.9" y1="1420.4" x2="1912.9" y2="1397.3"/>

		<line class="st1" x1="1937.1" y1="1444.5" x2="1912.9" y2="1420.4"/>

		<line class="st1" x1="1888.8" y1="1350" x2="1864.6" y2="1325.9"/>

		<line class="st1" x1="1961.2" y1="1514.9" x2="1961.2" y2="1491.8"/>

		<line class="st1" x1="1985.4" y1="1562.1" x2="1985.4" y2="1539.1"/>

		<line class="st1" x1="1937.1" y1="1467.6" x2="1937.1" y2="1444.5"/>

		<line class="st1" x1="1864.6" y1="1302.8" x2="1840.4" y2="1278.6"/>

		<line class="st1" x1="1840.4" y1="1255.5" x2="1617.3" y2="1032.2"/>

		<line class="st1" x1="1988.3" y1="1193.8" x2="1988.3" y2="1170.7"/>

		<line class="st1" x1="2036.6" y1="1265.2" x2="2012.4" y2="1241"/>

		<line class="st1" x1="2133.2" y1="1454.2" x2="2109.1" y2="1430"/>

		<line class="st1" x1="1840.4" y1="1278.6" x2="1988.3" y2="1193.8"/>

		<line class="st1" x1="2060.7" y1="1335.5" x2="2060.7" y2="1312.5"/>

		<line class="st1" x1="1840.4" y1="1255.5" x2="1988.3" y2="1170.7"/>

		<line class="st1" x1="2012.4" y1="1217.9" x2="1988.3" y2="1193.8"/>

		<line class="st1" x1="2036.6" y1="1288.3" x2="2036.6" y2="1265.2"/>

		<line class="st1" x1="2060.7" y1="1312.5" x2="2036.6" y2="1288.3"/>

		<line class="st1" x1="2084.9" y1="1359.7" x2="2060.7" y2="1335.5"/>

		<line class="st1" x1="2084.9" y1="1382.8" x2="2084.9" y2="1359.7"/>

		<line class="st1" x1="2133.2" y1="1477.3" x2="2133.2" y2="1454.2"/>

		<line class="st1" x1="2012.4" y1="1241" x2="2012.4" y2="1217.9"/>

		<line class="st1" x1="2109.1" y1="1407" x2="2084.9" y2="1382.8"/>

		<line class="st1" x1="1617.1" y1="1193.2" x2="1617.3" y2="1032.2"/>

		<line class="st1" x1="1670.7" y1="1749.7" x2="1670.7" y2="1726.6"/>

		<line class="st1" x1="1670.7" y1="1726.6" x2="1699.2" y2="1755.1"/>

		<line class="st1" x1="1684.5" y1="1763.5" x2="1670.7" y2="1749.7"/>

		<line class="st1" x1="1638.8" y1="1789.8" x2="1638.8" y2="1768"/>

		<line class="st1" x1="1638.8" y1="1768" x2="1652.6" y2="1781.8"/>

		<line class="st1" x1="1638.8" y1="1768" x2="1670.7" y2="1749.7"/>

		<line class="st1" x1="1702.6" y1="1685.3" x2="1745.7" y2="1728.4"/>

		<line class="st1" x1="1787.2" y1="1636.7" x2="1702.6" y2="1685.3"/>

		<line class="st1" x1="1702.6" y1="1685.3" x2="1702.6" y2="1662.2"/>

		<line class="st1" x1="1702.6" y1="1662.2" x2="1787.2" y2="1613.6"/>

		<line class="st1" x1="1702.6" y1="1662.2" x2="1678.4" y2="1638"/>

		<line class="st1" x1="1678.4" y1="1638" x2="1763" y2="1589.4"/>

		<line class="st1" x1="1678.4" y1="1614.9" x2="1763" y2="1566.4"/>

		<line class="st1" x1="1984.2" y1="1713.7" x2="1984.2" y2="1690.6"/>

		<line class="st1" x1="1984.2" y1="1690.6" x2="2033.6" y2="1740"/>

		<line class="st1" x1="2018.9" y1="1748.5" x2="1984.2" y2="1713.7"/>

		<line class="st1" x1="2016.1" y1="1672.3" x2="2065.5" y2="1721.7"/>

		<line class="st1" x1="2016.1" y1="1649.2" x2="2080.1" y2="1713.3"/>

		<line class="st1" x1="2343.7" y1="892.3" x2="2252.9" y2="944.5"/>

		<line class="st1" x1="2228.7" y1="897.2" x2="2228.7" y2="874.2"/>

		<line class="st1" x1="2392" y1="963.8" x2="2301.2" y2="1015.9"/>

		<line class="st1" x1="2325.3" y1="1063.2" x2="2301.2" y2="1039"/>

		<line class="st1" x1="2228.7" y1="874.2" x2="2319.6" y2="822"/>

		<line class="st1" x1="2319.6" y1="845.1" x2="2228.7" y2="897.2"/>

		<line class="st1" x1="2277" y1="968.7" x2="2252.9" y2="944.5"/>

		<line class="st1" x1="2416.2" y1="1011" x2="2325.3" y2="1063.2"/>

		<line class="st1" x1="2325.3" y1="1086.2" x2="2416.2" y2="1034.1"/>

		<line class="st1" x1="2204.5" y1="850" x2="2204.5" y2="826.9"/>

		<line class="st1" x1="2440.4" y1="1058.3" x2="2349.5" y2="1110.4"/>

		<line class="st1" x1="2301.2" y1="1039" x2="2392" y2="986.8"/>

		<line class="st1" x1="2252.9" y1="944.5" x2="2252.9" y2="921.4"/>

		<line class="st1" x1="2252.9" y1="921.4" x2="2343.7" y2="869.3"/>

		<line class="st1" x1="2367.9" y1="939.6" x2="2277" y2="991.7"/>

		<line class="st1" x1="2349.5" y1="1110.4" x2="2325.3" y2="1086.2"/>

		<line class="st1" x1="2367.9" y1="916.5" x2="2277" y2="968.7"/>

		<line class="st1" x1="2277" y1="991.7" x2="2277" y2="968.7"/>

		<line class="st1" x1="2301.2" y1="1015.9" x2="2277" y2="991.7"/>

		<line class="st1" x1="2252.9" y1="921.4" x2="2228.7" y2="897.2"/>

		<line class="st1" x1="2325.3" y1="1086.2" x2="2325.3" y2="1063.2"/>

		<line class="st1" x1="2349.5" y1="1133.5" x2="2349.5" y2="1110.4"/>

		<line class="st1" x1="2301.2" y1="1039" x2="2301.2" y2="1015.9"/>

		<line class="st1" x1="2228.7" y1="874.2" x2="2204.5" y2="850"/>

		<line class="st1" x1="2204.5" y1="850" x2="2295.4" y2="797.8"/>

		<line class="st1" x1="2204.5" y1="826.9" x2="2180.2" y2="802.6"/>

		<line class="st1" x1="2204.5" y1="826.9" x2="2295.4" y2="774.8"/>

		<line class="st1" x1="1763" y1="1566.4" x2="1859.6" y2="1663"/>

		<line class="st1" x1="2352.8" y1="1455.9" x2="2416.8" y2="1520.1"/>

		<line class="st1" x1="2416.8" y1="1520.1" x2="2564.4" y2="1667.8"/>

		<line class="st1" x1="794.9" y1="1259.6" x2="901.1" y2="1198.6"/>

		<line class="st1" x1="939.1" y1="1176.8" x2="901.1" y2="1198.6"/>

		<line class="st1" x1="2401.6" y1="1528.8" x2="2390.3" y2="1517.5"/>

		<line class="st1" x1="2180.3" y1="964.2" x2="2180.3" y2="964.2"/>

		<line class="st1" x1="1206.1" y1="722.2" x2="1314.4" y2="660"/>

		<line class="st1" x1="1314.4" y1="660" x2="1362.6" y2="632.3"/>

		<line class="st1" x1="1101.8" y1="617.9" x2="1150.1" y2="666.2"/>

		<line class="st1" x1="1150.1" y1="666.2" x2="1206.1" y2="722.2"/>

		<line class="st1" x1="2612.7" y1="1640.1" x2="3155.6" y2="1328.5"/>

		<line class="st1" x1="3155.6" y1="1328.5" x2="3203.9" y2="1300.8"/>

		<line class="st1" x1="2147.1" y1="1907.3" x2="2098.9" y2="1935"/>

		<line class="st1" x1="2098.9" y1="1935" x2="1556" y2="2246.7"/>

		<line class="st1" x1="1556" y1="2246.7" x2="1344.3" y2="2034.8"/>

		<line class="st1" x1="1344.3" y1="2034.8" x2="1296" y2="1986.5"/>

		<line class="st1" x1="166.8" y1="856.4" x2="48.3" y2="737.8"/>

		<line class="st1" x1="48.3" y1="737.8" x2="0" y2="689.6"/>

		<line class="st1" x1="603.5" y1="1293.4" x2="215" y2="904.7"/>

		<line class="st1" x1="215" y1="904.7" x2="166.8" y2="856.4"/>

		<line class="st1" x1="946.8" y1="1096.4" x2="898.6" y2="1124.1"/>

		<line class="st1" x1="898.6" y1="1124.1" x2="794.9" y2="1183.6"/>

		<line class="st1" x1="860.2" y1="599.2" x2="908.5" y2="647.5"/>

		<line class="st1" x1="908.5" y1="647.5" x2="1207.5" y2="946.7"/>

		<line class="st1" x1="1207.5" y1="946.7" x2="1227.5" y2="935.2"/>

		<line class="st1" x1="1227.5" y1="935.2" x2="1275.8" y2="907.5"/>

		<line class="st1" x1="1296" y1="1986.5" x2="950.4" y2="1640.7"/>

		<line class="st1" x1="950.4" y1="1640.7" x2="902.2" y2="1592.4"/>

		<line class="st1" x1="1593.7" y1="1815.7" x2="1231.9" y2="1453.7"/>

		<line class="st1" x1="1231.9" y1="1453.7" x2="1199.8" y2="1421.5"/>

		<line class="st1" x1="1593.7" y1="1815.7" x2="1638.8" y2="1789.8"/>

		<line class="st1" x1="1110.4" y1="1332.1" x2="1291.8" y2="1228"/>

		<line class="st1" x1="1291.8" y1="1228" x2="1340" y2="1200.3"/>

		<line class="st1" x1="812.8" y1="1502.9" x2="651.7" y2="1341.7"/>

		<line class="st1" x1="651.7" y1="1341.7" x2="603.5" y2="1293.4"/>

		<line class="st1" x1="2646.3" y1="1211.5" x2="2598.1" y2="1239.2"/>

		<line class="st1" x1="2598.1" y1="1239.2" x2="2524.5" y2="1281.4"/>

		<line class="st1" x1="2176.4" y1="1481.2" x2="2273.6" y2="1425.4"/>

		<line class="st1" x1="2273.6" y1="1425.4" x2="2352.8" y2="1380"/>

		<line class="st1" x1="2063.6" y1="1545.9" x2="1905.4" y2="1636.7"/>

		<line class="st1" x1="1905.4" y1="1636.7" x2="1887.2" y2="1647.2"/>

		<line class="st1" x1="1560.8" y1="197.1" x2="1609" y2="245.4"/>

		<line class="st1" x1="1609" y1="245.4" x2="1908.1" y2="544.6"/>

		<line class="st1" x1="1953.8" y1="518.4" x2="2002" y2="566.7"/>

		<line class="st1" x1="2002" y1="566.7" x2="2108.8" y2="673.5"/>

		<line class="st1" x1="1380.4" y1="1012.3" x2="1324.1" y2="955.8"/>

		<line class="st1" x1="1324.1" y1="955.8" x2="1275.8" y2="907.5"/>

		<path class="st1" d="M1233.5,1093.7l-54.5-54.6 M1340,1200.3l-59.6-59.7"/>

		<line class="st1" x1="1179" y1="1039.1" x2="1130.7" y2="990.8"/>

		<line class="st1" x1="1130.7" y1="990.8" x2="1159.2" y2="974.4"/>

		<line class="st1" x1="1159.2" y1="974.4" x2="1207.5" y2="946.7"/>

		<line class="st1" x1="1716.4" y1="898.7" x2="1716.4" y2="946.9"/>

		<line class="st1" x1="1716.4" y1="946.9" x2="1716.4" y2="975.3"/>

		<line class="st1" x1="1579.1" y1="733.4" x2="1599.1" y2="721.9"/>

		<line class="st1" x1="1599.1" y1="721.9" x2="1647.4" y2="694.2"/>

		<line class="st1" x1="1579.1" y1="733.4" x2="1627.3" y2="781.7"/>

		<line class="st1" x1="1627.3" y1="781.7" x2="1683.7" y2="838.2"/>

		<line class="st1" x1="2163.1" y1="642.3" x2="2217.4" y2="696.7"/>

		<line class="st1" x1="2217.4" y1="696.7" x2="2253.9" y2="733.2"/>

		<line class="st1" x1="1734.1" y1="888.6" x2="1716.4" y2="898.7"/>

		<line class="st1" x1="1575" y1="900.6" x2="1635.5" y2="865.9"/>

		<line class="st1" x1="1635.5" y1="865.9" x2="1683.7" y2="838.2"/>

		<line class="st1" x1="2251.4" y1="347.5" x2="2203.1" y2="375.2"/>

		<line class="st1" x1="2203.1" y1="375.2" x2="2121.4" y2="422.2"/>

		<line class="st1" x1="2550.1" y1="646.5" x2="2501.9" y2="674.2"/>

		<line class="st1" x1="2501.9" y1="674.2" x2="2437.6" y2="711.1"/>

		<line class="st1" x1="902.2" y1="1592.4" x2="861" y2="1551.2"/>

		<line class="st1" x1="861" y1="1551.2" x2="812.8" y2="1502.9"/>

		<line class="st1" x1="1072.4" y1="1353.8" x2="1110.4" y2="1332.1"/>

		<line class="st1" x1="1481.2" y1="1880.3" x2="1545.4" y2="1843.4"/>

		<line class="st1" x1="1545.4" y1="1843.4" x2="1593.7" y2="1815.7"/>

		<line class="st1" x1="358.2" y1="746.5" x2="461.9" y2="687"/>

		<line class="st1" x1="461.9" y1="687" x2="510.1" y2="659.3"/>

		<line class="st1" x1="2348.2" y1="621.6" x2="2412.4" y2="584.7"/>

		<line class="st1" x1="2412.4" y1="584.7" x2="2460.7" y2="557"/>

		<line class="st1" x1="1087.3" y1="1486.1" x2="1151.6" y2="1449.3"/>

		<line class="st1" x1="1151.6" y1="1449.3" x2="1199.8" y2="1421.5"/>

		<line class="st1" x1="1199.8" y1="1421.5" x2="1158.7" y2="1380.4"/>

		<line class="st1" x1="1158.7" y1="1380.4" x2="1110.4" y2="1332.1"/>

		<line class="st1" x1="2831.4" y1="1105.2" x2="2895.7" y2="1068.3"/>

		<line class="st1" x1="2895.7" y1="1068.3" x2="2944" y2="1040.6"/>

		<line class="st1" x1="1895.8" y1="971.4" x2="1944.1" y2="1019.7"/>

		<line class="st1" x1="1944.1" y1="1019.7" x2="2048" y2="1123.7"/>

		<line class="st1" x1="1579.1" y1="733.4" x2="1530.8" y2="761.1"/>

		<line class="st1" x1="1530.8" y1="761.1" x2="1458.1" y2="802.9"/>

		<line class="st1" x1="2612.7" y1="1640.1" x2="2401" y2="1428.2"/>

		<line class="st1" x1="2401" y1="1428.2" x2="2352.8" y2="1380"/>

		<line class="st1" x1="2612.7" y1="1640.1" x2="2564.4" y2="1667.8"/>

		<line class="st1" x1="2564.4" y1="1667.8" x2="2436.3" y2="1741.3"/>

		<line class="st1" x1="939.1" y1="1236.6" x2="939.1" y2="1176.8"/>

		<line class="st1" x1="939.1" y1="1176.8" x2="939.1" y2="1160.6"/>

		<line class="st1" x1="939.1" y1="1160.6" x2="946.8" y2="1168.3"/>

		<line class="st1" x1="928.5" y1="560" x2="976.8" y2="608.3"/>

		<line class="st1" x1="976.8" y1="608.3" x2="1000" y2="631.5"/>

		<line class="st1" x1="1303.3" y1="457.5" x2="1280.1" y2="434.2"/>

		<line class="st1" x1="1280.1" y1="434.2" x2="1231.8" y2="385.9"/>

		<line class="st1" x1="1617.3" y1="1032.2" x2="1716.4" y2="975.3"/>

		<line class="st1" x1="1716.4" y1="975.3" x2="1765.1" y2="947.4"/>

		<line class="st1" x1="1670.7" y1="1726.6" x2="1673.3" y2="1725.2"/>

		<line class="st1" x1="2180.2" y1="884.1" x2="2180.2" y2="964.1"/>

		<line class="st1" x1="2180.2" y1="802.6" x2="2253.9" y2="760.3"/>

		<line class="st1" x1="2253.9" y1="760.3" x2="2271.1" y2="750.4"/>

		<line class="st1" x1="2308.9" y1="1582" x2="2332.1" y2="1568.7"/>

		<line class="st1" x1="2244.8" y1="1517.9" x2="2258" y2="1531.1"/>

		<line class="st1" x1="2258" y1="1531.1" x2="2308.9" y2="1582"/>

		<line class="st1" x1="2332.1" y1="1568.7" x2="2294.4" y2="1531"/>

		<line class="st1" x1="2294.4" y1="1531" x2="2281.2" y2="1517.8"/>

		<line class="st1" x1="2355.3" y1="1555.4" x2="2330.8" y2="1530.9"/>

		<line class="st1" x1="2330.8" y1="1530.9" x2="2317.6" y2="1517.7"/>

		<line class="st1" x1="2378.4" y1="1542.1" x2="2367.1" y2="1530.8"/>

		<line class="st1" x1="2367.1" y1="1530.8" x2="2353.9" y2="1517.6"/>

		<line class="st1" x1="1638.8" y1="1789.8" x2="1652.6" y2="1781.8"/>

		<line class="st1" x1="2253.9" y1="733.2" x2="2265.6" y2="745"/>

		<line class="st1" x1="2265.6" y1="745" x2="2271.1" y2="750.4"/>

		<line class="st1" x1="2060.5" y1="701.2" x2="1734.1" y2="888.6"/>

		<line class="st1" x1="1716.4" y1="898.7" x2="1765.1" y2="947.4"/>

		<line class="st1" x1="1765.1" y1="947.4" x2="1788.4" y2="970.7"/>

		<line class="st1" x1="997.9" y1="1396.6" x2="1062.1" y2="1359.8"/>

		<line class="st1" x1="1062.1" y1="1359.8" x2="1072.4" y2="1353.8"/>

		<line class="st1" x1="2147.1" y1="1907.3" x2="1999.5" y2="1759.6"/>

		<line class="st1" x1="1999.5" y1="1759.6" x2="1964.8" y2="1724.8"/>

		<line class="st1" x1="1964.8" y1="1724.8" x2="1935.5" y2="1695.5"/>

		<line class="st1" x1="1935.5" y1="1695.5" x2="1887.2" y2="1647.2"/>

		<line class="st1" x1="946.8" y1="1168.3" x2="949.4" y2="1170.9"/>

		<line class="st1" x1="949.4" y1="1170.9" x2="1072.4" y2="1294.1"/>

		<line class="st1" x1="1673.3" y1="1725.2" x2="1678.4" y2="1722.2"/>

		<line class="st1" x1="1678.4" y1="1722.2" x2="1702.6" y2="1708.3"/>

		<line class="st1" x1="2180.2" y1="802.6" x2="2180.2" y2="821"/>

		<line class="st1" x1="2180.2" y1="821" x2="2180.2" y2="884.1"/>

		<line class="st1" x1="1999.5" y1="1759.6" x2="2018.9" y2="1748.5"/>

		<line class="st1" x1="2018.9" y1="1748.5" x2="2033.6" y2="1740"/>

		<line class="st1" x1="2033.6" y1="1740" x2="2065.5" y2="1721.7"/>

		<line class="st1" x1="2065.5" y1="1721.7" x2="2080.1" y2="1713.3"/>

		<line class="st1" x1="2332.1" y1="1568.7" x2="2355.3" y2="1555.4"/>

		<path class="st1" d="M2436.3,1817.3"/>

		<path class="st1" d="M2323.5,1882.1"/>

		<line class="st1" x1="2295.4" y1="774.8" x2="2306.8" y2="786.2"/>

		<line class="st1" x1="2163.1" y1="642.3" x2="2108.8" y2="673.5"/>

		<line class="st1" x1="2108.8" y1="673.5" x2="2060.5" y2="701.2"/>

		<line class="st1" x1="2355.3" y1="1555.4" x2="2378.4" y2="1542.1"/>

		<line class="st1" x1="1652.6" y1="1781.8" x2="1684.5" y2="1763.5"/>

		<line class="st1" x1="1684.5" y1="1763.5" x2="1699.2" y2="1755.1"/>

		<line class="st1" x1="1699.2" y1="1755.1" x2="1731.1" y2="1736.8"/>

		<line class="st1" x1="2306.8" y1="786.2" x2="2355.1" y2="834.5"/>

		<line class="st1" x1="2355.1" y1="834.5" x2="2376.9" y2="856.3"/>

		<line class="st1" x1="2378.4" y1="1542.1" x2="2401.6" y2="1528.8"/>

		<line class="st1" x1="2401.6" y1="1528.8" x2="2416.8" y2="1520.1"/>

		<line class="st1" x1="1731.1" y1="1736.8" x2="1745.7" y2="1728.4"/>

		<line class="st1" x1="1745.7" y1="1728.4" x2="1830.3" y2="1679.8"/>

		<line class="st1" x1="1830.3" y1="1679.8" x2="1859.6" y2="1663"/>

		<line class="st1" x1="1859.6" y1="1663" x2="1887.2" y2="1647.2"/>

		<line class="st1" x1="1787.2" y1="1636.7" x2="1830.3" y2="1679.8"/>

		<line class="st1" x1="2163.1" y1="803.8" x2="2163.1" y2="642.3"/>

		<line class="st1" x1="1788.4" y1="970.7" x2="1819" y2="1001.3"/>

		<line class="st1" x1="1819" y1="1001.3" x2="1988.3" y2="1170.7"/>

		<line class="st1" x1="1617.1" y1="1193.2" x2="1985.4" y2="1562.1"/>

		<line class="st1" x1="1702.6" y1="1708.3" x2="1731.1" y2="1736.8"/>

		<line class="st1" x1="1887.2" y1="1723.2" x2="2098.9" y2="1935"/>

		<line class="st1" x1="2466.2" y1="1390.8" x2="2401" y2="1428.2"/>

		<line class="st1" x1="2063.1" y1="455.6" x2="2063.1" y2="531.6"/>

		<line class="st1" x1="2016.1" y1="1649.2" x2="2063.6" y2="1621.9"/>

		<line class="st1" x1="2176.4" y1="1557.2" x2="2244.8" y2="1517.9"/>

		<line class="st1" x1="2349.5" y1="1133.5" x2="2180.3" y2="964.2"/>

		<line class="st1" x1="1552.8" y1="1268" x2="1552.8" y2="1189.6"/>

		<line class="st1" x1="1525.6" y1="1268" x2="1525.7" y2="1189.6"/>

		<path class="st1" d="M1525.7,1189.6c0-5.1,6.1-9.2,13.5-9.2c7.5,0,13.5,4.1,13.5,9.2"/>

		<path class="st1" d="M1525.7,1268c0,5,6.1,9.2,13.5,9.2s13.5-4.1,13.5-9.2"/>

		<line class="st1" x1="1620.8" y1="1336.3" x2="1620.8" y2="1257.9"/>

		<line class="st1" x1="1593.7" y1="1336.3" x2="1593.7" y2="1257.9"/>

		<path class="st1" d="M1593.7,1257.9c0-5.1,6.1-9.1,13.6-9.1s13.5,4.1,13.5,9.1"/>

		<path class="st1" d="M1593.7,1336.3c0,5.1,6.1,9.2,13.5,9.2c7.5,0,13.5-4.1,13.5-9.2"/>

		<line class="st1" x1="1688.9" y1="1404.4" x2="1688.9" y2="1326"/>

		<line class="st1" x1="1661.8" y1="1404.4" x2="1661.8" y2="1326.1"/>

		<path class="st1" d="M1661.8,1326c0-5.1,6.1-9.2,13.5-9.2c7.5,0,13.5,4.1,13.5,9.2"/>

		<path class="st1" d="M1661.8,1404.4c0,5.1,6.1,9.2,13.5,9.2c7.5,0,13.6-4.1,13.6-9.2"/>

		<line class="st1" x1="1757" y1="1472.7" x2="1757" y2="1394.3"/>

		<line class="st1" x1="1729.9" y1="1472.6" x2="1729.9" y2="1394.3"/>

		<path class="st1" d="M1729.9,1394.3c0-5.1,6.1-9.2,13.5-9.2c7.5,0,13.5,4.1,13.5,9.2"/>

		<path class="st1" d="M1729.9,1472.6c0,5.1,6.1,9.2,13.5,9.2c7.5,0,13.5-4.1,13.5-9.2"/>

		<line class="st1" x1="1825.1" y1="1540.8" x2="1825.1" y2="1462.4"/>

		<line class="st1" x1="1798" y1="1540.8" x2="1798" y2="1462.4"/>

		<path class="st1" d="M1798,1462.4c0-5.1,6.1-9.1,13.5-9.1c7.5,0,13.5,4.1,13.5,9.1"/>

		<path class="st1" d="M1798,1540.8c0,5.1,6.1,9.2,13.6,9.2s13.5-4.1,13.5-9.2"/>

		<line class="st1" x1="1893.2" y1="1608.9" x2="1893.2" y2="1530.5"/>

		<line class="st1" x1="1866.1" y1="1608.9" x2="1866.1" y2="1530.5"/>

		<path class="st1" d="M1866.1,1530.5c0-5.1,6.1-9.2,13.5-9.2c7.5,0,13.6,4.1,13.6,9.2"/>

		<path class="st1" d="M1866.1,1608.9c0,5.1,6.1,9.2,13.6,9.2s13.5-4.1,13.5-9.2"/>

		<line class="st1" x1="2124.2" y1="1261.8" x2="2124.2" y2="1183.4"/>

		<line class="st1" x1="2097.1" y1="1261.8" x2="2097.1" y2="1183.4"/>

		<path class="st1" d="M2097.2,1183.4c0-5.1,6.1-9.2,13.5-9.2c7.5,0,13.5,4.1,13.5,9.2"/>

		<path class="st1" d="M2097.2,1261.8c0,5.1,6.1,9.2,13.5,9.2c7.5,0,13.6-4.1,13.6-9.2"/>

		<line class="st1" x1="2192.3" y1="1330" x2="2192.3" y2="1251.6"/>

		<line class="st1" x1="2165.3" y1="1330" x2="2165.3" y2="1251.6"/>

		<path class="st1" d="M2165.3,1251.6c0-5,6.1-9.1,13.5-9.1c7.5,0,13.5,4.1,13.5,9.1"/>

		<path class="st1" d="M2165.3,1330c0,5.1,6.1,9.2,13.5,9.2c7.5,0,13.5-4.1,13.5-9.2"/>

		<line class="st1" x1="2260.5" y1="1398.1" x2="2260.5" y2="1319.7"/>

		<line class="st1" x1="2233.4" y1="1398.1" x2="2233.4" y2="1319.7"/>

		<path class="st1" d="M2233.4,1319.7c0-5.1,6.1-9.2,13.5-9.2c7.5,0,13.5,4.1,13.5,9.2"/>

		<path class="st1" d="M2233.4,1398.1c0,5.1,6.1,9.2,13.5,9.2c7.5,0,13.5-4.1,13.5-9.2"/>

		<line class="st1" x1="2008" y1="1013.8" x2="2008" y2="935.4"/>

		<line class="st1" x1="1980.9" y1="1013.8" x2="1980.9" y2="935.4"/>

		<path class="st1" d="M1980.9,935.4c0-5.1,6.1-9.2,13.6-9.2s13.5,4.1,13.5,9.2"/>

		<path class="st1" d="M1980.9,1013.8c0,5.1,6.1,9.1,13.5,9.1c7.5,0,13.5-4.1,13.5-9.1"/>

		<line class="st1" x1="2063" y1="982.2" x2="2063" y2="903.9"/>

		<line class="st1" x1="2035.9" y1="982.2" x2="2035.9" y2="903.9"/>

		<path class="st1" d="M2035.9,903.8c0-5,6.1-9.1,13.5-9.1c7.5,0,13.5,4.1,13.5,9.1"/>

		<path class="st1" d="M2035.9,982.2c0,5.1,6.1,9.2,13.5,9.2c7.5,0,13.5-4.1,13.5-9.2"/>

		<line class="st1" x1="2117.9" y1="950.7" x2="2117.9" y2="872.3"/>

		<line class="st1" x1="2090.8" y1="950.7" x2="2090.8" y2="872.3"/>

		<path class="st1" d="M2090.8,872.3c0-5,6.1-9.2,13.5-9.2c7.5,0,13.5,4.1,13.5,9.2"/>

		<path class="st1" d="M2090.8,950.7c0,5,6.1,9.2,13.5,9.2c7.5,0,13.6-4.1,13.6-9.2"/>

		<line class="st1" x1="1233.6" y1="1094.3" x2="1233.6" y2="1169.5"/>

		<line class="st1" x1="1280.4" y1="1141.4" x2="1280.4" y2="1216.2"/>

	</g>

	<g>

		<g>

			<path class="st2" d="M1720.3,2003.2c-2,0-3.5-1.5-3.5-3.5s1.5-3.5,3.5-3.5h10.6V1953l-10.2,8.2c-0.7,0.5-1.4,0.8-2.2,0.8

				c-2,0-3.5-1.5-3.5-3.5c0-1,0.4-2,1.4-2.8l14.9-12c0.4-0.3,1.4-1.2,3-1.2c2.2,0,3.8,1.7,3.8,3.9v49.9h10.6c2,0,3.5,1.5,3.5,3.5

				s-1.5,3.5-3.5,3.5L1720.3,2003.2L1720.3,2003.2z"/>

		</g>

		<g>

			<path class="st2" d="M2768,1349.3c7.9,0,14.2,6.2,14.2,14.2v3.5c0,4.1-1.7,7.6-4.4,10.2c3.5,2.7,5.6,6.9,5.6,11.6v5.9

				c0,8.3-6.5,14.8-14.8,14.8H2758c-8.3,0-14.8-6.5-14.8-14.8v-5.9c0-4.7,2.1-8.9,5.5-11.6c-2.7-2.6-4.3-6.2-4.3-10.3v-3.5

				c0-7.9,6.2-14.2,14.2-14.2h9.4L2768,1349.3L2768,1349.3z M2757.9,1381.2c-4.2,0-7.7,3.5-7.7,7.7v5.9c0,4.2,3.5,7.7,7.7,7.7h10.6

				c4.2,0,7.7-3.5,7.7-7.7v-5.9c0-4.2-3.5-7.7-7.7-7.7H2757.9z M2775.1,1363.5c0-3.9-3.2-7.1-7.1-7.1h-9.5c-3.9,0-7.1,3.2-7.1,7.1

				v3.5c0,3.9,3.2,7.1,7.1,7.1h9.5c3.9,0,7.1-3.2,7.1-7.1V1363.5z"/>

		</g>

		<g>

			<path class="st2" d="M2589.5,984.2c0-1.9,1.6-3.5,3.5-3.5c6.2,0,12.5-0.4,17.2-3.5c4.3-2.7,7.2-7.5,7.8-14.4

				c-2.2,1.2-4.6,1.9-7.3,1.9h-10.5c-8.3,0-14.8-6.5-14.8-14.8V941c0-8.3,6.5-14.8,14.8-14.8h10.6c8.3,0,14.8,6.5,14.8,14.8v16

				c0,9.6-2.3,20.4-11.5,26.2c-6.3,4-13.9,4.6-21,4.6C2591.1,987.8,2589.5,986.2,2589.5,984.2z M2610.8,957.6c4.2,0,7.7-3.5,7.7-7.7

				V941c0-4.2-3.5-7.7-7.7-7.7h-10.6c-4.2,0-7.7,3.5-7.7,7.7v8.9c0,4.2,3.5,7.7,7.7,7.7L2610.8,957.6L2610.8,957.6z"/>

		</g>

		<g>

			<path class="st2" d="M2194.2,1182.3c-2,0-3.5-1.5-3.5-3.5s1.5-3.5,3.5-3.5h10.6v-43.2l-10.2,8.2c-0.7,0.5-1.4,0.8-2.2,0.8

				c-2,0-3.5-1.5-3.5-3.5c0-1,0.4-2,1.4-2.8l14.9-12c0.4-0.3,1.4-1.2,3-1.2c2.2,0,3.8,1.7,3.8,3.9v49.9h10.6c2,0,3.5,1.5,3.5,3.5

				s-1.5,3.5-3.5,3.5h-28.4L2194.2,1182.3L2194.2,1182.3z"/>

			<path class="st2" d="M2255.8,1182.3c-7.3,0-13.2-5.1-14.4-11.2c-0.6-3,0.9-4.7,3.3-4.7c2,0,3.1,1.2,3.5,2.9c0.8,3.5,3.9,6,7.6,6

				h11.1c4.2,0,7.7-3.5,7.7-7.7v-8.9c0-4.2-3.5-7.7-7.7-7.7h-11.2c-2.4,0-3.6,0.5-4.7,1c-0.8,0.3-1.8,0.8-3,0.8

				c-2.7,0-4.7-2-4.7-4.7v-21.3c0-2.7,2-4.7,4.7-4.7h27.8c2,0,3.5,1.5,3.5,3.5s-1.5,3.5-3.5,3.5h-25.4v15.5c1.3-0.4,3-0.8,5.3-0.8

				h11.2c8.3,0,14.8,6.5,14.8,14.8v8.9c0,8.3-6.5,14.8-14.8,14.8L2255.8,1182.3L2255.8,1182.3z"/>

		</g>

		<g>

			<path class="st2" d="M1473.3,1593.8c-2,0-3.5-1.5-3.5-3.5s1.5-3.5,3.5-3.5h10.6v-43.2l-10.2,8.2c-0.7,0.5-1.4,0.8-2.2,0.8

				c-2,0-3.5-1.5-3.5-3.5c0-1,0.4-2,1.4-2.8l14.9-12c0.4-0.3,1.4-1.2,3-1.2c2.2,0,3.8,1.7,3.8,3.9v49.9h10.6c2,0,3.5,1.5,3.5,3.5

				s-1.5,3.5-3.5,3.5h-28.4L1473.3,1593.8L1473.3,1593.8z"/>

			<path class="st2" d="M1524.7,1583.2c-2.4,0-4.6-1.3-5.7-3.3c-1.2-2.2-0.9-4.9,0.6-7.3l24-38.5c1.1-1.7,3.2-2.2,4.9-1.2

				c1.7,1.1,2.2,3.3,1.2,4.9l-23.9,38.3h23.2v-23c0-1.9,1.6-3.5,3.5-3.5s3.5,1.6,3.5,3.5v23h4.1c1.9,0,3.5,1.6,3.5,3.5

				s-1.6,3.5-3.5,3.5h-4.1v7.7c0,1.9-1.6,3.5-3.5,3.5s-3.5-1.6-3.5-3.5v-7.7L1524.7,1583.2L1524.7,1583.2z"/>

		</g>

		<g>

			<path class="st2" d="M1226.4,1760.7c-2,0-3.7-1-4.4-2.7s-0.3-3.5,1.2-5l21.4-21.9c4.3-4.4,6.9-7.6,8.3-10c1.1-2,1.4-3.5,1.4-5.2

				c0-4.9-3.4-8.3-8.3-8.3h-8.3c-4.6,0-8.3,3.7-8.3,8.3v2.4c0,1.9-1.6,3.5-3.5,3.5s-3.5-1.6-3.5-3.5v-2.4c0-8.6,6.8-15.4,15.4-15.4

				h8.3c8.9,0,15.4,6.4,15.4,15.4c0,2.4-0.3,5.1-2.3,8.7c-1.7,3-4.6,6.6-9.4,11.5l-17.1,17.6h26.4c1.9,0,3.5,1.6,3.5,3.5

				s-1.6,3.5-3.5,3.5H1226.4L1226.4,1760.7z"/>

		</g>

		<g>

			<path class="st2" d="M848.6,1369.4h10.6c4.2,0,7.7-3.5,7.7-7.7v-8.3c0-4.6-3.7-8.3-8.3-8.3h-6.5c-2,0-3.5-1.4-3.5-3.5

				c0-0.8,0.5-1.6,1-2.3l13.5-16.1h-24.6c-2,0-3.5-1.5-3.5-3.5s1.5-3.5,3.5-3.5h30c2.7,0,4.3,1.4,4.3,3.8c0,0.7-0.2,1.5-1.1,2.6

				l-12.5,15.4c8,0.3,14.8,6.7,14.8,15.4v8.3c0,8.3-6.5,14.8-14.8,14.8h-10.6c-8.3,0-14.8-6.5-14.8-14.8c0-2,1.5-3.5,3.5-3.5

				s3.5,1.5,3.5,3.5C840.9,1365.9,844.4,1369.4,848.6,1369.4z"/>

		</g>

		<g>

			<path class="st2" d="M1110.4,1228c-8.3,0-14.8-6.5-14.8-14.8v-16c0-10.6,3.2-20.3,12.6-25.9c6.2-3.6,13.5-4.8,21.1-4.8

				c1.9,0,3.5,1.6,3.5,3.5s-1.6,3.5-3.5,3.5c-7.6,0-13.2,1.3-17.5,3.8c-5.6,3.3-7.9,8.6-8.7,14c2.1-1.2,4.6-1.9,7.3-1.9h10.6

				c8.3,0,14.8,6.5,14.8,14.8v8.9c0,8.3-6.5,14.8-14.8,14.8L1110.4,1228L1110.4,1228z M1110.4,1196.6c-4.2,0-7.7,3.5-7.7,7.7v8.9

				c0,4.2,3.5,7.7,7.7,7.7h10.6c4.2,0,7.7-3.5,7.7-7.7v-8.9c0-4.2-3.5-7.7-7.7-7.7H1110.4z"/>

		</g>

		<g>

			<path class="st2" d="M529.2,1022.1c-2.4,0-4.6-1.3-5.7-3.3c-1.2-2.2-0.9-4.9,0.6-7.3l24-38.5c1.1-1.7,3.2-2.2,4.9-1.2

				c1.7,1.1,2.2,3.3,1.2,4.9l-23.9,38.3h23.2v-23c0-1.9,1.6-3.5,3.5-3.5s3.5,1.6,3.5,3.5v23h4.1c1.9,0,3.5,1.6,3.5,3.5

				s-1.6,3.5-3.5,3.5h-4.1v7.7c0,1.9-1.6,3.5-3.5,3.5s-3.5-1.6-3.5-3.5v-7.7L529.2,1022.1L529.2,1022.1z"/>

		</g>

		<g>

			<path class="st2" d="M260.2,734.4c-7.3,0-13.2-5.1-14.4-11.2c-0.6-3,0.9-4.7,3.3-4.7c2,0,3.1,1.2,3.5,2.9c0.8,3.5,3.9,6,7.6,6

				h11.1c4.2,0,7.7-3.5,7.7-7.7v-8.9c0-4.2-3.5-7.7-7.7-7.7h-11.2c-2.4,0-3.6,0.5-4.7,1c-0.8,0.3-1.8,0.8-3,0.8

				c-2.7,0-4.7-2-4.7-4.7v-21.3c0-2.7,2-4.7,4.7-4.7h27.8c2,0,3.5,1.5,3.5,3.5s-1.5,3.5-3.5,3.5h-25.4v15.5c1.3-0.4,3-0.8,5.3-0.8

				h11.2c8.3,0,14.8,6.5,14.8,14.8v8.9c0,8.3-6.5,14.8-14.8,14.8L260.2,734.4L260.2,734.4z"/>

		</g>

		<g>

			<path class="st2" d="M1348.8,819.3c0-12.5,3.3-19.8,11.4-30.5l2.2-2.9c3.6-4.7,8.1-9.5,8.7-16.9h-26.4v7.1c0,1.9-1.6,3.5-3.5,3.5

				s-3.5-1.6-3.5-3.5v-10.5c0-1.9,1.6-3.5,3.5-3.5h33.7c1.9,0,3.5,1.6,3.5,3.5v1.2c0,9.8-5,16.5-10.5,23.6l-2.2,2.8

				c-4.9,6.2-9.7,13.7-9.7,26.2c0,1.9-1.6,3.5-3.5,3.5C1350.4,822.9,1348.8,821.3,1348.8,819.3z"/>

		</g>

		<g>

			<path class="st2" d="M1870.2,346.7c-2,0-3.5-1.5-3.5-3.5s1.5-3.5,3.5-3.5h10.6v-43.2l-10.2,8.2c-0.7,0.5-1.4,0.8-2.2,0.8

				c-2,0-3.5-1.5-3.5-3.5c0-1,0.4-2,1.4-2.8l14.9-12c0.4-0.3,1.4-1.2,3-1.2c2.2,0,3.8,1.7,3.8,3.9v49.7h10.6c2,0,3.5,1.5,3.5,3.5

				s-1.5,3.5-3.5,3.5L1870.2,346.7L1870.2,346.7z"/>

			<path class="st2" d="M1926.9,346.7c-2,0-3.5-1.5-3.5-3.5s1.5-3.5,3.5-3.5h10.6v-43.2l-10.2,8.2c-0.7,0.5-1.3,0.8-2.2,0.8

				c-2,0-3.5-1.5-3.5-3.5c0-1,0.4-2,1.4-2.8l14.9-12c0.4-0.3,1.4-1.2,3-1.2c2.2,0,3.8,1.7,3.8,3.9v49.7h10.6c2,0,3.5,1.5,3.5,3.5

				s-1.5,3.5-3.5,3.5L1926.9,346.7L1926.9,346.7z"/>

		</g>

		<g>

			<path class="st2" d="M2166.2,598.3c-2,0-3.5-1.5-3.5-3.5s1.5-3.5,3.5-3.5h10.6v-43.2l-10.2,8.2c-0.7,0.5-1.4,0.8-2.2,0.8

				c-2,0-3.5-1.5-3.5-3.5c0-1,0.4-2,1.4-2.8l14.9-12c0.4-0.3,1.4-1.2,3-1.2c2.2,0,3.8,1.7,3.8,3.9v49.9h10.6c2,0,3.5,1.5,3.5,3.5

				s-1.5,3.5-3.5,3.5L2166.2,598.3L2166.2,598.3z"/>

			<path class="st2" d="M2228.2,598.3c-8.3,0-14.8-6.5-14.8-14.8v-30.7c0-8.3,6.5-14.8,14.8-14.8h10.6c8.3,0,14.8,6.5,14.8,14.8

				v30.7c0,8.3-6.5,14.8-14.8,14.8H2228.2z M2238.8,591.2c4.2,0,7.7-3.5,7.7-7.7v-30.7c0-4.2-3.5-7.7-7.7-7.7h-10.6

				c-4.2,0-7.7,3.5-7.7,7.7v30.7c0,4.2,3.5,7.7,7.7,7.7H2238.8z"/>

		</g>

	</g>

</g>

<circle class="st3" cx="270.9" cy="755.3" r="5" id="100" nbgh="151" hn="5"/>

<circle class="st3" cx="331" cy="838" r="5" id="151" nbgh="101,100" hn="4"/>

<circle class="st3" cx="499.1" cy="986" r="5" id="101" nbgh="151,102" hn="4"/>

<circle class="st3" cx="770.8" cy="1281.3" r="5" id="102" nbgh="101,107" hn=""/>

<circle class="st3" cx="970.7" cy="1491.1" r="5" id="103" nbgh="107,104" hn=""/>

<circle class="st3" cx="1067.1" cy="1583.9" r="5" id="104" nbgh="103,105" hn=""/>

<circle class="st3" cx="1267.6" cy="1773" r="5" id="105" nbgh="104,106" hn="2"/>

<circle class="st3" cx="1457.6" cy="1977.6" r="5" id="106" nbgh="105,148" hn=""/>

<circle class="st3" cx="789.9" cy="1303.2" r="5" id="107" nbgh="102,108,103" hn="3"/>

<circle class="st3" cx="925.1" cy="1223.8" r="5" id="108" nbgh="107,110" hn=""/>

<circle class="st3" cx="1258.4" cy="1194.6" r="5" id="109" nbgh="110,111" hn=""/>

<circle class="st3" cx="1140.8" cy="1145.6" r="5" id="110" nbgh="108,109" hn="6"/>

<circle class="st3" cx="1409.8" cy="1145.6" r="5" id="111" nbgh="109,117,113" hn=""/>

<circle class="st3" cx="1696.8" cy="2008.3" r="5" id="112" nbgh="148" hn="1"/>

<circle class="st3" cx="1594.1" cy="1040.9" r="5" id="113" nbgh="111,114" hn=""/>

<circle class="st3" cx="1541" cy="1004" r="5" id="114" nbgh="113,115" hn=""/>

<circle class="st3" cx="1483.8" cy="939.9" r="5" id="115" nbgh="114,116" hn=""/>

<circle class="st3" cx="1439.8" cy="898.7" r="5" id="116" nbgh="115,149" hn=""/>

<circle class="st3" cx="1455" cy="1218.1" r="5" id="117" nbgh="111,118" hn=""/>

<circle class="st3" cx="1483.8" cy="1252.1" r="5" id="118" nbgh="117,119" hn="14"/>

<circle class="st3" cx="1425.6" cy="1302.1" r="5" id="119" nbgh="118,124" hn="14"/>

<circle class="st3" cx="1720" cy="1587" r="5" id="120" nbgh="121,124,144" hn=""/>

<circle class="st3" cx="1780.1" cy="1690.3" r="5" id="121" nbgh="120,122" hn=""/>

<circle class="st3" cx="1622.3" cy="1794.8" r="5" id="122" nbgh="121,123" hn=""/>

<circle class="st3" cx="1455" cy="1608.6" r="5" id="123" nbgh="122" hn=""/>

<circle class="st3" cx="1632.3" cy="1477.7" r="5" id="124" nbgh="119,125,120" hn=""/>

<circle class="st3" cx="1785.1" cy="1407.7" r="5" id="125" nbgh="124,126" hn=""/>

<circle class="st3" cx="1969.8" cy="1597.4" r="5" id="126" nbgh="125,127" hn=""/>

<circle class="st3" cx="2103.9" cy="1541.4" r="5" id="127" nbgh="126,130,143,128" hn=""/>

<circle class="st3" cx="2181.4" cy="1626.9" r="5" id="128" nbgh="127,147,146,129" hn="0"/>

<circle class="st3" cx="2389.8" cy="1852" r="5" id="129" nbgh="128" hn="0"/>

<circle class="st3" cx="2282" cy="1418.6" r="5" id="130" nbgh="127,132" hn=""/>

<circle class="st3" cx="2500.4" cy="1379.1" r="5" id="131" nbgh="132,133" hn=""/>

<circle class="st3" cx="2457.4" cy="1315.5" r="5" id="132" nbgh="142,130,131" hn=""/>

<circle class="st3" cx="2610.5" cy="1496.8" r="5" id="133" nbgh="131,134" hn="8"/>

<circle class="st3" cx="2949" cy="1330.9" r="5" id="134" nbgh="135,133" hn="8"/>

<circle class="st3" cx="2809.6" cy="1201.6" r="5" id="135" nbgh="134,136" hn=""/>

<circle class="st3" cx="2630.6" cy="1006.3" r="5" id="136" nbgh="135,137" hn="9"/>

<circle class="st3" cx="2417.4" cy="807.6" r="5" id="137" nbgh="136,138" hn=""/>

<circle class="st3" cx="2324.6" cy="719" r="5" id="138" nbgh="137,139" hn=""/>

<circle class="st3" cx="2225.5" cy="622.9" r="5" id="139" nbgh="138,140" hn="10"/>

<circle class="st3" cx="2102.1" cy="517.1" r="5" id="140" nbgh="139,141" hn=""/>

<circle class="st3" cx="1958.8" cy="371.3" r="5" id="141" nbgh="140" hn="11"/>

<circle class="st3" cx="2457.4" cy="1168.6" r="5" id="142" nbgh="132,145" hn="15"/>

<circle class="st3" cx="2041.1" cy="1437.5" r="7.5" id="143" nbgh="127,150" hn=""/>

<circle class="st3" cx="2376.9" cy="1022.9" r="7.5" id="145" nbgh="142,152" hn=""/>

<circle class="st3" cx="2277" cy="1562.1" r="7.5" id="146" nbgh="128" hn=""/>

<circle class="st3" cx="2059.3" cy="1681.2" r="7.5" id="147" nbgh="128" hn=""/>

<circle class="st3" cx="1545.9" cy="2083.9" r="5" id="148" nbgh="106,112" hn="1"/>

<circle class="st3" cx="1377.6" cy="812.6" r="5" id="149" nbgh="116" hn="7"/>

<circle class="st3" cx="1900.7" cy="1192.5" r="7.5" id="150" nbgh="143" hn=""/>

<circle class="st3" cx="2248.8" cy="794.6" r="7.5" id="152" nbgh="145" hn=""/>

<line class="st" x1="1140.8" y1="1145.6" x2="1258.4" y2="1194.6"/>
<line class="st" x1="1258.4" y1="1194.6" x2="1409.8" y2="1145.6"/>
<line class="st" x1="1409.8" y1="1145.6" x2="1455.0" y2="1218.1"/>
<line class="st" x1="1455.0" y1="1218.1" x2="1483.8" y2="1252.1"/>
<line class="st" x1="1483.8" y1="1252.1" x2="1425.6" y2="1302.1"/>
<line class="st" x1="1425.6" y1="1302.1" x2="1632.3" y2="1477.7"/>
<line class="st" x1="1632.3" y1="1477.7" x2="1785.1" y2="1407.7"/>
<line class="st" x1="1785.1" y1="1407.7" x2="1969.8" y2="1597.4"/>
<line class="st" x1="1969.8" y1="1597.4" x2="2103.9" y2="1541.4"/>
<line class="st" x1="2103.9" y1="1541.4" x2="2041.1" y2="1437.5"/>
<line class="st" x1="2041.1" y1="1437.5" x2="1900.7" y2="1192.5"/>
</svg>