<?xml version="1.0" encoding="utf-8"?>
<!-- Generator: Adobe Illustrator 19.2.1, SVG Export Plug-In . SVG Version: 6.00 Build 0)  -->
<svg version="1.1" id="Layer_1" xmlns="http://www.w3.org/2000/svg" xmlns:xlink="http://www.w3.org/1999/xlink" x="0px" y="0px"
	 viewBox="0 0 2381.1 1788.2" style="enable-background:new 0 0 2381.1 1788.2;" xml:space="preserve">
<style type="text/css">
	.st0{fill:none;}
	.st1{fill:none;stroke:#949291;stroke-width:6;stroke-linecap:round;stroke-miterlimit:10;}
	.st2{fill:#949291;}
</style>
<line class="st0" x1="123.6" y1="309" x2="171.9" y2="196.3"/>
<g>
	<polygon class="st1" points="1258.4,1148.4 1235.7,1125.7 1235.7,1049.9 1174.9,989.2 1440.1,837.4 1571.8,968.9 1306.7,1120.7 	
		"/>
	<polygon class="st1" points="922.5,1340.8 554.3,973 734.3,869.9 915.9,1051.2 915.7,1051.3 1102.4,1237.7 	"/>
	<polygon class="st1" points="1199.7,1257.8 1199.7,1182 1150.8,1210 1102.4,1237.7 1079.8,1215 1235.7,1125.7 1258.4,1148.4 
		1257.7,1148.8 1257.7,1224.6 	"/>
	<polygon class="st1" points="207.1,412.6 499.3,245.2 592.9,338.7 548.9,363.9 534.9,350 534.9,296.1 500.6,315.7 344.8,405.1 
		310.5,424.7 310.5,500.6 252.5,533.8 252.5,458 	"/>
	<polygon class="st1" points="819.1,954.6 818.9,954.4 775.2,910.7 775.2,846.4 878.1,787.5 890.1,780.6 993.1,883.4 885.5,945 
		819.1,878.8 	"/>
	<polygon class="st1" points="1079.8,1215 819.1,954.6 819.1,878.8 1079.8,1139.2 	"/>
	<polygon class="st1" points="1571.8,968.9 1552,949.1 1552,873.3 1620,941.2 	"/>
	<polygon class="st1" points="734.3,869.9 649.2,918.7 649.2,842.8 686.1,821.7 734.3,794.1 	"/>
	<polygon class="st1" points="1440.1,837.4 1174.9,989.2 1126.7,941 1391.9,789.2 1440.1,761.5 	"/>
	<polygon class="st1" points="1440.1,837.4 1440.1,761.5 1488.4,809.7 1508.1,829.5 1508.1,905.3 	"/>
	<polygon class="st1" points="734.3,869.9 734.3,794.1 745.9,805.7 764.2,824 775.2,834.9 775.2,846.4 775.2,894.3 775.2,910.7 	"/>
	<polygon class="st1" points="1257.7,1148.8 1306.7,1120.7 1306.7,1196.6 1257.7,1224.6 	"/>
	<polygon class="st1" points="1306.7,1196.6 1306.7,1120.7 1354.9,1168.9 1433.7,1247.6 1385.5,1275.3 	"/>
	<path class="st1" d="M2078.4,678.6l-131.6-131.4v-75.9l179.2,179c0.4,0.4,0.3,1-0.2,1.2L2078.4,678.6z"/>
	<path class="st1" d="M1946.8,547.2l-103.7,59.4v-75.9l55.4-31.7l47.6-27.3c0.3-0.2,0.7,0,0.7,0.4V547.2z"/>
	<path class="st1" d="M1354.9,1168.9l-48.2-48.2L2126,651.4c0.3-0.2,0.7,0,0.7,0.4v75.1L1354.9,1168.9z"/>
	<path class="st1" d="M1615.3,1387.5l-457.1,261.9c-0.7,0.4-1.6-0.1-1.6-0.9v-73.9l458.7-262.8V1387.5z"/>
	<path class="st1" d="M1154.3,1648L116.5,611.6v-74c0-0.7,0.8-1,1.3-0.5l1038.8,1037.4v72.6
		C1156.6,1648.3,1155.2,1648.9,1154.3,1648z"/>
	<path class="st1" d="M158.8,440.2v-75.8l0,0l48.3,48.2l45.4,45.4l-48.3,27.6L158.8,440.2z"/>
	<polygon class="st1" points="1118.5,1504 1097.8,1515.8 1049.6,1467.7 1118.5,1428.2 	"/>
	<path class="st1" d="M1567,1339.4l-58.7-58.7v-74.8c0-0.4,0.4-0.6,0.7-0.3l106.3,106.1L1567,1339.4z"/>
	<path class="st1" d="M1384.8,1351.5v-75.8l0.7-0.4l120.8-69.3c0.9-0.5,2,0.1,2,1.1v73.5L1384.8,1351.5z"/>
	<path class="st1" d="M1203.6,525.3l504.8-289.1c0.8-0.5,1.8,0.1,1.8,1.1V311l-458.4,262.6L1203.6,525.3z"/>
	<path class="st1" d="M1899.5,499l-188.3-188.1v-73.2c0-1,1.2-1.5,1.9-0.8l234.7,234.3L1899.5,499z"/>
	<polygon class="st1" points="1440.1,761.5 1785.1,563.9 1785.1,639.8 1488.4,809.7 	"/>
	<polygon class="st1" points="500.6,560.7 393,453.2 344.8,405.1 500.6,315.7 	"/>
	<polygon class="st1" points="931.1,821.4 920.6,811 890.1,780.6 878.1,787.5 859.8,769.2 847.7,776.1 829.4,757.9 817.4,764.8 
		799.1,746.5 787,753.4 768.6,735 756.5,741.9 653.6,639.1 641.5,646 623.2,627.7 611.2,634.7 592.9,616.4 580.8,623.3 562.5,605.1 
		551.4,611.4 500.6,560.7 500.6,315.7 534.9,350 548.9,363.9 931.1,745.6 	"/>
	<path class="st1" d="M686.6,211.3L1074.8,599l-48.3,27.7L685.3,285.9v-74.1C685.3,211.1,686.1,210.8,686.6,211.3z"/>
	<polygon class="st1" points="890.1,704.7 953.5,668.5 953.5,744.3 931.1,757.1 931.1,745.6 	"/>
	<path class="st1" d="M685.3,215.1v70.8l-92.4,52.8v-75.8l88-50.4C682.9,211.4,685.3,212.8,685.3,215.1z"/>
	<polygon class="st1" points="1391.9,789.2 1343.8,741.2 1343.8,665.3 1440.1,761.5 	"/>
	<polygon class="st1" points="1205.6,604.1 1205.6,528.3 1253.8,576.5 1301.9,624.5 1301.9,700.3 	"/>
	<polygon class="st1" points="1011.4,711.1 1011.4,635.3 1203.6,525.3 1203.6,601.1 	"/>
	<path class="st1" d="M252.5,458v75.8L164.8,584l-45.2-45.2c-1.5-1.5-1.2-4.1,0.7-5.2l84-48.1L252.5,458z"/>
	<polygon class="st1" points="344.8,480.9 310.5,500.6 310.5,424.7 344.8,405.1 	"/>
	<polygon class="st1" points="506.1,924.8 591.2,876.1 591.2,951.9 554.3,973 	"/>
	<polygon class="st1" points="344.8,480.9 344.8,405.1 393,453.2 500.6,560.7 551.4,611.4 569.7,629.7 588,647.9 606.3,666.2 
		636.8,696.7 709.2,769 727.7,787.5 734.3,794.1 686.1,821.7 	"/>
	<polygon class="st1" points="922.5,1340.8 1150.8,1210 1150.8,1285.8 970.8,1388.9 	"/>
	<polygon class="st1" points="534.9,296.1 534.9,350 500.6,315.7 	"/>
	<polygon class="st1" points="1199.7,1182 1199.7,1257.8 1199,1258.2 1150.8,1210 	"/>
	<polygon class="st1" points="1176.5,1470.8 1176.5,1395 1326.8,1308.9 1326.8,1384.7 	"/>
	<path class="st1" d="M1150.8,1285.8v-74.2c0-0.6,0.7-0.9,1.1-0.5l47.1,47.1l78.8,78.7l-48.2,27.7L1150.8,1285.8z"/>
	<polygon class="st1" points="993.1,883.4 975,865.3 975,789.5 1096.2,910.5 1084.1,917.4 1065.8,899.2 1053.8,906.1 1035.5,887.8 
		1023.4,894.7 1005.2,876.5 	"/>
	<polygon class="st1" points="1079.8,1139.2 940.3,999.8 1096.2,910.5 1235.7,1049.9 	"/>
	<polygon class="st1" points="1079.8,1139.2 1235.7,1049.9 1235.7,1125.7 1079.8,1215 	"/>
	<path class="st1" d="M775.2,846.4v-11.5l-11-10.9l-18.3-18.3l-11.6-11.6l-6.6-6.6l-18.5-18.4l-103-102.8l-36.6-36.5l-18.3-18.3
		l11.1-6.4l18.3,18.2l12.1-6.9l18.3,18.3l12.1-6.9l18.3,18.2l-35.3,20.2l47.3-27.1l103,102.8l12.1-6.9l18.4,18.4l12.1-6.9l18.3,18.2
		l12.1-6.9l18.3,18.3l12.1-6.9l18.3,18.3L775.2,846.4z M940.3,999.8L922,981.5l-18.3-18.3l-18.3-18.3L993,883.3l12.1-6.9l18.3,18.3
		l12.1-6.9l18.3,18.3l12.1-6.9l18.3,18.3L940.3,999.8z"/>
	<path class="st2" d="M1577.6,548.1c2.1,0,4-0.8,5.4-2.2s2.2-3.3,2.2-5.4v-8.9c0-2.1-0.8-4-2.2-5.5c-1.5-1.5-3.3-2.2-5.4-2.2H1567
		c-2.1,0-3.9,0.7-5.4,2.2s-2.2,3.3-2.2,5.5v8.9c0,2.1,0.8,3.9,2.2,5.4s3.3,2.2,5.4,2.2H1577.6z M1559.9,578.2
		c-0.9,0-1.8-0.4-2.5-1.1c-0.7-0.7-1.1-1.5-1.1-2.5s0.3-1.8,1.1-2.5c0.7-0.7,1.5-1.1,2.5-1.1c3.2,0,6.2-0.2,9.2-0.6
		c3-0.4,5.7-1.3,8-2.9c2.1-1.4,3.9-3.2,5.3-5.6c1.4-2.4,2.2-5.3,2.6-8.8c-1.1,0.6-2.3,1.1-3.5,1.4c-1.2,0.3-2.5,0.5-3.8,0.5h-10.6
		c-2.1,0-4-0.4-5.8-1.1c-1.8-0.8-3.4-1.8-4.7-3.1c-1.3-1.3-2.4-2.9-3.1-4.7c-0.8-1.8-1.1-3.7-1.1-5.8v-8.9c0-2.1,0.4-4,1.1-5.8
		s1.8-3.4,3.1-4.7c1.3-1.3,2.9-2.4,4.7-3.1c1.8-0.8,3.7-1.1,5.8-1.1h10.6c2.1,0,4,0.4,5.8,1.1c1.8,0.8,3.4,1.8,4.7,3.1
		c1.3,1.3,2.4,2.9,3.1,4.7c0.8,1.8,1.1,3.7,1.1,5.8v15.9c0,2.4-0.2,4.9-0.5,7.3c-0.3,2.5-0.9,4.9-1.8,7.2c-0.8,2.3-2,4.5-3.5,6.5
		s-3.4,3.7-5.7,5.2c-3.2,2-6.6,3.2-10.3,3.8C1567,578,1563.4,578.2,1559.9,578.2z"/>
	<path class="st2" d="M1181,758.5c0-2-0.7-3.6-2.1-5s-3-2.1-5-2.1h-9.5c-2,0-3.7,0.7-5,2.1c-1.4,1.4-2.1,3.1-2.1,5v3.5
		c0,2,0.7,3.7,2.1,5c1.4,1.4,3.1,2.1,5,2.1h9.5c2,0,3.6-0.7,5-2.1c1.4-1.4,2.1-3,2.1-5V758.5z M1163.9,776.2c-2.1,0-4,0.8-5.5,2.2
		c-1.5,1.5-2.2,3.3-2.2,5.4v5.9c0,2.1,0.7,4,2.2,5.4c1.5,1.5,3.3,2.2,5.5,2.2h10.6c2.1,0,3.9-0.8,5.4-2.2c1.5-1.5,2.2-3.3,2.2-5.4
		v-5.9c0-2.1-0.7-4-2.2-5.4c-1.5-1.5-3.3-2.2-5.4-2.2H1163.9z M1173.9,744.3c2,0,3.8,0.4,5.6,1.1s3.2,1.7,4.5,3s2.3,2.8,3,4.5
		c0.7,1.8,1.1,3.6,1.1,5.6v3.5c0,2.1-0.4,4-1.2,5.7c-0.8,1.7-1.9,3.2-3.2,4.5c1.7,1.4,3.1,3.1,4.1,5.1s1.5,4.2,1.5,6.6v5.9
		c0,2.1-0.4,4-1.1,5.8c-0.8,1.8-1.8,3.4-3.1,4.7c-1.3,1.3-2.9,2.4-4.7,3.1c-1.8,0.8-3.7,1.1-5.8,1.1H1164c-2.1,0-4-0.4-5.8-1.1
		c-1.8-0.8-3.4-1.8-4.7-3.1c-1.3-1.3-2.4-2.9-3.1-4.7c-0.8-1.8-1.1-3.7-1.1-5.8v-5.9c0-2.4,0.5-4.6,1.5-6.6s2.3-3.7,4-5
		c-1.3-1.3-2.4-2.8-3.2-4.6c-0.8-1.7-1.1-3.7-1.1-5.7v-3.5c0-2,0.4-3.8,1.1-5.6c0.7-1.7,1.7-3.2,3-4.5s2.8-2.3,4.5-3
		s3.6-1.1,5.6-1.1H1173.9z"/>
	<path class="st2" d="M381.1,729.6c-1,0-1.9-0.3-2.5-1c-0.7-0.7-1-1.5-1-2.5s0.3-1.9,1-2.5c0.7-0.7,1.5-1,2.5-1h10.6v-43.2
		l-10.2,8.2c-0.7,0.5-1.4,0.8-2.2,0.8c-1,0-1.9-0.3-2.5-1c-0.7-0.7-1-1.5-1-2.5c0-1.1,0.4-2.1,1.4-2.8l14.9-12
		c0.2-0.2,0.6-0.4,1.1-0.7s1.1-0.5,1.9-0.5c1.1,0,2,0.4,2.7,1.1s1.1,1.7,1.1,2.8v49.9h10.6c1,0,1.9,0.3,2.5,1c0.7,0.7,1,1.5,1,2.5
		s-0.3,1.8-1,2.5s-1.5,1-2.5,1L381.1,729.6L381.1,729.6z"/>
	<path class="st2" d="M442.6,729.6c-1.8,0-3.5-0.3-5.1-0.9c-1.6-0.6-3.1-1.4-4.3-2.4c-1.3-1-2.3-2.2-3.2-3.6
		c-0.8-1.4-1.4-2.8-1.8-4.3c-0.3-1.5-0.1-2.6,0.5-3.5s1.6-1.3,2.7-1.3c1,0,1.8,0.3,2.4,0.8s1,1.2,1.2,2.1c0.5,1.7,1.4,3.2,2.7,4.3
		c1.4,1.1,3,1.7,4.9,1.7h11.1c2.1,0,4-0.7,5.4-2.2c1.5-1.5,2.2-3.3,2.2-5.4V706c0-2.1-0.7-3.9-2.2-5.4s-3.3-2.2-5.4-2.2h-11.2
		c-1.2,0-2.2,0.1-2.9,0.3c-0.7,0.2-1.3,0.4-1.9,0.7c-0.4,0.2-0.8,0.3-1.3,0.5s-1,0.2-1.6,0.2c-1.3,0-2.5-0.4-3.4-1.3s-1.4-2-1.4-3.4
		v-21.3c0-1.4,0.5-2.5,1.4-3.4s2-1.3,3.4-1.3h27.8c1,0,1.9,0.3,2.5,1c0.7,0.7,1,1.5,1,2.5s-0.3,1.9-1,2.5c-0.7,0.7-1.5,1-2.5,1
		h-25.4v15.5c0.6-0.2,1.4-0.4,2.3-0.6c0.9-0.1,1.9-0.2,3-0.2h11.2c2.1,0,4,0.4,5.8,1.1c1.8,0.8,3.4,1.8,4.7,3.1s2.4,2.9,3.1,4.7
		c0.8,1.8,1.1,3.7,1.1,5.8v8.9c0,2.1-0.4,4-1.1,5.8c-0.8,1.8-1.8,3.4-3.1,4.7s-2.9,2.4-4.7,3.1c-1.8,0.8-3.7,1.1-5.8,1.1h-11.1
		L442.6,729.6L442.6,729.6z"/>
	<path class="st2" d="M741.5,522.3c-1,0-1.9-0.3-2.5-1c-0.7-0.7-1-1.5-1-2.5s0.3-1.9,1-2.5c0.7-0.7,1.5-1,2.5-1h10.6v-43.2
		l-10.2,8.2c-0.7,0.5-1.4,0.8-2.2,0.8c-1,0-1.9-0.3-2.5-1c-0.7-0.7-1-1.5-1-2.5c0-1.1,0.4-2.1,1.4-2.8l14.9-12
		c0.2-0.2,0.6-0.4,1.1-0.7c0.5-0.3,1.1-0.5,1.9-0.5c1.1,0,2,0.4,2.7,1.1s1.1,1.7,1.1,2.8v49.9h10.6c1,0,1.9,0.3,2.5,1
		c0.7,0.7,1,1.5,1,2.5s-0.3,1.8-1,2.5s-1.5,1-2.5,1L741.5,522.3L741.5,522.3L741.5,522.3z"/>
	<path class="st2" d="M804.7,522.9c-1,0-1.8-0.3-2.5-1.1c-0.7-0.7-1.1-1.5-1.1-2.5c0-3.1,0.2-5.9,0.6-8.5c0.4-2.6,1.1-5.1,2-7.4
		c0.9-2.4,2.1-4.7,3.5-7.1c1.4-2.3,3.2-4.8,5.2-7.5l2.2-2.9c0.9-1.2,1.8-2.4,2.8-3.6s1.9-2.5,2.7-3.8c0.8-1.4,1.5-2.8,2.1-4.4
		c0.6-1.5,0.9-3.2,1.1-5.1h-26.4v7.1c0,1-0.4,1.8-1.1,2.5c-0.7,0.7-1.5,1-2.5,1s-1.8-0.3-2.5-1s-1.1-1.5-1.1-2.5v-10.5
		c0-1,0.4-1.8,1.1-2.5c0.7-0.7,1.5-1.1,2.5-1.1H827c1,0,1.8,0.3,2.5,1.1c0.7,0.7,1.1,1.5,1.1,2.5v1.2c0,2.5-0.3,4.8-0.9,6.8
		c-0.6,2.1-1.4,4.1-2.3,6c-1,1.9-2.1,3.8-3.3,5.5c-1.3,1.8-2.6,3.5-4,5.3l-2.2,2.8c-1.2,1.6-2.4,3.2-3.6,5c-1.2,1.7-2.2,3.7-3.1,5.8
		c-0.9,2.1-1.6,4.4-2.2,7c-0.6,2.5-0.8,5.4-0.8,8.4c0,1-0.4,1.8-1.1,2.5C806.5,522.6,805.6,522.9,804.7,522.9z"/>
	<path class="st2" d="M1760.7,774.6c-1,0-1.9-0.3-2.5-1c-0.7-0.7-1-1.5-1-2.5s0.3-1.9,1-2.5c0.7-0.7,1.5-1,2.5-1h10.6v-43.2
		l-10.2,8.2c-0.7,0.5-1.4,0.8-2.2,0.8c-1,0-1.9-0.3-2.5-1c-0.7-0.7-1-1.5-1-2.5c0-1.1,0.4-2,1.4-2.8l14.9-12
		c0.2-0.2,0.6-0.4,1.1-0.7s1.1-0.5,1.9-0.5c1.1,0,2,0.4,2.7,1.1c0.7,0.7,1,1.7,1,2.8v49.9h10.6c1,0,1.9,0.3,2.5,1
		c0.7,0.7,1,1.5,1,2.5s-0.3,1.8-1,2.5s-1.5,1-2.5,1L1760.7,774.6L1760.7,774.6z"/>
	<path class="st2" d="M1833.4,767.5c2.1,0,3.9-0.7,5.4-2.2s2.2-3.3,2.2-5.5v-30.7c0-2.1-0.8-3.9-2.2-5.4c-1.5-1.5-3.3-2.2-5.4-2.2
		h-10.6c-2.1,0-3.9,0.7-5.4,2.2s-2.2,3.3-2.2,5.4v30.7c0,2.1,0.8,4,2.2,5.5c1.5,1.5,3.3,2.2,5.4,2.2H1833.4z M1822.8,774.6
		c-2.1,0-4-0.4-5.8-1.1c-1.8-0.8-3.4-1.8-4.7-3.1c-1.3-1.3-2.4-2.9-3.1-4.7c-0.8-1.8-1.1-3.7-1.1-5.8v-30.7c0-2.1,0.4-4,1.1-5.8
		c0.8-1.8,1.8-3.4,3.1-4.7c1.3-1.3,2.9-2.4,4.7-3.1c1.8-0.8,3.7-1.1,5.8-1.1h10.6c2.1,0,4,0.4,5.8,1.1c1.8,0.8,3.4,1.8,4.7,3.1
		c1.3,1.3,2.4,2.9,3.1,4.7c0.8,1.8,1.1,3.7,1.1,5.8v30.7c0,2.1-0.4,4-1.1,5.8c-0.8,1.8-1.8,3.4-3.1,4.7c-1.3,1.3-2.9,2.4-4.7,3.1
		c-1.8,0.8-3.7,1.1-5.8,1.1H1822.8z"/>
	<path class="st2" d="M1050.4,1396.9c-1,0-1.8-0.3-2.5-1s-1-1.5-1-2.5s0.3-1.9,1-2.5c0.7-0.7,1.5-1,2.5-1h10.6v-43.3l-10.2,8.2
		c-0.7,0.5-1.4,0.8-2.2,0.8c-1,0-1.9-0.3-2.5-1c-0.7-0.7-1-1.5-1-2.5c0-1.1,0.4-2.1,1.3-2.8l14.9-12c0.2-0.2,0.6-0.4,1-0.7
		c0.5-0.3,1.1-0.5,1.9-0.5c1.1,0,2,0.4,2.7,1.1s1.1,1.7,1.1,2.8v49.9h10.6c1,0,1.9,0.3,2.5,1c0.7,0.7,1,1.5,1,2.5s-0.3,1.9-1,2.5
		c-0.7,0.7-1.5,1-2.5,1H1050.4z"/>
	<path class="st2" d="M1103,1396.9c-1,0-1.9-0.2-2.7-0.7c-0.8-0.5-1.4-1.1-1.7-2c-0.7-1.8-0.3-3.5,1.2-5l21.3-21.9
		c2.1-2.2,3.9-4.1,5.2-5.7c1.3-1.6,2.4-3.1,3-4.3c0.6-1,0.9-1.9,1.1-2.7s0.2-1.6,0.2-2.5c0-2.5-0.8-4.5-2.3-6s-3.5-2.3-6-2.3h-8.3
		c-2.3,0-4.3,0.8-5.9,2.4s-2.4,3.6-2.4,5.9v2.4c0,1-0.3,1.8-1,2.5s-1.5,1.1-2.5,1.1s-1.8-0.4-2.5-1.1s-1.1-1.5-1.1-2.5v-2.4
		c0-2.1,0.4-4.1,1.2-6c0.8-1.9,1.9-3.5,3.2-4.9c1.4-1.4,3-2.5,4.9-3.2c1.9-0.8,3.9-1.2,6-1.2h8.3c2.2,0,4.3,0.4,6.2,1.1
		c1.9,0.8,3.5,1.8,4.8,3.2c1.4,1.4,2.4,3,3.2,4.9c0.8,1.9,1.1,4,1.1,6.2c0,1.2-0.1,2.5-0.4,3.9c-0.2,1.4-0.9,3-1.9,4.8
		c-0.8,1.5-2,3.2-3.5,5s-3.4,4-5.9,6.5l-17.1,17.6h26.4c1,0,1.8,0.4,2.5,1.1s1.1,1.5,1.1,2.5s-0.4,1.8-1.1,2.5s-1.5,1.1-2.5,1.1
		H1103V1396.9L1103,1396.9z"/>
	<path class="st2" d="M1266.5,1439.6c-1,0-1.9-0.3-2.5-1c-0.7-0.7-1-1.5-1-2.5s0.3-1.9,1-2.5c0.7-0.7,1.5-1,2.5-1h10.6v-43.2
		l-10.2,8.2c-0.7,0.5-1.4,0.8-2.2,0.8c-1,0-1.9-0.3-2.5-1c-0.7-0.7-1-1.5-1-2.5c0-1.1,0.5-2.1,1.4-2.8l14.9-12
		c0.2-0.2,0.6-0.4,1.1-0.7s1.1-0.5,1.9-0.5c1.1,0,2,0.4,2.7,1.1s1.1,1.7,1.1,2.8v49.9h10.6c1,0,1.8,0.3,2.5,1s1,1.5,1,2.5
		s-0.3,1.9-1,2.5c-0.7,0.7-1.5,1-2.5,1h-28.4V1439.6z"/>
	<path class="st2" d="M1320.9,1424.9c0,2.1,0.8,4,2.2,5.4c1.5,1.5,3.3,2.2,5.4,2.2h10.6c2.1,0,4-0.7,5.4-2.2
		c1.5-1.5,2.2-3.3,2.2-5.4v-8.3c0-2.3-0.8-4.3-2.4-5.9s-3.6-2.4-5.9-2.4h-6.5c-1,0-1.9-0.3-2.5-1c-0.7-0.6-1-1.5-1-2.5
		c0-0.5,0.1-0.9,0.3-1.2c0.2-0.4,0.4-0.7,0.7-1.1l13.5-16.1h-24.4c-1,0-1.9-0.3-2.5-1c-0.7-0.7-1-1.5-1-2.5s0.3-1.9,1-2.5
		c0.7-0.7,1.5-1,2.5-1h30c1.3,0,2.4,0.3,3.2,1c0.8,0.7,1.1,1.6,1.1,2.8c0,0.3-0.1,0.7-0.2,1.1s-0.4,0.9-0.9,1.5l-12.5,15.4
		c2,0.1,3.9,0.5,5.7,1.3c1.8,0.8,3.3,1.9,4.7,3.2c1.4,1.4,2.4,3,3.2,4.8c0.8,1.8,1.2,3.8,1.2,6v8.3c0,2.1-0.4,4-1.1,5.8
		c-0.8,1.8-1.8,3.4-3.1,4.7c-1.3,1.3-2.9,2.4-4.7,3.1c-1.8,0.8-3.7,1.1-5.8,1.1h-10.6c-2.1,0-4-0.4-5.8-1.1
		c-1.8-0.8-3.4-1.8-4.7-3.1c-1.3-1.3-2.4-2.9-3.1-4.7c-0.8-1.8-1.1-3.7-1.1-5.8c0-1,0.3-1.9,1-2.5c0.7-0.7,1.5-1,2.5-1
		s1.9,0.3,2.5,1C1320.5,1423,1320.9,1423.9,1320.9,1424.9z"/>
	<line class="st1" x1="1326.8" y1="1363.3" x2="1326.8" y2="1308.9"/>
	<path class="st2" d="M1330.6,1011.1c-1,0-1.8-0.3-2.5-1s-1-1.5-1-2.5s0.3-1.9,1-2.5c0.7-0.7,1.5-1,2.5-1h10.6v-43.2l-10.2,8.2
		c-0.7,0.5-1.4,0.8-2.2,0.8c-1,0-1.9-0.3-2.5-1c-0.7-0.7-1-1.5-1-2.5c0-1.1,0.4-2.1,1.3-2.8l14.9-12c0.2-0.2,0.6-0.4,1.1-0.7
		s1.1-0.5,1.9-0.5c1.1,0,2,0.4,2.7,1.1c0.7,0.7,1.1,1.7,1.1,2.8v49.9h10.6c1,0,1.9,0.3,2.5,1c0.7,0.7,1,1.5,1,2.5s-0.3,1.9-1,2.5
		c-0.7,0.7-1.5,1-2.5,1L1330.6,1011.1L1330.6,1011.1z"/>
	<path class="st2" d="M1383.3,1009.8c-1,0-1.9-0.3-2.5-1c-0.7-0.7-1-1.5-1-2.5s0.3-1.9,1-2.5c0.7-0.7,1.5-1,2.5-1h10.6v-43.2
		l-10.2,8.2c-0.7,0.5-1.4,0.8-2.2,0.8c-1,0-1.9-0.3-2.5-1c-0.7-0.7-1-1.5-1-2.5c0-1.1,0.4-2.1,1.3-2.8l14.9-12
		c0.2-0.2,0.6-0.4,1-0.7c0.5-0.3,1.1-0.5,1.9-0.5c1.1,0,2,0.4,2.8,1.1c0.7,0.7,1.1,1.7,1.1,2.8v49.9h10.6c1,0,1.8,0.3,2.5,1
		s1,1.5,1,2.5s-0.3,1.9-1,2.5c-0.7,0.7-1.5,1-2.5,1L1383.3,1009.8L1383.3,1009.8L1383.3,1009.8z"/>
	<path class="st2" d="M799.7,1151.2c-1,0-1.9-0.3-2.5-1c-0.7-0.7-1-1.5-1-2.5s0.3-1.9,1-2.5c0.7-0.7,1.5-1,2.5-1h10.6V1101
		l-10.2,8.2c-0.7,0.5-1.4,0.8-2.2,0.8c-1,0-1.9-0.3-2.5-1c-0.7-0.7-1-1.5-1-2.5c0-1.1,0.5-2.1,1.4-2.8l14.9-12
		c0.2-0.2,0.6-0.4,1.1-0.7s1.1-0.5,1.9-0.5c1.1,0,2,0.4,2.7,1.1s1.1,1.7,1.1,2.8v49.9h10.6c1,0,1.9,0.3,2.5,1c0.7,0.7,1,1.5,1,2.5
		s-0.3,1.9-1,2.5c-0.7,0.7-1.5,1-2.5,1h-28.4L799.7,1151.2L799.7,1151.2z"/>
	<path class="st2" d="M851.1,1140.5c-1.2,0-2.4-0.3-3.4-0.9s-1.8-1.4-2.4-2.4c-0.6-1.1-0.9-2.3-0.8-3.6c0.1-1.3,0.6-2.5,1.3-3.8
		l24-38.5c0.6-0.8,1.3-1.4,2.2-1.6s1.8-0.1,2.7,0.4c0.8,0.6,1.4,1.3,1.6,2.3c0.2,1,0.1,1.8-0.4,2.6l-23.9,38.3h23.2v-23
		c0-1,0.4-1.8,1.1-2.5c0.7-0.7,1.5-1.1,2.5-1.1s1.8,0.4,2.5,1.1s1.1,1.5,1.1,2.5v23h4.1c1,0,1.8,0.4,2.5,1.1s1.1,1.5,1.1,2.5
		s-0.4,1.8-1.1,2.5c-0.7,0.7-1.5,1.1-2.5,1.1h-4.1v7.7c0,1-0.4,1.8-1.1,2.5c-0.7,0.7-1.5,1.1-2.5,1.1s-1.8-0.4-2.5-1.1
		s-1.1-1.5-1.1-2.5v-7.7H851.1L851.1,1140.5z"/>
	<path class="st2" d="M338.9,361.4c-1,0-1.9-0.3-2.5-1c-0.7-0.7-1-1.5-1-2.5s0.3-1.8,1-2.5s1.5-1,2.5-1h10.6v-43.2l-10.2,8.2
		c-0.7,0.5-1.4,0.8-2.2,0.8c-1,0-1.9-0.3-2.5-1c-0.7-0.7-1-1.5-1-2.5c0-1.1,0.5-2,1.4-2.8l14.9-12c0.2-0.2,0.6-0.4,1.1-0.7
		c0.5-0.3,1.1-0.5,1.9-0.5c1.1,0,2,0.4,2.7,1.1s1.1,1.7,1.1,2.8v49.9h10.6c1,0,1.9,0.3,2.5,1c0.7,0.7,1,1.5,1,2.5s-0.3,1.9-1,2.5
		c-0.7,0.7-1.5,1-2.5,1L338.9,361.4L338.9,361.4z"/>
	<path class="st2" d="M396.9,331.1c-2.1,0-4,0.7-5.4,2.2c-1.5,1.5-2.2,3.3-2.2,5.4v8.9c0,2.1,0.7,4,2.2,5.4s3.3,2.2,5.4,2.2h10.6
		c2.1,0,4-0.8,5.4-2.2s2.2-3.3,2.2-5.4v-8.9c0-2.1-0.7-3.9-2.2-5.4s-3.3-2.2-5.4-2.2H396.9z M396.9,362.5c-2.1,0-4-0.4-5.8-1.1
		c-1.8-0.8-3.4-1.8-4.7-3.1c-1.3-1.3-2.4-2.9-3.1-4.7c-0.8-1.8-1.1-3.7-1.1-5.8v-16c0-2.6,0.2-5.2,0.6-7.7s1.1-4.9,2.1-7.1
		s2.3-4.3,3.9-6.2c1.6-1.9,3.6-3.5,5.9-4.9c3.1-1.8,6.4-3.1,10-3.8s7.3-1.1,11.1-1.1c1,0,1.8,0.4,2.5,1.1s1.1,1.5,1.1,2.5
		s-0.4,1.8-1.1,2.5s-1.5,1.1-2.5,1.1c-3.8,0-7.2,0.3-10,0.9s-5.3,1.6-7.5,2.9c-2.8,1.6-4.9,3.7-6.2,6.2s-2.1,5.1-2.5,7.8
		c2.2-1.2,4.6-1.9,7.3-1.9h10.6c2.1,0,4,0.4,5.8,1.1c1.8,0.8,3.4,1.8,4.7,3.1c1.3,1.3,2.4,2.9,3.1,4.7c0.8,1.8,1.1,3.7,1.1,5.8v8.9
		c0,2.1-0.4,4-1.1,5.8c-0.8,1.8-1.8,3.4-3.1,4.7c-1.3,1.3-2.9,2.4-4.7,3.1c-1.8,0.8-3.7,1.1-5.8,1.1L396.9,362.5L396.9,362.5z"/>
	<path class="st1" d="M205.2,410.1l-46.7-46.6c-0.8-0.8-0.6-2.1,0.4-2.7l338.5-188.1v70"/>
	<path class="st1" d="M590.4,335.3l-92.1-92v-70c0-2.1,2.6-3.2,4.1-1.7l89.5,89.4v73.7C591.9,335.4,591,335.8,590.4,335.3z"/>
</g>
<circle class="st3" cx="570.3" cy="353" r="5" id="300" nbgh="313,327" hn=""/>
<circle class="st3" cx="984.8" cy="731.2" r="5" id="301" nbgh="327,304" hn=""/>
<circle class="st3" cx="953.5" cy="843.8" r="5" id="302" nbgh="304,310" hn=""/>
<circle class="st3" cx="1322.3" cy="720.8" r="5" id="303" nbgh="323,328" hn=""/>
<circle class="st3" cx="1040.6" cy="799.1" r="5" id="304" nbgh="301,302,323" hn=""/>
<circle class="st3" cx="1818.4" cy="624.2" r="5" id="305" nbgh="306,308" hn=""/>
<circle class="st3" cx="1687.5" cy="516.7" r="5" id="306" nbgh="305,328" hn=""/>
<circle class="st3" cx="1528.9" cy="926.1" r="5" id="307" nbgh="309,334" hn=""/>
<circle class="st3" cx="1900" cy="716.1" r="5" id="308" nbgh="305,334" hn=""/>
<circle class="st3" cx="1378.4" cy="1014.9" r="5" id="309" nbgh="307,329" hn="11"/>
<circle class="st3" cx="894.1" cy="886.4" r="5" id="310" nbgh="302,339" hn=""/>
<circle class="st3" cx="623.5" cy="935.1" r="5" id="311" nbgh="324,340" hn=""/>
<circle class="st3" cx="283.8" cy="517.1" r="5" id="312" nbgh="326,324" hn=""/>
<circle class="st3" cx="503.3" cy="285.4" r="5" id="313" nbgh="300,325" hn=""/>
<circle class="st3" cx="257.5" cy="430" r="5" id="314" nbgh="312,325" hn=""/>
<circle class="st3" cx="1152.3" cy="1487.7" r="5" id="316" nbgh="317,318" hn=""/>
<circle class="st3" cx="1089.1" cy="1408.7" r="5" id="317" nbgh="316" hn="12"/>
<circle class="st3" cx="1187.1" cy="1527.4" r="5" id="318" nbgh="316,338" hn=""/>
<circle class="st3" cx="1401.6" cy="1408.7" r="5" id="319" nbgh="320,338" hn=""/>
<circle class="st3" cx="1359.4" cy="1368.3" r="5" id="320" nbgh="319,322" hn=""/>
<circle class="st3" cx="1232.6" cy="1240.6" r="5" id="321" nbgh="322,333" hn=""/>
<circle class="st3" cx="1296.8" cy="1292.8" r="5" id="322" nbgh="310,321" hn=""/>
<circle class="st3" cx="1174.3" cy="791.8" r="5" id="323" nbgh="303,304" hn="8"/>
<circle class="st3" cx="427.7" cy="742.2" r="5" id="324" nbgh="311,312" hn="15"/>
<circle class="st3" cx="375.8" cy="360" r="5" id="325" nbgh="313,314" hn="16"/>
<circle class="st3" cx="257.5" cy="427.2" r="5" id="326" nbgh="312,325" hn=""/>
<circle class="st3" cx="786.9" cy="526" r="5" id="327" nbgh="300, 301" hn="17"/>
<circle class="st3" cx="1568.7" cy="568.2" r="5" id="328" nbgh="303,306" hn="9"/>
<circle class="st3" cx="1253.9" cy="1143.7" r="5" id="329" nbgh="309,333" hn=""/>
<circle class="st3" cx="1094.1" cy="1229.4" r="5" id="330" nbgh="331,333" hn=""/>
<circle class="st3" cx="989.8" cy="1287.8" r="5" id="331" nbgh="330,332" hn=""/>
<circle class="st3" cx="852.7" cy="1144.6" r="5" id="332" nbgh="331,340" hn="14"/>
<circle class="st3" cx="1214.3" cy="1172.6" r="5" id="333" nbgh="321,329,330" hn=""/>
<circle class="st3" cx="1807.9" cy="774.1" r="5" id="334" nbgh="307,308" hn="10"/>
<circle class="st3" cx="663.5" cy="705.3" r="7.5" id="335" nbgh="310" hn=""/>
<circle class="st3" cx="980" cy="946.1" r="7.5" id="336" nbgh="310,337" hn=""/>
<circle class="st3" cx="1089.2" cy="1029.8" r="7.5" id="337" nbgh="336" hn=""/>
<circle class="st3" cx="1322.3" cy="1456.1" r="5" id="338" nbgh="318,319" hn="13"/>
<circle class="st3" cx="793.4" cy="929.9" r="5" id="339" nbgh="310,340" hn=""/>
<circle class="st3" cx="691.8" cy="987.9" r="5" id="340" nbgh="311,339" hn=""/>
</svg>
