<?xml version="1.0" encoding="utf-8"?>
<!-- Generator: Adobe Illustrator 19.2.1, SVG Export Plug-In . SVG Version: 6.00 Build 0)  -->
<svg version="1.1" id="Layer_1" xmlns="http://www.w3.org/2000/svg" xmlns:xlink="http://www.w3.org/1999/xlink" x="0px" y="0px"
	 viewBox="0 0 2381.1 1904.7" style="enable-background:new 0 0 2381.1 1904.7;" xml:space="preserve">
<style type="text/css">
	.st0{fill:none;}
	.st1{fill:#FFFFFF;}
	.st2{fill:none;stroke:#949291;stroke-width:6;stroke-linecap:round;stroke-miterlimit:10;}
	.st3{fill:#949291;}
	.st4{fill:none;stroke:#949292;stroke-width:6;stroke-linecap:round;stroke-linejoin:round;stroke-miterlimit:10;}
</style>
<line class="st0" x1="123.6" y1="309" x2="171.9" y2="196.3"/>
<g>
	<polygon class="st1" points="1136.3,1338.9 1136.3,1310.7 1136,1310.3 1117.7,1292.1 1099.2,1273.7 1081,1255.4 1062.7,1237.2 
		1044.4,1218.9 1027.3,1201.8 971.8,1146.4 941.4,1116.1 923.2,1097.8 934.3,1091.4 952.6,1109.7 964.6,1102.8 995,1133.1 
		1067.6,1205.6 1079.7,1198.7 1097.9,1217 1110,1210 1128.3,1228.3 1140.3,1221.4 1158.6,1239.7 1170.7,1232.7 1189.1,1251.2 
		1201.2,1244.3 1219.5,1262.5 1231.5,1255.6 1249.8,1273.9 	"/>
	<polygon class="st1" points="557.1,563.1 557.1,487.3 591.4,521.6 605.4,535.5 648.5,578.6 600.3,606.2 557.2,563.1 	"/>
	<polygon class="st1" points="557.1,563.1 557.2,563.1 449.5,624.8 449.5,624.8 	"/>
	<polygon class="st1" points="367,672.1 367,596.3 401.3,576.6 401.3,652.4 	"/>
	<polygon class="st1" points="555.8,416.7 263.6,584.1 215.3,535.9 555.8,340.9 	"/>
	<polygon class="st1" points="649.4,510.2 555.8,416.7 555.8,340.9 649.4,434.4 	"/>
	<polygon class="st1" points="741.8,457.4 649.4,510.2 649.4,434.4 741.8,381.6 	"/>
	<polygon class="st1" points="1083,798.2 741.8,457.4 741.8,381.6 1131.3,770.6 	"/>
	<polygon class="st1" points="1010,915.9 994.9,924.5 946.6,876.3 1010,840 	"/>
	<polygon class="st1" points="309,629.5 309,705.3 221.3,755.5 173,707.4 260.7,657.1 	"/>
	<polygon class="st1" points="1067.9,882.6 1067.9,806.8 1260.1,696.8 1260.1,772.6 	"/>
	<polygon class="st1" points="1411.4,1340.4 1363.2,1292.3 2183.2,822.5 2183.2,898.4 	"/>
	<polygon class="st1" points="260.7,657.1 215.3,611.7 215.3,535.9 263.6,584.1 309,629.5 	"/>
	<polygon class="st1" points="1106.1,1715 1106.1,1639.2 1490.2,1419.2 1490.2,1495 	"/>
	<polygon class="st1" points="1448.4,960.7 1400.3,912.7 1400.3,836.9 1496.6,933.1 	"/>
	<polygon class="st1" points="1356.4,868.8 1260.1,772.6 1260.1,696.8 1308.3,745 1356.4,793 	"/>
	<polygon class="st1" points="1628.3,1140.4 1608.5,1120.7 1608.5,1044.8 1676.5,1112.7 	"/>
	<polygon class="st1" points="1564.6,1076.8 1496.6,1008.9 1496.6,933.1 1544.9,981.3 1564.6,1001 	"/>
	<polygon class="st1" points="1841.6,811.3 1544.9,981.3 1496.6,933.1 1841.6,735.5 	"/>
	<polygon class="st1" points="2003.3,718.7 1899.6,778.1 1899.6,702.3 1955,670.5 2003.3,642.9 	"/>
	<polygon class="st1" points="2134.9,850.2 2003.3,718.7 2003.3,642.9 2183.2,822.5 	"/>
	<polygon class="st1" points="1496.6,1008.9 1231.4,1160.7 1183.2,1112.5 1448.4,960.7 1496.6,933.1 	"/>
	<polygon class="st1" points="1955,670.5 1766.7,482.4 1766.7,406.6 2003.3,642.9 	"/>
	<polygon class="st1" points="1766.7,482.4 1308.3,745 1260.1,696.8 1766.7,406.6 	"/>
	<polygon class="st1" points="1292.2,1297.2 1261.9,1266.9 1249.8,1273.9 1231.5,1255.6 1219.5,1262.5 1201.2,1244.3 1189.1,1251.2 
		1170.7,1232.7 1158.6,1239.7 1140.3,1221.4 1128.3,1228.3 1110,1210 1097.9,1217 1079.7,1198.7 1067.6,1205.6 995,1133.1 
		964.6,1102.8 952.6,1109.7 934.3,1091.4 923.2,1097.8 648.5,823.5 648.5,578.6 1183.2,1112.5 1231.4,1160.7 1292.2,1221.4 	"/>
	<polygon class="st1" points="1106.1,1715 173,783.2 173,707.4 221.3,755.5 1106.1,1639.2 	"/>
	<polygon class="st1" points="557.1,487.3 591.4,467.6 591.4,521.6 	"/>
	<polygon class="st1" points="790.8,965.6 790.8,1041.4 705.7,1090.2 705.7,1014.4 742.6,993.3 	"/>
	<polygon class="st1" points="1292.2,1297.2 1136.4,1386.6 1136.3,1386.5 	"/>
	<polygon class="st1" points="1363.2,1368.1 1314.2,1396.1 1314.2,1320.3 1314.9,1319.9 1363.2,1292.3 	"/>
	<polygon class="st1" points="1363.2,1368.1 1363.2,1292.3 1411.4,1340.4 1490.2,1419.2 1442,1446.8 	"/>
	<polygon class="st1" points="1256.2,1429.3 1255.5,1429.7 1207.3,1381.5 1256.2,1353.5 	"/>
	<polygon class="st1" points="647.7,1123.4 610.8,1144.5 562.6,1096.4 647.7,1047.6 	"/>
	<polygon class="st1" points="979,1512.3 1066.2,1462.3 1066.2,1538.2 1027.3,1560.5 	"/>
	<polygon class="st1" points="1286.1,1536.1 1207.3,1457.4 1207.3,1381.5 1255.5,1429.7 1334.3,1508.4 	"/>
	<polygon class="st1" points="1207.3,1381.5 1207.3,1457.4 1124.2,1504.9 1124.2,1429.1 1147.1,1416 	"/>
	<polygon class="st1" points="742.6,993.3 401.3,652.4 401.3,576.6 449.5,624.8 449.5,624.8 790.8,965.6 	"/>
	<polygon class="st1" points="648.5,823.5 492.7,667.9 648.5,578.6 	"/>
	<polygon class="st1" points="1136.3,1386.5 790.8,1041.4 790.8,965.6 1136,1310.3 1136.3,1310.7 	"/>
	<line class="st2" x1="1110" y1="1210" x2="1128.3" y2="1228.3"/>
	<line class="st2" x1="1170.7" y1="1232.7" x2="1189.1" y2="1251.2"/>
	<line class="st2" x1="1140.3" y1="1221.4" x2="1158.6" y2="1239.7"/>
	<line class="st2" x1="1079.7" y1="1198.7" x2="1097.9" y2="1217"/>
	<line class="st2" x1="1231.6" y1="1255.6" x2="1249.8" y2="1273.9"/>
	<line class="st2" x1="1261.9" y1="1266.9" x2="1292.2" y2="1297.2"/>
	<line class="st2" x1="964.6" y1="1102.8" x2="1067.6" y2="1205.6"/>
	<line class="st2" x1="934.3" y1="1091.4" x2="952.6" y2="1109.7"/>
	<line class="st2" x1="557.1" y1="487.3" x2="557.1" y2="563.1"/>
	<line class="st2" x1="946.6" y1="876.3" x2="648.5" y2="578.6"/>
	<line class="st2" x1="401.3" y1="652.4" x2="367" y2="672.1"/>
	<line class="st2" x1="367" y1="672.1" x2="367" y2="596.3"/>
	<line class="st2" x1="367" y1="596.3" x2="401.3" y2="576.6"/>
	<line class="st2" x1="401.3" y1="652.4" x2="401.3" y2="576.6"/>
	<line class="st2" x1="2183.2" y1="898.4" x2="1676.5" y2="1188.6"/>
	<line class="st2" x1="2183.2" y1="822.5" x2="2183.2" y2="898.4"/>
	<line class="st2" x1="1628.3" y1="1140.4" x2="1608.5" y2="1120.7"/>
	<line class="st2" x1="1564.6" y1="1076.8" x2="1496.6" y2="1008.9"/>
	<line class="st2" x1="1841.6" y1="811.3" x2="1544.9" y2="981.3"/>
	<line class="st2" x1="2003.3" y1="718.7" x2="1899.6" y2="778.1"/>
	<line class="st2" x1="2003.3" y1="718.7" x2="2134.9" y2="850.2"/>
	<line class="st2" x1="215.3" y1="611.7" x2="260.7" y2="657.1"/>
	<line class="st2" x1="649.4" y1="510.2" x2="555.8" y2="416.7"/>
	<line class="st2" x1="649.4" y1="510.2" x2="741.8" y2="457.4"/>
	<line class="st2" x1="741.8" y1="457.4" x2="1083" y2="798.2"/>
	<line class="st2" x1="1131.3" y1="846.4" x2="1067.9" y2="882.6"/>
	<line class="st2" x1="1010" y1="915.9" x2="994.9" y2="924.5"/>
	<line class="st2" x1="979" y1="1588.1" x2="1106.1" y2="1715"/>
	<line class="st2" x1="215.3" y1="535.9" x2="215.3" y2="611.7"/>
	<line class="st2" x1="309" y1="705.3" x2="309" y2="629.5"/>
	<line class="st2" x1="790.8" y1="1041.4" x2="790.8" y2="965.6"/>
	<line class="st2" x1="1363.2" y1="1368.1" x2="1363.2" y2="1292.3"/>
	<line class="st2" x1="1490.2" y1="1495" x2="1490.2" y2="1419.2"/>
	<line class="st2" x1="1027.3" y1="1560.5" x2="1066.2" y2="1538.2"/>
	<line class="st2" x1="1207.3" y1="1457.4" x2="1207.3" y2="1381.5"/>
	<line class="st2" x1="1027.3" y1="1277.6" x2="875.6" y2="1126.1"/>
	<line class="st2" x1="741.8" y1="381.6" x2="741.8" y2="457.4"/>
	<line class="st2" x1="1131.3" y1="770.6" x2="741.8" y2="381.6"/>
	<line class="st2" x1="1448.4" y1="960.7" x2="1400.3" y2="912.7"/>
	<line class="st2" x1="1496.6" y1="1008.9" x2="1231.4" y2="1160.7"/>
	<line class="st2" x1="1260.1" y1="772.6" x2="1131.3" y2="846.4"/>
	<line class="st2" x1="1356.4" y1="868.8" x2="1260.1" y2="772.6"/>
	<line class="st2" x1="1766.7" y1="482.4" x2="1955" y2="670.5"/>
	<line class="st2" x1="1308.3" y1="745" x2="1766.7" y2="482.4"/>
	<line class="st2" x1="2003.3" y1="642.9" x2="2003.3" y2="718.7"/>
	<line class="st2" x1="1766.7" y1="482.4" x2="1766.7" y2="406.6"/>
	<line class="st2" x1="2003.3" y1="642.9" x2="1766.7" y2="406.6"/>
	<line class="st2" x1="1292.2" y1="1297.2" x2="1292.2" y2="1221.4"/>
	<line class="st2" x1="2183.2" y1="822.5" x2="2003.3" y2="642.9"/>
	<line class="st2" x1="555.8" y1="416.7" x2="555.8" y2="340.9"/>
	<line class="st2" x1="555.8" y1="340.9" x2="649.4" y2="434.4"/>
	<line class="st2" x1="649.4" y1="434.4" x2="649.4" y2="510.2"/>
	<line class="st2" x1="173" y1="783.2" x2="173" y2="707.4"/>
	<line class="st2" x1="562.6" y1="1172.2" x2="173" y2="783.2"/>
	<line class="st2" x1="1411.4" y1="1340.4" x2="1676.5" y2="1188.6"/>
	<line class="st2" x1="1496.6" y1="933.1" x2="1496.6" y2="1008.9"/>
	<line class="st2" x1="555.8" y1="340.9" x2="215.3" y2="535.9"/>
	<line class="st2" x1="309" y1="705.3" x2="221.3" y2="755.5"/>
	<line class="st2" x1="591.4" y1="467.6" x2="557.1" y2="487.3"/>
	<line class="st2" x1="591.4" y1="467.6" x2="591.4" y2="521.6"/>
	<line class="st2" x1="1131.3" y1="770.6" x2="1260.1" y2="696.8"/>
	<line class="st2" x1="1260.1" y1="696.8" x2="1260.1" y2="772.6"/>
	<line class="st2" x1="741.8" y1="381.6" x2="649.4" y2="434.4"/>
	<line class="st2" x1="1314.2" y1="1396.1" x2="1363.2" y2="1368.1"/>
	<line class="st2" x1="1255.5" y1="1429.7" x2="1256.2" y2="1429.3"/>
	<line class="st2" x1="562.6" y1="1172.2" x2="979" y2="1588.1"/>
	<line class="st2" x1="1766.7" y1="406.6" x2="1260.1" y2="696.8"/>
	<line class="st2" x1="1496.6" y1="933.1" x2="1841.6" y2="735.5"/>
	<line class="st2" x1="1841.6" y1="811.3" x2="1841.6" y2="735.5"/>
	<line class="st2" x1="790.8" y1="1041.4" x2="705.7" y2="1090.2"/>
	<line class="st2" x1="647.7" y1="1123.4" x2="610.8" y2="1144.5"/>
	<line class="st2" x1="1067.9" y1="882.6" x2="1067.9" y2="806.8"/>
	<line class="st2" x1="705.7" y1="1090.2" x2="705.7" y2="1014.4"/>
	<line class="st2" x1="1356.4" y1="868.8" x2="1356.4" y2="793"/>
	<line class="st2" x1="1899.6" y1="778.1" x2="1899.6" y2="702.3"/>
	<line class="st2" x1="1400.3" y1="912.7" x2="1400.3" y2="836.9"/>
	<line class="st2" x1="1400.3" y1="836.9" x2="1496.6" y2="933.1"/>
	<line class="st2" x1="1314.2" y1="1396.1" x2="1314.2" y2="1320.3"/>
	<line class="st2" x1="946.6" y1="876.3" x2="1010" y2="840"/>
	<line class="st2" x1="1010" y1="915.9" x2="1010" y2="840"/>
	<line class="st2" x1="1286.1" y1="1536.1" x2="1207.3" y2="1457.4"/>
	<line class="st2" x1="1564.6" y1="1076.8" x2="1564.6" y2="1001"/>
	<line class="st2" x1="1256.2" y1="1353.5" x2="1207.3" y2="1381.5"/>
	<line class="st2" x1="1256.2" y1="1429.3" x2="1256.2" y2="1353.5"/>
	<line class="st2" x1="1608.5" y1="1120.7" x2="1608.5" y2="1044.8"/>
	<line class="st2" x1="1608.5" y1="1044.8" x2="1676.5" y2="1112.7"/>
	<line class="st2" x1="562.6" y1="1096.4" x2="647.7" y2="1047.6"/>
	<line class="st2" x1="647.7" y1="1123.4" x2="647.7" y2="1047.6"/>
	<line class="st2" x1="1490.2" y1="1495" x2="1334.3" y2="1584.3"/>
	<line class="st2" x1="1066.2" y1="1462.3" x2="979" y2="1512.3"/>
	<line class="st2" x1="1124.2" y1="1482.4" x2="1124.2" y2="1429.1"/>
	<line class="st2" x1="1066.2" y1="1538.2" x2="1066.2" y2="1462.3"/>
	<line class="st2" x1="492.7" y1="743.7" x2="742.6" y2="993.3"/>
	<line class="st2" x1="557.2" y1="563.1" x2="600.3" y2="606.2"/>
	<line class="st2" x1="648.5" y1="578.6" x2="648.5" y2="654.4"/>
	<line class="st2" x1="648.5" y1="654.4" x2="648.5" y2="823.5"/>
	<line class="st2" x1="923.2" y1="1097.8" x2="934.3" y2="1091.4"/>
	<line class="st2" x1="1062.7" y1="1237.2" x2="1097.9" y2="1217"/>
	<line class="st2" x1="1097.9" y1="1217" x2="1110" y2="1210"/>
	<line class="st2" x1="1099.2" y1="1273.7" x2="1158.6" y2="1239.7"/>
	<line class="st2" x1="1158.6" y1="1239.7" x2="1170.7" y2="1232.7"/>
	<line class="st2" x1="1081" y1="1255.4" x2="1128.3" y2="1228.3"/>
	<line class="st2" x1="1128.3" y1="1228.3" x2="1140.3" y2="1221.4"/>
	<line class="st2" x1="1044.4" y1="1218.9" x2="1067.6" y2="1205.6"/>
	<line class="st2" x1="1067.6" y1="1205.6" x2="1079.7" y2="1198.7"/>
	<line class="st2" x1="1676.5" y1="1112.7" x2="2134.9" y2="850.2"/>
	<line class="st2" x1="2134.9" y1="850.2" x2="2183.2" y2="822.5"/>
	<line class="st2" x1="1106.1" y1="1639.2" x2="1027.3" y2="1560.5"/>
	<line class="st2" x1="1027.3" y1="1560.5" x2="979" y2="1512.3"/>
	<line class="st2" x1="309" y1="629.5" x2="263.6" y2="584.1"/>
	<line class="st2" x1="263.6" y1="584.1" x2="215.3" y2="535.9"/>
	<line class="st2" x1="401.3" y1="576.6" x2="449.5" y2="624.8"/>
	<line class="st2" x1="1363.2" y1="1292.3" x2="1411.4" y2="1340.4"/>
	<line class="st2" x1="1411.4" y1="1340.4" x2="1490.2" y2="1419.2"/>
	<line class="st2" x1="1490.2" y1="1419.2" x2="1442" y2="1446.8"/>
	<line class="st2" x1="1442" y1="1446.8" x2="1334.3" y2="1508.4"/>
	<line class="st2" x1="173" y1="707.4" x2="221.3" y2="755.5"/>
	<line class="st2" x1="221.3" y1="755.5" x2="562.6" y2="1096.4"/>
	<line class="st2" x1="1676.5" y1="1112.7" x2="1628.3" y2="1140.4"/>
	<line class="st2" x1="1628.3" y1="1140.4" x2="1363.2" y2="1292.3"/>
	<line class="st2" x1="1183.2" y1="1112.5" x2="1448.4" y2="960.7"/>
	<line class="st2" x1="1448.4" y1="960.7" x2="1496.6" y2="933.1"/>
	<line class="st2" x1="1292.2" y1="1221.4" x2="1231.4" y2="1160.7"/>
	<line class="st2" x1="1231.4" y1="1160.7" x2="1183.2" y2="1112.5"/>
	<line class="st2" x1="173" y1="707.4" x2="260.7" y2="657.1"/>
	<line class="st2" x1="260.7" y1="657.1" x2="309" y2="629.5"/>
	<line class="st2" x1="979" y1="1512.3" x2="610.8" y2="1144.5"/>
	<line class="st2" x1="610.8" y1="1144.5" x2="562.6" y2="1096.4"/>
	<line class="st2" x1="1067.9" y1="806.8" x2="1083" y2="798.2"/>
	<line class="st2" x1="1083" y1="798.2" x2="1131.3" y2="770.6"/>
	<line class="st2" x1="705.7" y1="1014.4" x2="742.6" y2="993.3"/>
	<line class="st2" x1="742.6" y1="993.3" x2="790.8" y2="965.6"/>
	<line class="st2" x1="1260.1" y1="696.8" x2="1308.3" y2="745"/>
	<line class="st2" x1="1308.3" y1="745" x2="1356.4" y2="793"/>
	<line class="st2" x1="1899.6" y1="702.3" x2="1955" y2="670.5"/>
	<line class="st2" x1="1955" y1="670.5" x2="2003.3" y2="642.9"/>
	<line class="st2" x1="1363.2" y1="1292.3" x2="1314.9" y2="1319.9"/>
	<line class="st2" x1="1314.9" y1="1319.9" x2="1314.2" y2="1320.3"/>
	<line class="st2" x1="1183.2" y1="1112.5" x2="994.9" y2="924.5"/>
	<line class="st2" x1="994.9" y1="924.5" x2="946.6" y2="876.3"/>
	<line class="st2" x1="1207.3" y1="1381.5" x2="1255.5" y2="1429.7"/>
	<line class="st2" x1="1255.5" y1="1429.7" x2="1334.3" y2="1508.4"/>
	<line class="st2" x1="1496.6" y1="933.1" x2="1544.9" y2="981.3"/>
	<line class="st2" x1="1544.9" y1="981.3" x2="1564.6" y2="1001"/>
	<line class="st2" x1="1207.3" y1="1381.5" x2="1147.1" y2="1416"/>
	<line class="st2" x1="1147.1" y1="1416" x2="1124.2" y2="1429.1"/>
	<line class="st2" x1="1136" y1="1310.3" x2="1219.5" y2="1262.5"/>
	<line class="st2" x1="1219.5" y1="1262.5" x2="1231.5" y2="1255.6"/>
	<line class="st2" x1="1117.7" y1="1292.1" x2="1189.1" y2="1251.2"/>
	<line class="st2" x1="1189.1" y1="1251.2" x2="1201.2" y2="1244.3"/>
	<line class="st2" x1="1136.3" y1="1338.9" x2="1249.8" y2="1273.9"/>
	<line class="st2" x1="1249.8" y1="1273.9" x2="1261.9" y2="1266.9"/>
	<line class="st2" x1="1334.3" y1="1508.4" x2="1286.1" y2="1536.1"/>
	<line class="st2" x1="1286.1" y1="1536.1" x2="1106.1" y2="1639.2"/>
	<line class="st2" x1="648.5" y1="578.6" x2="600.3" y2="606.2"/>
	<line class="st2" x1="600.3" y1="606.2" x2="492.7" y2="667.9"/>
	<line class="st2" x1="648.5" y1="578.6" x2="605.4" y2="535.5"/>
	<line class="st2" x1="492.7" y1="667.9" x2="540.9" y2="716.1"/>
	<line class="st2" x1="964.6" y1="1102.8" x2="952.6" y2="1109.7"/>
	<line class="st2" x1="952.6" y1="1109.7" x2="941.4" y2="1116.1"/>
	<line class="st2" x1="1136.3" y1="1310.7" x2="1136.3" y2="1338.9"/>
	<line class="st2" x1="1136.3" y1="1338.9" x2="1136.3" y2="1386.5"/>
	<line class="st2" x1="1027.3" y1="1201.8" x2="1044.4" y2="1218.9"/>
	<line class="st2" x1="449.5" y1="624.8" x2="449.5" y2="624.8"/>
	<line class="st2" x1="449.5" y1="624.8" x2="492.7" y2="667.9"/>
	<line class="st2" x1="605.4" y1="535.5" x2="591.4" y2="521.6"/>
	<line class="st2" x1="591.4" y1="521.6" x2="557.1" y2="487.3"/>
	<line class="st2" x1="540.9" y1="716.1" x2="648.5" y2="823.5"/>
	<line class="st2" x1="648.5" y1="823.5" x2="790.8" y2="965.6"/>
	<line class="st2" x1="1044.4" y1="1218.9" x2="1062.7" y2="1237.2"/>
	<line class="st2" x1="790.8" y1="965.6" x2="923.2" y2="1097.8"/>
	<line class="st2" x1="923.2" y1="1097.8" x2="941.4" y2="1116.1"/>
	<line class="st2" x1="941.4" y1="1116.1" x2="971.8" y2="1146.4"/>
	<line class="st2" x1="971.8" y1="1146.4" x2="1027.3" y2="1201.8"/>
	<line class="st2" x1="1062.7" y1="1237.2" x2="1081" y2="1255.4"/>
	<line class="st2" x1="1081" y1="1255.4" x2="1099.2" y2="1273.7"/>
	<line class="st2" x1="1099.2" y1="1273.7" x2="1117.7" y2="1292.1"/>
	<line class="st2" x1="1117.7" y1="1292.1" x2="1136" y2="1310.3"/>
	<line class="st2" x1="1136" y1="1310.3" x2="1136.3" y2="1310.7"/>
	<line class="st2" x1="875.4" y1="1126" x2="875.6" y2="1126.1"/>
	<line class="st2" x1="1106.1" y1="1715" x2="1334.3" y2="1584.3"/>
	<line class="st2" x1="401.3" y1="652.4" x2="492.7" y2="743.7"/>
	<line class="st2" x1="1442" y1="1446.8" x2="1363.2" y2="1368.1"/>
	<line class="st2" x1="1207.3" y1="1457.4" x2="1148.2" y2="1491.2"/>
	<line class="st2" x1="790.8" y1="1041.4" x2="875.4" y2="1126"/>
	<line class="st2" x1="1136.3" y1="1386.5" x2="1027.3" y2="1277.6"/>
	<line class="st2" x1="1201.2" y1="1244.3" x2="1219.5" y2="1262.5"/>
	<path class="st3" d="M1592.5,739.9c-1,0-1.9-0.2-2.7-0.7s-1.4-1.1-1.7-2c-0.7-1.8-0.3-3.5,1.2-5l21.3-21.9c2.1-2.2,3.9-4.1,5.2-5.7
		c1.3-1.6,2.4-3.1,3-4.3c0.6-1,0.9-1.9,1.1-2.7s0.2-1.6,0.2-2.5c0-2.5-0.8-4.5-2.3-6s-3.5-2.3-6-2.3h-8.3c-2.3,0-4.3,0.8-5.9,2.4
		c-1.6,1.6-2.4,3.5-2.4,5.9v2.4c0,1-0.3,1.8-1.1,2.5c-0.7,0.7-1.5,1.1-2.5,1.1s-1.8-0.4-2.5-1.1s-1.1-1.5-1.1-2.5v-2.4
		c0-2.1,0.4-4.1,1.2-6c0.8-1.9,1.9-3.5,3.2-4.9c1.4-1.4,3-2.5,4.9-3.2c1.9-0.8,3.9-1.2,6-1.2h8.3c2.2,0,4.3,0.4,6.2,1.1
		c1.9,0.8,3.5,1.8,4.9,3.2c1.3,1.4,2.4,3,3.2,4.9c0.8,1.9,1.1,3.9,1.1,6.2c0,1.2-0.1,2.5-0.4,3.9c-0.2,1.4-0.9,3-1.9,4.8
		c-0.8,1.5-2,3.2-3.5,5s-3.4,4-5.9,6.5l-17.1,17.6h26.4c0.9,0,1.8,0.4,2.5,1.1s1.1,1.5,1.1,2.5c0,0.9-0.4,1.8-1.1,2.5
		s-1.5,1.1-2.5,1.1h-32.1L1592.5,739.9L1592.5,739.9z"/>
	<path class="st3" d="M1669.3,732.8c2.1,0,4-0.7,5.4-2.2s2.2-3.3,2.2-5.4v-30.7c0-2.1-0.7-4-2.2-5.4s-3.3-2.2-5.4-2.2h-10.6
		c-2.1,0-4,0.8-5.4,2.2c-1.5,1.5-2.2,3.3-2.2,5.4v30.7c0,2.1,0.7,4,2.2,5.4c1.5,1.5,3.3,2.2,5.4,2.2H1669.3z M1658.7,739.9
		c-2.1,0-4-0.4-5.8-1.1c-1.8-0.8-3.4-1.8-4.7-3.1s-2.4-2.9-3.1-4.7c-0.8-1.8-1.1-3.8-1.1-5.8v-30.7c0-2.1,0.4-4,1.1-5.8
		s1.8-3.4,3.1-4.7c1.3-1.3,2.9-2.4,4.7-3.1c1.8-0.8,3.7-1.1,5.8-1.1h10.6c2.1,0,4,0.4,5.8,1.1s3.4,1.8,4.7,3.1
		c1.3,1.3,2.4,2.9,3.1,4.7s1.1,3.7,1.1,5.8v30.7c0,2.1-0.4,4-1.1,5.8c-0.8,1.8-1.8,3.4-3.1,4.7c-1.3,1.3-2.9,2.4-4.7,3.1
		c-1.8,0.7-3.8,1.1-5.8,1.1H1658.7z"/>
	<path class="st3" d="M1183.4,970.5c-1,0-1.9-0.2-2.7-0.7c-0.8-0.5-1.3-1.1-1.7-2c-0.7-1.8-0.3-3.5,1.2-5l21.4-21.9
		c2.1-2.2,3.9-4.1,5.2-5.7c1.3-1.6,2.4-3.1,3-4.3c0.6-1,0.9-1.9,1.1-2.7s0.2-1.6,0.2-2.5c0-2.5-0.8-4.5-2.3-6s-3.5-2.3-6-2.3h-8.3
		c-2.3,0-4.3,0.8-5.9,2.4c-1.6,1.6-2.4,3.6-2.4,5.9v2.4c0,0.9-0.3,1.8-1.1,2.5c-0.7,0.7-1.5,1-2.5,1s-1.8-0.3-2.5-1
		s-1.1-1.5-1.1-2.5v-2.4c0-2.1,0.4-4.1,1.2-6s1.9-3.5,3.2-4.9c1.4-1.4,3-2.5,4.9-3.2c1.9-0.8,3.9-1.2,6-1.2h8.3
		c2.2,0,4.3,0.4,6.2,1.1c1.9,0.8,3.5,1.8,4.8,3.2s2.4,3,3.2,4.9c0.8,1.9,1.1,3.9,1.1,6.2c0,1.2-0.1,2.6-0.4,3.9
		c-0.2,1.4-0.9,3-1.9,4.8c-0.8,1.5-2,3.2-3.5,5s-3.4,4-5.9,6.5l-17.1,17.6h26.4c1,0,1.8,0.3,2.5,1.1c0.7,0.7,1,1.5,1,2.5
		s-0.3,1.8-1,2.5s-1.5,1.1-2.5,1.1h-32.1L1183.4,970.5L1183.4,970.5z"/>
	<path class="st3" d="M1244.3,970.5c-1,0-1.9-0.3-2.5-1c-0.7-0.7-1-1.5-1-2.5s0.3-1.9,1-2.5c0.7-0.7,1.5-1,2.5-1h10.6v-43.2
		l-10.2,8.2c-0.7,0.5-1.4,0.8-2.2,0.8c-1,0-1.8-0.3-2.5-1s-1-1.5-1-2.5c0-1.1,0.5-2.1,1.4-2.8l14.9-12c0.2-0.2,0.6-0.4,1.1-0.7
		s1.1-0.5,1.9-0.5c1.1,0,2,0.4,2.7,1.1c0.7,0.7,1.1,1.7,1.1,2.8v49.9h10.6c1,0,1.9,0.3,2.5,1c0.7,0.7,1,1.5,1,2.5s-0.3,1.9-1,2.5
		c-0.7,0.7-1.5,1-2.5,1L1244.3,970.5L1244.3,970.5z"/>
	<path class="st3" d="M433.5,901.1c-1,0-1.9-0.2-2.7-0.7s-1.4-1.1-1.7-2c-0.7-1.8-0.3-3.5,1.2-5l21.4-22c2.1-2.2,3.9-4.1,5.2-5.7
		c1.4-1.6,2.4-3.1,3-4.3c0.6-1,0.9-1.9,1.1-2.7s0.3-1.6,0.3-2.5c0-2.5-0.8-4.5-2.3-6s-3.5-2.3-6-2.3h-8.3c-2.3,0-4.3,0.8-5.9,2.4
		c-1.6,1.6-2.4,3.6-2.4,5.9v2.4c0,1-0.4,1.8-1.1,2.5s-1.5,1.1-2.5,1.1s-1.8-0.4-2.5-1.1c-0.7-0.7-1.1-1.5-1.1-2.5v-2.4
		c0-2.1,0.4-4.2,1.2-6c0.8-1.9,1.9-3.5,3.2-4.9c1.4-1.4,3-2.5,4.9-3.2c1.9-0.8,3.9-1.2,6-1.2h8.3c2.3,0,4.3,0.4,6.2,1.1
		c1.9,0.8,3.5,1.8,4.9,3.2c1.4,1.3,2.4,3,3.2,4.8c0.8,1.9,1.1,4,1.1,6.2c0,1.2-0.1,2.5-0.4,3.9s-0.9,3-1.9,4.8c-0.8,1.5-2,3.2-3.5,5
		s-3.4,4-5.9,6.5L439.4,894H466c1,0,1.8,0.4,2.5,1.1c0.7,0.7,1.1,1.5,1.1,2.5c0,0.9-0.4,1.8-1.1,2.5s-1.5,1.1-2.5,1.1L433.5,901.1
		L433.5,901.1z"/>
	<path class="st3" d="M489,890.4c-1.2,0-2.4-0.3-3.4-0.9c-1-0.6-1.8-1.4-2.4-2.4c-0.6-1.1-0.9-2.3-0.8-3.6s0.6-2.5,1.3-3.8l24-38.5
		c0.6-0.8,1.3-1.4,2.2-1.6c0.9-0.2,1.8-0.1,2.7,0.4c0.8,0.6,1.4,1.3,1.6,2.3c0.2,1,0.1,1.8-0.4,2.6L490,883.4h23.2v-23
		c0-0.9,0.4-1.8,1.1-2.5c0.7-0.7,1.5-1.1,2.5-1.1s1.8,0.4,2.5,1.1c0.7,0.7,1.1,1.5,1.1,2.5v23h4.1c1,0,1.8,0.3,2.5,1.1
		c0.7,0.7,1.1,1.5,1.1,2.5s-0.4,1.8-1.1,2.5c-0.7,0.7-1.5,1.1-2.5,1.1h-4.1v7.7c0,1-0.4,1.8-1.1,2.5c-0.7,0.7-1.5,1.1-2.5,1.1
		s-1.8-0.4-2.5-1.1c-0.7-0.7-1.1-1.5-1.1-2.5v-7.7H489V890.4z"/>
	<path class="st3" d="M793.9,693.9c-1,0-1.9-0.2-2.7-0.7s-1.3-1.1-1.7-2c-0.7-1.8-0.3-3.5,1.2-5l21.4-22c2.1-2.2,3.9-4.1,5.2-5.7
		c1.4-1.6,2.4-3.1,3-4.3c0.6-1,0.9-1.9,1.1-2.7c0.2-0.8,0.3-1.6,0.3-2.5c0-2.5-0.8-4.5-2.3-6s-3.5-2.3-6-2.3h-8.3
		c-2.3,0-4.3,0.8-5.9,2.4c-1.6,1.6-2.4,3.6-2.4,5.9v2.4c0,1-0.4,1.8-1.1,2.5c-0.7,0.7-1.5,1.1-2.5,1.1s-1.8-0.4-2.5-1.1
		s-1.1-1.5-1.1-2.5V649c0-2.1,0.4-4.2,1.2-6c0.8-1.9,1.9-3.5,3.2-4.9c1.4-1.4,3-2.5,4.9-3.2c1.9-0.8,3.9-1.2,6-1.2h8.3
		c2.3,0,4.3,0.4,6.2,1.1s3.5,1.8,4.9,3.2c1.3,1.3,2.4,3,3.2,4.8c0.8,1.9,1.1,4,1.1,6.2c0,1.2-0.1,2.5-0.4,3.9
		c-0.3,1.4-0.9,3-1.9,4.8c-0.8,1.5-2,3.2-3.5,5s-3.4,4-5.9,6.5l-17.1,17.6h26.4c1,0,1.8,0.4,2.5,1.1s1.1,1.5,1.1,2.5
		s-0.4,1.8-1.1,2.5s-1.5,1.1-2.5,1.1L793.9,693.9L793.9,693.9z"/>
	<path class="st3" d="M850.6,693.9c-1,0-1.9-0.2-2.7-0.7s-1.3-1.1-1.7-2c-0.7-1.8-0.3-3.5,1.2-5l21.4-22c2.1-2.2,3.9-4.1,5.2-5.7
		c1.4-1.6,2.4-3.1,3-4.3c0.6-1,0.9-1.9,1.1-2.7c0.2-0.8,0.3-1.6,0.3-2.5c0-2.5-0.8-4.5-2.3-6s-3.5-2.3-6-2.3h-8.3
		c-2.3,0-4.3,0.8-5.9,2.4c-1.6,1.6-2.4,3.6-2.4,5.9v2.4c0,1-0.4,1.8-1.1,2.5c-0.7,0.7-1.5,1.1-2.5,1.1s-1.8-0.4-2.5-1.1
		s-1.1-1.5-1.1-2.5V649c0-2.1,0.4-4.2,1.2-6c0.8-1.9,1.9-3.5,3.2-4.9c1.4-1.4,3-2.5,4.9-3.2c1.9-0.8,3.9-1.2,6-1.2h8.3
		c2.3,0,4.3,0.4,6.2,1.1s3.5,1.8,4.9,3.2c1.4,1.3,2.4,3,3.2,4.8c0.8,1.9,1.1,4,1.1,6.2c0,1.2-0.1,2.5-0.4,3.9
		c-0.3,1.4-0.9,3-1.9,4.8c-0.8,1.5-2,3.2-3.5,5s-3.4,4-5.9,6.5l-17.1,17.6h26.4c1,0,1.8,0.4,2.5,1.1s1.1,1.5,1.1,2.5
		s-0.4,1.8-1.1,2.5s-1.5,1.1-2.5,1.1L850.6,693.9L850.6,693.9z"/>
	<path class="st3" d="M1782.7,954.3c-1,0-1.9-0.3-2.5-1c-0.7-0.7-1-1.5-1-2.5s0.3-1.9,1-2.5c0.7-0.7,1.5-1,2.5-1h10.6v-43.2
		l-10.2,8.2c-0.7,0.5-1.4,0.8-2.2,0.8c-1,0-1.9-0.3-2.5-1c-0.7-0.7-1-1.5-1-2.5c0-1.1,0.4-2.1,1.3-2.8l14.9-12
		c0.2-0.2,0.6-0.4,1.1-0.7s1.1-0.5,1.9-0.5c1.1,0,2,0.4,2.7,1.1c0.7,0.7,1,1.7,1,2.8v49.9h10.6c1,0,1.8,0.3,2.5,1s1,1.5,1,2.5
		s-0.3,1.9-1,2.5c-0.7,0.7-1.5,1-2.5,1L1782.7,954.3L1782.7,954.3z"/>
	<path class="st3" d="M1855.4,925.4c2.1,0,3.9-0.7,5.4-2.2s2.2-3.3,2.2-5.4v-8.9c0-2.1-0.8-3.9-2.2-5.4s-3.3-2.2-5.4-2.2h-10.6
		c-2.1,0-3.9,0.8-5.4,2.2c-1.5,1.5-2.2,3.3-2.2,5.4v8.9c0,2.1,0.8,3.9,2.2,5.4c1.5,1.5,3.3,2.2,5.4,2.2H1855.4z M1837.7,955.5
		c-1,0-1.8-0.3-2.5-1.1c-0.7-0.7-1.1-1.5-1.1-2.5s0.3-1.8,1.1-2.5c0.7-0.7,1.5-1.1,2.5-1.1c3.1,0,6.2-0.2,9.2-0.6
		c3-0.4,5.7-1.4,8-2.9c2.1-1.4,3.9-3.2,5.3-5.6c1.4-2.4,2.2-5.3,2.6-8.8c-1.1,0.6-2.3,1.1-3.5,1.4c-1.2,0.3-2.5,0.5-3.8,0.5h-10.6
		c-2.1,0-4-0.4-5.8-1.1c-1.8-0.8-3.4-1.8-4.7-3.1s-2.4-2.9-3.1-4.7c-0.8-1.8-1.1-3.7-1.1-5.8v-8.9c0-2.1,0.4-4,1.1-5.8
		c0.8-1.8,1.8-3.4,3.1-4.7c1.3-1.3,2.9-2.4,4.7-3.1c1.8-0.8,3.7-1.1,5.8-1.1h10.6c2.1,0,4,0.4,5.8,1.1c1.8,0.8,3.4,1.8,4.7,3.1
		s2.4,2.9,3.1,4.7c0.8,1.8,1.1,3.7,1.1,5.8v15.9c0,2.4-0.2,4.9-0.5,7.4s-0.9,4.9-1.8,7.2c-0.8,2.3-2,4.5-3.5,6.5s-3.4,3.7-5.7,5.2
		c-3.2,2-6.6,3.2-10.3,3.8C1844.8,955.2,1841.2,955.5,1837.7,955.5z"/>
	<path class="st3" d="M824.7,1292.8c-1,0-1.9-0.2-2.7-0.7s-1.4-1.1-1.7-2c-0.7-1.8-0.3-3.5,1.2-5l21.4-21.9c2.1-2.2,3.9-4.1,5.2-5.7
		c1.4-1.6,2.4-3.1,3-4.3c0.6-1,0.9-1.9,1.1-2.7c0.2-0.8,0.3-1.6,0.3-2.5c0-2.5-0.8-4.5-2.3-6s-3.5-2.3-6-2.3h-8.3
		c-2.3,0-4.3,0.8-5.9,2.4c-1.6,1.6-2.4,3.6-2.4,5.9v2.4c0,1-0.4,1.8-1.1,2.5c-0.7,0.7-1.5,1.1-2.5,1.1s-1.8-0.4-2.5-1.1
		s-1.1-1.5-1.1-2.5v-2.4c0-2.1,0.4-4.2,1.2-6c0.8-1.9,1.9-3.5,3.2-4.9c1.4-1.4,3-2.5,4.9-3.2c1.9-0.8,3.9-1.2,6-1.2h8.3
		c2.3,0,4.3,0.4,6.2,1.1s3.5,1.8,4.9,3.2c1.3,1.3,2.4,3,3.2,4.8c0.8,1.9,1.1,4,1.1,6.2c0,1.2-0.1,2.5-0.4,3.9
		c-0.3,1.4-0.9,3-1.9,4.8c-0.8,1.5-2,3.2-3.5,5s-3.4,4-5.9,6.5l-17.1,17.6H857c1,0,1.8,0.4,2.5,1.1s1.1,1.5,1.1,2.5
		c0,0.9-0.4,1.8-1.1,2.5c-0.7,0.7-1.5,1.1-2.5,1.1h-32.3V1292.8z"/>
	<path class="st3" d="M890.4,1292.8c-1.8,0-3.5-0.3-5.1-0.9s-3.1-1.4-4.3-2.4s-2.3-2.2-3.2-3.6c-0.8-1.4-1.4-2.8-1.8-4.3
		c-0.3-1.5-0.1-2.6,0.5-3.5s1.6-1.3,2.7-1.3c1,0,1.8,0.3,2.4,0.8c0.6,0.5,1,1.2,1.2,2.1c0.5,1.8,1.4,3.2,2.7,4.3
		c1.4,1.1,3,1.7,4.9,1.7h11.1c2.1,0,4-0.7,5.4-2.2c1.5-1.5,2.2-3.3,2.2-5.4v-8.9c0-2.1-0.7-4-2.2-5.4c-1.5-1.5-3.3-2.2-5.4-2.2
		h-11.2c-1.2,0-2.2,0.1-2.9,0.3c-0.7,0.2-1.3,0.4-1.9,0.7c-0.4,0.2-0.8,0.3-1.3,0.5s-1,0.2-1.6,0.2c-1.3,0-2.5-0.4-3.4-1.3
		s-1.4-2-1.4-3.4v-21.3c0-1.3,0.5-2.5,1.4-3.4s2-1.4,3.4-1.4h27.8c1,0,1.9,0.3,2.5,1c0.7,0.7,1,1.5,1,2.5s-0.3,1.9-1,2.5
		c-0.7,0.7-1.5,1-2.5,1H885v15.5c0.6-0.2,1.4-0.4,2.3-0.6c0.9-0.1,1.9-0.2,3-0.2h11.2c2.1,0,4,0.4,5.8,1.1c1.8,0.8,3.4,1.8,4.7,3.1
		c1.3,1.3,2.4,2.9,3.1,4.7c0.8,1.8,1.1,3.7,1.1,5.8v8.9c0,2.1-0.4,4-1.1,5.8c-0.8,1.8-1.8,3.4-3.1,4.7c-1.3,1.3-2.9,2.4-4.7,3.1
		c-1.8,0.8-3.7,1.1-5.8,1.1h-11.1V1292.8z"/>
	<path class="st3" d="M1103,1565.2c-1,0-1.9-0.2-2.7-0.7s-1.3-1.1-1.7-2c-0.7-1.8-0.3-3.5,1.2-5l21.4-21.9c2.1-2.2,3.9-4.1,5.2-5.7
		c1.3-1.6,2.4-3.1,3-4.3c0.6-1,0.9-1.9,1.1-2.7c0.2-0.8,0.2-1.6,0.2-2.5c0-2.5-0.8-4.5-2.3-6s-3.5-2.3-6-2.3h-8.3
		c-2.3,0-4.3,0.8-5.9,2.4s-2.4,3.6-2.4,5.9v2.4c0,1-0.4,1.8-1.1,2.5s-1.5,1.1-2.5,1.1s-1.8-0.4-2.5-1.1s-1-1.5-1-2.5v-2.4
		c0-2.1,0.4-4.1,1.2-6s1.9-3.5,3.2-4.9c1.4-1.4,3-2.5,4.9-3.2c1.9-0.8,3.9-1.2,6-1.2h8.3c2.2,0,4.3,0.4,6.2,1.1
		c1.9,0.8,3.5,1.8,4.8,3.2c1.4,1.4,2.4,3,3.2,4.9c0.8,1.9,1.1,3.9,1.1,6.2c0,1.2-0.1,2.6-0.4,3.9c-0.3,1.4-0.9,3-1.9,4.8
		c-0.8,1.5-2,3.2-3.5,5s-3.4,4-5.9,6.5l-17.1,17.6h26.4c0.9,0,1.8,0.3,2.5,1.1c0.7,0.7,1.1,1.5,1.1,2.5s-0.4,1.8-1.1,2.5
		s-1.5,1.1-2.5,1.1H1103V1565.2z"/>
	<path class="st3" d="M1169.2,1533.9c-2.1,0-4,0.7-5.5,2.2s-2.2,3.3-2.2,5.4v8.9c0,2.1,0.7,4,2.2,5.4c1.5,1.5,3.3,2.2,5.5,2.2h10.6
		c2.1,0,4-0.8,5.4-2.2c1.4-1.4,2.2-3.3,2.2-5.4v-8.9c0-2.1-0.7-3.9-2.2-5.4s-3.3-2.2-5.4-2.2H1169.2z M1169.2,1565.2
		c-2.1,0-4-0.4-5.8-1.1c-1.8-0.8-3.4-1.8-4.7-3.1c-1.3-1.3-2.4-2.9-3.1-4.7c-0.8-1.8-1.1-3.7-1.1-5.8v-16c0-2.6,0.2-5.2,0.6-7.7
		s1.1-4.9,2.1-7.1s2.3-4.3,3.9-6.2c1.6-1.9,3.6-3.5,5.9-4.9c3.1-1.8,6.4-3.1,10-3.8c3.6-0.7,7.3-1.1,11.1-1.1c1,0,1.8,0.4,2.5,1.1
		s1.1,1.5,1.1,2.5c0,0.9-0.3,1.8-1.1,2.5c-0.7,0.7-1.5,1.1-2.5,1.1c-3.8,0-7.2,0.3-10,0.9s-5.3,1.6-7.5,2.9
		c-2.8,1.6-4.9,3.7-6.2,6.2c-1.3,2.5-2.1,5.1-2.5,7.8c2.2-1.2,4.6-1.9,7.3-1.9h10.6c2.1,0,4,0.4,5.8,1.1c1.8,0.8,3.4,1.8,4.7,3.1
		c1.3,1.3,2.4,2.9,3.1,4.7c0.8,1.8,1.1,3.7,1.1,5.8v8.9c0,2.1-0.4,4-1.1,5.8c-0.8,1.8-1.8,3.4-3.1,4.7c-1.3,1.3-2.9,2.4-4.7,3.1
		c-1.8,0.8-3.8,1.1-5.8,1.1L1169.2,1565.2L1169.2,1565.2z"/>
	<path class="st4" d="M482.2,458.9l73.6-42.2 M263.6,584.1l90.3-51.7"/>
	<path class="st3" d="M1392.2,1185.3c-1,0-1.8-0.3-2.5-1s-1-1.5-1-2.5s0.3-1.8,1-2.5s1.5-1,2.5-1h10.6v-43.2l-10.2,8.2
		c-0.7,0.5-1.4,0.8-2.2,0.8c-1,0-1.9-0.3-2.5-1c-0.7-0.7-1-1.5-1-2.5c0-1.1,0.4-2.1,1.3-2.8l14.9-12c0.2-0.2,0.6-0.4,1.1-0.7
		c0.5-0.3,1.1-0.5,1.9-0.5c1.1,0,2,0.4,2.7,1.1s1.1,1.7,1.1,2.8v49.9h10.6c1,0,1.9,0.3,2.5,1c0.7,0.7,1,1.5,1,2.5s-0.3,1.9-1,2.5
		c-0.7,0.7-1.5,1-2.5,1L1392.2,1185.3L1392.2,1185.3z"/>
	<path class="st3" d="M1470.4,1139.3c0-2-0.7-3.6-2.1-5s-3-2.1-5-2.1h-9.5c-2,0-3.6,0.7-5,2.1s-2.1,3.1-2.1,5v3.5c0,2,0.7,3.6,2.1,5
		s3.1,2.1,5,2.1h9.5c2,0,3.6-0.7,5-2.1s2.1-3.1,2.1-5V1139.3z M1453.3,1157c-2.1,0-3.9,0.7-5.4,2.2s-2.2,3.3-2.2,5.4v5.9
		c0,2.1,0.8,4,2.2,5.4c1.5,1.5,3.3,2.2,5.4,2.2h10.6c2.1,0,3.9-0.8,5.4-2.2c1.5-1.5,2.2-3.3,2.2-5.4v-5.9c0-2.1-0.7-3.9-2.2-5.4
		s-3.3-2.2-5.4-2.2H1453.3z M1463.3,1125.1c2,0,3.8,0.4,5.6,1.1c1.7,0.7,3.2,1.7,4.5,3s2.3,2.8,3,4.5s1.1,3.6,1.1,5.6v3.5
		c0,2.1-0.4,4-1.2,5.7c-0.8,1.7-1.9,3.2-3.2,4.5c1.7,1.3,3.1,3,4.1,5.1c1,2,1.5,4.2,1.5,6.6v5.9c0,2.1-0.4,4-1.1,5.8
		s-1.8,3.4-3.1,4.7c-1.3,1.3-2.9,2.4-4.7,3.1c-1.8,0.8-3.7,1.1-5.8,1.1h-10.6c-2.1,0-4-0.4-5.8-1.1c-1.8-0.8-3.4-1.8-4.7-3.1
		c-1.3-1.3-2.4-2.9-3.1-4.7c-0.7-1.8-1.1-3.8-1.1-5.8v-5.9c0-2.4,0.5-4.5,1.5-6.5s2.3-3.7,4-5c-1.3-1.3-2.4-2.8-3.2-4.6
		c-0.8-1.8-1.1-3.7-1.1-5.7v-3.5c0-2,0.4-3.8,1.1-5.6c0.7-1.8,1.7-3.2,3-4.5s2.8-2.3,4.5-3s3.6-1.1,5.6-1.1L1463.3,1125.1
		L1463.3,1125.1z"/>
	<path class="st3" d="M391.1,533.5c-1,0-1.9-0.2-2.7-0.7c-0.8-0.5-1.4-1.1-1.7-2c-0.7-1.8-0.3-3.5,1.2-5l21.4-22
		c2.1-2.2,3.9-4.1,5.2-5.7c1.4-1.6,2.4-3.1,3-4.3c0.6-1,0.9-1.9,1.1-2.7c0.2-0.8,0.3-1.6,0.3-2.5c0-2.5-0.8-4.5-2.3-6
		s-3.5-2.3-6-2.3h-8.3c-2.3,0-4.3,0.8-5.9,2.4s-2.4,3.6-2.4,5.9v2.4c0,0.9-0.4,1.8-1.1,2.5s-1.5,1.1-2.5,1.1s-1.8-0.4-2.5-1.1
		s-1.1-1.5-1.1-2.5v-2.4c0-2.1,0.4-4.1,1.2-6c0.8-1.9,1.9-3.5,3.2-4.9c1.4-1.4,3-2.5,4.9-3.2c1.9-0.8,3.9-1.2,6-1.2h8.3
		c2.3,0,4.3,0.4,6.2,1.1c1.9,0.8,3.5,1.8,4.9,3.2c1.4,1.3,2.4,3,3.2,4.9c0.8,1.9,1.1,4,1.1,6.2c0,1.2-0.1,2.5-0.4,3.9
		s-0.9,3-1.9,4.8c-0.8,1.5-2,3.2-3.5,5s-3.4,4-5.9,6.5l-16.9,17.5h26.4c1,0,1.8,0.4,2.5,1.1s1.1,1.5,1.1,2.5s-0.4,1.8-1.1,2.5
		s-1.5,1.1-2.5,1.1L391.1,533.5L391.1,533.5L391.1,533.5z"/>
	<path class="st3" d="M449.5,520.9c0,2.1,0.7,3.9,2.2,5.4s3.3,2.2,5.4,2.2h10.6c2.1,0,4-0.8,5.4-2.2s2.2-3.3,2.2-5.4v-8.3
		c0-2.3-0.8-4.3-2.4-5.9s-3.6-2.4-5.9-2.4h-6.5c-1,0-1.9-0.3-2.5-1c-0.7-0.6-1-1.5-1-2.5c0-0.4,0.1-0.9,0.3-1.2
		c0.2-0.4,0.4-0.7,0.7-1.1l13.5-16.1h-24.6c-1,0-1.9-0.3-2.5-1c-0.7-0.7-1-1.5-1-2.5s0.3-1.9,1-2.5c0.7-0.7,1.5-1,2.5-1h30
		c1.4,0,2.4,0.3,3.2,1c0.8,0.7,1.1,1.6,1.1,2.8c0,0.3-0.1,0.7-0.2,1.1s-0.4,0.9-0.9,1.5l-12.5,15.5c2,0.1,3.9,0.5,5.7,1.3
		c1.8,0.8,3.3,1.9,4.7,3.2c1.4,1.4,2.4,3,3.2,4.8c0.8,1.8,1.2,3.8,1.2,6v8.3c0,2.1-0.4,4-1.1,5.8c-0.8,1.8-1.8,3.4-3.1,4.7
		c-1.3,1.3-2.9,2.4-4.7,3.1c-1.8,0.8-3.7,1.1-5.8,1.1h-10.6c-2.1,0-4-0.4-5.8-1.1c-1.8-0.8-3.4-1.8-4.7-3.1
		c-1.3-1.3-2.4-2.9-3.1-4.7s-1.1-3.7-1.1-5.8c0-1,0.3-1.9,1-2.5c0.7-0.7,1.5-1,2.5-1s1.9,0.3,2.5,1
		C449.1,519,449.5,519.9,449.5,520.9z"/>
	<line class="st2" x1="1106.1" y1="1639.2" x2="1106.1" y2="1715"/>
</g>
<circle class="st5" cx="679.8" cy="1102.8" r="5" id="400" nbgh="401,426" hn=""/>
<circle class="st5" cx="871.2" cy="1276.9" r="5" id="401" nbgh="400,404" hn="25"/>
<circle class="st5" cx="1152.5" cy="1396.8" r="5" id="402" nbgh="404,405" hn=""/>
<circle class="st5" cx="1104.6" cy="1505.2" r="5" id="403" nbgh="404,427" hn=""/>
<circle class="st5" cx="1061" cy="1451.8" r="5" id="404" nbgh="401,402,403" hn=""/>
<circle class="st5" cx="1237.7" cy="1348.2" r="5" id="405" nbgh="402,406,408,428" hn=""/>
<circle class="st5" cx="1291.1" cy="1403.8" r="5" id="406" nbgh="405,407" hn=""/>
<circle class="st5" cx="1348.4" cy="1454.2" r="5" id="407" nbgh="406" hn="99"/>
<circle class="st5" cx="1307.8" cy="1308.1" r="5" id="408" nbgh="405,409" hn=""/>
<circle class="st5" cx="1436.7" cy="1174.7" r="5" id="409" nbgh="408,410" hn="18"/>
<circle class="st5" cx="1586.8" cy="1097.1" r="5" id="410" nbgh="409,411" hn=""/>
<circle class="st5" cx="1819.4" cy="945.6" r="5" id="411" nbgh="410,413" hn="19"/>
<circle class="st5" cx="1875.2" cy="789.9" r="5" id="412" nbgh="413,414" hn=""/>
<circle class="st5" cx="1971.2" cy="873.3" r="5" id="413" nbgh="411,412" hn=""/>
<circle class="st5" cx="1746.6" cy="669.8" r="5" id="414" nbgh="412,415" hn=""/>
<circle class="st5" cx="1633.3" cy="723.7" r="5" id="415" nbgh="414,416" hn="20"/>
<circle class="st5" cx="1375.2" cy="888.3" r="5" id="416" nbgh="415,417" hn=""/>
<circle class="st5" cx="1241.4" cy="956.9" r="5" id="417" nbgh="416,419" hn="21"/>
<circle class="st5" cx="1044.6" cy="896.5" r="5" id="418" nbgh="419,420" hn=""/>
<circle class="st5" cx="1158.4" cy="1006" r="5" id="419" nbgh="417,418" hn=""/>
<circle class="st5" cx="838.1" cy="678.8" r="5" id="420" nbgh="418,421" hn="22"/>
<circle class="st5" cx="625.4" cy="515.2" r="5" id="421" nbgh="420,422" hn=""/>
<circle class="st5" cx="575.6" cy="462.4" r="5" id="422" nbgh="421,423" hn=""/>
<circle class="st5" cx="437.8" cy="529.2" r="5" id="423" nbgh="422,425" hn="23"/>
<circle class="st5" cx="341.1" cy="682.8" r="5" id="424" nbgh="425,426" hn=""/>
<circle class="st5" cx="303.3" cy="605.7" r="5" id="425" nbgh="423,424" hn=""/>
<circle class="st5" cx="474.6" cy="887.6" r="5" id="426" nbgh="400,424" hn="24"/>
<circle class="st5" cx="1160.6" cy="1561.3" r="5" id="427" nbgh="403" hn="26"/>
<circle class="st5" cx="1186.2" cy="1293.9" r="7.5" id="428" nbgh="405,429" hn=""/>
<circle class="st5" cx="1113.6" cy="1260.9" r="7.5" id="429" nbgh="429" hn=""/>
</svg>
